<svg width="1440" height="1098" viewBox="0 0 1440 1098" fill="none" xmlns="http://www.w3.org/2000/svg">
<g clip-path="url(#clip0_29958_357)">
<rect width="1440" height="1098" fill="black"/>
<path fill-rule="evenodd" clip-rule="evenodd" d="M1378.87 902.941C1375.89 902.941 1373.48 905.355 1373.48 908.334V967.366C1373.48 967.716 1373.2 968 1372.85 968V968C1372.5 968 1372.21 967.716 1372.21 967.366V908.334C1372.21 905.355 1369.8 902.941 1366.82 902.941H1327.58C1324.61 902.941 1322.19 905.355 1322.19 908.334V965.759C1322.19 966.109 1321.91 966.393 1321.56 966.393V966.393C1321.21 966.393 1320.92 966.109 1320.92 965.759V908.334C1320.92 905.355 1318.51 902.941 1315.53 902.941H1276.3C1273.32 902.941 1270.9 905.355 1270.9 908.334V965.759C1270.9 966.109 1270.62 966.393 1270.27 966.393V966.393C1269.92 966.393 1269.64 966.109 1269.64 965.759V908.334C1269.64 905.355 1267.22 902.941 1264.24 902.941H1225.01C1222.03 902.941 1219.62 905.355 1219.62 908.334V965.759C1219.62 966.109 1219.33 966.393 1218.98 966.393V966.393C1218.63 966.393 1218.35 966.109 1218.35 965.759V908.334C1218.35 905.355 1215.93 902.941 1212.95 902.941H1173.72C1170.74 902.941 1168.33 905.355 1168.33 908.334V965.759C1168.33 966.109 1168.04 966.393 1167.69 966.393V966.393C1167.35 966.393 1167.06 966.109 1167.06 965.759V908.334C1167.06 905.355 1164.65 902.941 1161.67 902.941H1122.43C1119.45 902.941 1117.04 905.355 1117.04 908.334V965.759C1117.04 966.109 1116.76 966.393 1116.41 966.393V966.393C1116.06 966.393 1115.77 966.109 1115.77 965.759V908.334C1115.77 905.355 1113.36 902.941 1110.38 902.941H1071.15C1068.17 902.941 1065.75 905.355 1065.75 908.334V965.759C1065.75 966.109 1065.47 966.393 1065.12 966.393V966.393C1064.77 966.393 1064.49 966.109 1064.49 965.759V908.334C1064.49 905.355 1062.07 902.941 1059.09 902.941H1019.86C1016.88 902.941 1014.46 905.355 1014.46 908.334V965.759C1014.46 966.109 1014.18 966.393 1013.83 966.393V966.393C1013.48 966.393 1013.2 966.109 1013.2 965.759V908.334C1013.2 905.355 1010.78 902.941 1007.8 902.941H968.571C965.592 902.941 963.177 905.355 963.177 908.334V965.759C963.177 966.109 962.894 966.393 962.544 966.393V966.393C962.194 966.393 961.91 966.109 961.91 965.759V908.334C961.91 905.355 959.495 902.941 956.517 902.941H917.283C914.304 902.941 911.889 905.355 911.889 908.334V965.759C911.889 966.109 911.605 966.393 911.255 966.393V966.393C910.905 966.393 910.622 966.109 910.622 965.759V908.334C910.622 905.355 908.207 902.941 905.228 902.941L865.996 902.941C863.017 902.941 860.602 905.355 860.602 908.334V965.759C860.602 966.109 860.318 966.393 859.968 966.393V966.393C859.618 966.393 859.335 966.109 859.335 965.759V908.334C859.335 905.355 856.92 902.941 853.941 902.941H814.707C811.728 902.941 809.313 905.355 809.313 908.334V965.759C809.313 966.109 809.03 966.393 808.68 966.393V966.393C808.33 966.393 808.046 966.109 808.046 965.759V908.334C808.046 905.355 805.631 902.941 802.653 902.941H763.42C760.441 902.941 758.026 905.355 758.026 908.334V965.759C758.026 966.109 757.743 966.393 757.393 966.393V966.393C757.043 966.393 756.759 966.109 756.759 965.759V908.334C756.759 905.355 754.344 902.941 751.365 902.941H712.132C709.153 902.941 706.738 905.355 706.738 908.334V965.759C706.738 966.109 706.454 966.393 706.104 966.393V966.393C705.754 966.393 705.471 966.109 705.471 965.759V908.334C705.471 905.355 703.056 902.941 700.077 902.941H660.844C657.866 902.941 655.451 905.355 655.451 908.334V965.759C655.451 966.109 655.167 966.393 654.817 966.393V966.393C654.467 966.393 654.184 966.109 654.184 965.759V908.334C654.184 905.355 651.769 902.941 648.79 902.941H609.556C606.577 902.941 604.162 905.355 604.162 908.334V965.759C604.162 966.109 603.879 966.393 603.529 966.393V966.393C603.179 966.393 602.895 966.109 602.895 965.759V908.334C602.895 905.355 600.48 902.941 597.501 902.941H558.269C555.29 902.941 552.875 905.355 552.875 908.334V965.759C552.875 966.109 552.592 966.393 552.242 966.393V966.393C551.892 966.393 551.608 966.109 551.608 965.759V908.334C551.608 905.355 549.193 902.941 546.214 902.941H506.98C504.002 902.941 501.587 905.355 501.587 908.334V965.759C501.587 966.109 501.303 966.393 500.953 966.393V966.393C500.603 966.393 500.32 966.109 500.32 965.759V908.334C500.32 905.355 497.905 902.941 494.926 902.941H455.695C452.716 902.941 450.301 905.355 450.301 908.334V965.759C450.301 966.109 450.017 966.393 449.667 966.393V966.393C449.317 966.393 449.034 966.109 449.034 965.759V908.334C449.034 905.355 446.619 902.941 443.64 902.941H404.406C401.427 902.941 399.013 905.355 399.013 908.334V965.759C399.013 966.109 398.729 966.393 398.379 966.393V966.393C398.029 966.393 397.745 966.109 397.745 965.759V908.334C397.745 905.355 395.331 902.941 392.352 902.941H353.119C350.14 902.941 347.725 905.355 347.725 908.334V965.759C347.725 966.109 347.442 966.393 347.092 966.393V966.393C346.742 966.393 346.458 966.109 346.458 965.759V908.334C346.458 905.355 344.043 902.941 341.064 902.941H301.832C298.853 902.941 296.438 905.355 296.438 908.334V965.759C296.438 966.109 296.155 966.393 295.805 966.393V966.393C295.455 966.393 295.171 966.109 295.171 965.759V908.334C295.171 905.355 292.756 902.941 289.777 902.941H250.543C247.565 902.941 245.15 905.355 245.15 908.334V965.759C245.15 966.109 244.866 966.393 244.516 966.393V966.393C244.166 966.393 243.883 966.109 243.883 965.759V908.334C243.883 905.355 241.468 902.941 238.489 902.941H199.256C196.277 902.941 193.863 905.355 193.863 908.334V965.759C193.863 966.109 193.579 966.393 193.229 966.393V966.393C192.879 966.393 192.595 966.109 192.595 965.759V908.334C192.595 905.355 190.181 902.941 187.202 902.941H147.968C144.989 902.941 142.574 905.355 142.574 908.334V965.759C142.574 966.109 142.291 966.393 141.941 966.393V966.393C141.591 966.393 141.307 966.109 141.307 965.759V908.334C141.307 905.355 138.892 902.941 135.913 902.941H96.677C93.6982 902.941 91.2833 905.355 91.2833 908.334V965.759C91.2833 966.109 90.9997 966.393 90.6497 966.393V966.393C90.2998 966.393 90.0161 966.109 90.0161 965.759V908.334C90.0161 905.355 87.6013 902.941 84.6225 902.941L40.8037 902.941C40.3598 902.941 40 902.581 40 902.137V902.137C40 901.693 40.3598 901.333 40.8037 901.333L84.6237 901.333C87.6025 901.333 90.0173 898.918 90.0173 895.939V843.276C90.0173 840.297 87.6025 837.883 84.6237 837.883H40.8037C40.3598 837.883 40 837.523 40 837.079V837.079C40 836.635 40.3598 836.275 40.8037 836.275H84.6237C87.6025 836.275 90.0173 833.86 90.0173 830.882V778.218C90.0173 775.24 87.6025 772.825 84.6237 772.825H40.8037C40.3599 772.825 40 772.465 40 772.021V772.021C40 771.577 40.3599 771.217 40.8037 771.217H84.6237C87.6025 771.217 90.0173 768.802 90.0173 765.824V713.159C90.0173 710.18 87.6025 707.765 84.6237 707.765H40.8037C40.3598 707.765 40 707.405 40 706.962V706.962C40 706.518 40.3598 706.158 40.8037 706.158H84.6237C87.6025 706.158 90.0173 703.743 90.0173 700.764V648.101C90.0173 645.122 87.6025 642.707 84.6237 642.707H40.8037C40.3598 642.707 40 642.348 40 641.904V641.904C40 641.46 40.3598 641.1 40.8037 641.1H84.6237C87.6025 641.1 90.0173 638.685 90.0173 635.706V583.042C90.0173 580.063 87.6025 577.648 84.6237 577.648H40.8037C40.3598 577.648 40 577.288 40 576.844V576.844C40 576.4 40.3598 576.04 40.8037 576.04H84.6237C87.6025 576.04 90.0173 573.626 90.0173 570.647V517.984C90.0173 515.005 87.6025 512.59 84.6237 512.59H40.8037C40.3598 512.59 40 512.23 40 511.786V511.786C40 511.342 40.3598 510.983 40.8037 510.983H84.6237C87.6025 510.983 90.0173 508.568 90.0173 505.589V452.924C90.0173 449.945 87.6025 447.531 84.6237 447.531H40.8037C40.3598 447.531 40 447.171 40 446.727V446.727C40 446.283 40.3598 445.923 40.8037 445.923H84.6237C87.6025 445.923 90.0173 443.508 90.0173 440.529V387.866C90.0173 384.888 87.6025 382.473 84.6237 382.473H40.8037C40.3598 382.473 40 382.113 40 381.669V381.669C40 381.225 40.3598 380.865 40.8037 380.865H84.6237C87.6025 380.865 90.0173 378.45 90.0173 375.472V322.807C90.0173 319.828 87.6025 317.413 84.6237 317.413H40.8037C40.3598 317.413 40 317.053 40 316.61V316.61C40 316.166 40.3598 315.806 40.8037 315.806H84.6237C87.6025 315.806 90.0173 313.391 90.0173 310.412V257.749C90.0173 254.77 87.6025 252.355 84.6237 252.355H40.8037C40.3598 252.355 40 251.996 40 251.552V251.552C40 251.108 40.3598 250.748 40.8037 250.748H84.6237C87.6025 250.748 90.0173 248.333 90.0173 245.354V192.691C90.0173 189.712 87.6025 187.298 84.6237 187.298H40.8037C40.3598 187.298 40 186.938 40 186.494V186.494C40 186.05 40.3598 185.69 40.8037 185.69H84.6237C87.6025 185.69 90.0173 183.275 90.0173 180.296V127.632C90.0173 124.653 87.6025 122.238 84.6237 122.238H40.8037C40.3598 122.238 40 121.878 40 121.434V121.434C40 120.99 40.3598 120.631 40.8037 120.631H84.6237C87.6025 120.631 90.0173 118.216 90.0173 115.237V56.2063C90.0173 55.8564 90.301 55.5727 90.6509 55.5727V55.5727C91.0009 55.5727 91.2845 55.8564 91.2845 56.2063V115.237C91.2845 118.216 93.6994 120.631 96.6782 120.631H135.915C138.894 120.631 141.308 118.216 141.308 115.237V56.2063C141.308 55.8564 141.592 55.5727 141.942 55.5727V55.5727C142.292 55.5727 142.576 55.8564 142.576 56.2063V115.237C142.576 118.216 144.99 120.631 147.969 120.631H187.203C190.182 120.631 192.597 118.216 192.597 115.237V56.2064C192.597 55.8564 192.88 55.5727 193.23 55.5727V55.5727C193.58 55.5727 193.864 55.8564 193.864 56.2064V115.237C193.864 118.216 196.279 120.631 199.258 120.631H238.49C241.469 120.631 243.884 118.216 243.884 115.237V56.2063C243.884 55.8564 244.168 55.5727 244.518 55.5727V55.5727C244.867 55.5727 245.151 55.8564 245.151 56.2063V115.237C245.151 118.216 247.566 120.631 250.545 120.631H289.779C292.757 120.631 295.172 118.216 295.172 115.237V56.2063C295.172 55.8564 295.456 55.5727 295.806 55.5727V55.5727C296.156 55.5727 296.439 55.8564 296.439 56.2063V115.237C296.439 118.216 298.854 120.631 301.833 120.631H341.066C344.045 120.631 346.459 118.216 346.459 115.237V56.2063C346.459 55.8564 346.743 55.5727 347.093 55.5727V55.5727C347.443 55.5727 347.727 55.8564 347.727 56.2063V115.237C347.727 118.216 350.142 120.631 353.12 120.631H392.353C395.332 120.631 397.747 118.216 397.747 115.237V56.2063C397.747 55.8564 398.03 55.5727 398.38 55.5727V55.5727C398.73 55.5727 399.014 55.8564 399.014 56.2063V115.237C399.014 118.216 401.429 120.631 404.407 120.631H443.641C446.62 120.631 449.035 118.216 449.035 115.237V56.2063C449.035 55.8564 449.319 55.5727 449.669 55.5727V55.5727C450.019 55.5727 450.302 55.8564 450.302 56.2063V115.237C450.302 118.216 452.717 120.631 455.696 120.631H494.927C497.906 120.631 500.321 118.216 500.321 115.237V56.2063C500.321 55.8564 500.605 55.5727 500.954 55.5727V55.5727C501.304 55.5727 501.588 55.8564 501.588 56.2063V115.237C501.588 118.216 504.003 120.631 506.982 120.631H546.216C549.194 120.631 551.609 118.216 551.609 115.237V56.2063C551.609 55.8564 551.893 55.5727 552.243 55.5727V55.5727C552.593 55.5727 552.877 55.8564 552.877 56.2063V115.237C552.877 118.216 555.291 120.631 558.27 120.631H597.503C600.482 120.631 602.896 118.216 602.896 115.237V56.2063C602.896 55.8564 603.18 55.5727 603.53 55.5727V55.5727C603.88 55.5727 604.164 55.8564 604.164 56.2063V115.237C604.164 118.216 606.578 120.631 609.557 120.631H648.791C651.77 120.631 654.185 118.216 654.185 115.237V56.2063C654.185 55.8564 654.468 55.5727 654.818 55.5727V55.5727C655.168 55.5727 655.452 55.8564 655.452 56.2063V115.237C655.452 118.216 657.867 120.631 660.846 120.631H700.078C703.057 120.631 705.472 118.216 705.472 115.237V56.2063C705.472 55.8564 705.756 55.5727 706.106 55.5727V55.5727C706.456 55.5727 706.739 55.8564 706.739 56.2063V115.237C706.739 118.216 709.154 120.631 712.133 120.631H751.367C754.346 120.631 756.76 118.216 756.76 115.237V56.2063C756.76 55.8564 757.044 55.5727 757.394 55.5727V55.5727C757.744 55.5727 758.028 55.8564 758.028 56.2063V115.237C758.028 118.216 760.442 120.631 763.421 120.631H802.654C805.633 120.631 808.048 118.216 808.048 115.237V56.2063C808.048 55.8564 808.331 55.5727 808.681 55.5727V55.5727C809.031 55.5727 809.315 55.8564 809.315 56.2063V115.237C809.315 118.216 811.73 120.631 814.708 120.631H853.942C856.921 120.631 859.336 118.216 859.336 115.237V56.2063C859.336 55.8564 859.62 55.5727 859.97 55.5727V55.5727C860.319 55.5727 860.603 55.8564 860.603 56.2063V115.237C860.603 118.216 863.018 120.631 865.997 120.631H905.229C908.208 120.631 910.623 118.216 910.623 115.237V56.2063C910.623 55.8564 910.907 55.5727 911.257 55.5727V55.5727C911.607 55.5727 911.89 55.8564 911.89 56.2063V115.237C911.89 118.216 914.305 120.631 917.284 120.631L956.518 120.631C959.497 120.631 961.911 118.216 961.911 115.237V56.2063C961.911 55.8564 962.195 55.5727 962.545 55.5727V55.5727C962.895 55.5727 963.179 55.8564 963.179 56.2063V115.237C963.179 118.216 965.594 120.631 968.572 120.631H1007.8C1010.78 120.631 1013.2 118.216 1013.2 115.237V56.2063C1013.2 55.8564 1013.48 55.5727 1013.83 55.5727V55.5727C1014.18 55.5727 1014.47 55.8564 1014.47 56.2063V115.237C1014.47 118.216 1016.88 120.631 1019.86 120.631H1059.09C1062.07 120.631 1064.49 118.216 1064.49 115.237V56.2063C1064.49 55.8564 1064.77 55.5727 1065.12 55.5727V55.5727C1065.47 55.5727 1065.75 55.8564 1065.75 56.2063V115.237C1065.75 118.216 1068.17 120.631 1071.15 120.631H1110.38C1113.36 120.631 1115.77 118.216 1115.77 115.237V56.2063C1115.77 55.8564 1116.06 55.5727 1116.41 55.5727V55.5727C1116.76 55.5727 1117.04 55.8564 1117.04 56.2063V115.237C1117.04 118.216 1119.46 120.631 1122.44 120.631H1161.67C1164.65 120.631 1167.06 118.216 1167.06 115.237V56.2063C1167.06 55.8564 1167.35 55.5727 1167.7 55.5727V55.5727C1168.05 55.5727 1168.33 55.8564 1168.33 56.2063V115.237C1168.33 118.216 1170.74 120.631 1173.72 120.631H1212.96C1215.93 120.631 1218.35 118.216 1218.35 115.237V56.2063C1218.35 55.8564 1218.63 55.5727 1218.98 55.5727V55.5727C1219.33 55.5727 1219.62 55.8564 1219.62 56.2063V115.237C1219.62 118.216 1222.03 120.631 1225.01 120.631H1264.24C1267.22 120.631 1269.64 118.216 1269.64 115.237V56.2063C1269.64 55.8564 1269.92 55.5727 1270.27 55.5727V55.5727C1270.62 55.5727 1270.91 55.8564 1270.91 56.2063V115.237C1270.91 118.216 1273.32 120.631 1276.3 120.631H1315.53C1318.51 120.631 1320.93 118.216 1320.93 115.237V56.2063C1320.93 55.8564 1321.21 55.5727 1321.56 55.5727V55.5727C1321.91 55.5727 1322.19 55.8564 1322.19 56.2063V115.237C1322.19 118.216 1324.61 120.631 1327.59 120.631H1366.82C1369.8 120.631 1372.21 118.216 1372.21 115.237V57.8138C1372.21 57.4639 1372.5 57.1802 1372.85 57.1802V57.1802C1373.2 57.1802 1373.48 57.4639 1373.48 57.8138V115.237C1373.48 118.216 1375.89 120.631 1378.87 120.631H1400.2C1400.64 120.631 1401 120.99 1401 121.434V121.434C1401 121.878 1400.64 122.238 1400.2 122.238H1378.87C1375.89 122.238 1373.48 124.653 1373.48 127.632V180.296C1373.48 183.275 1375.89 185.69 1378.87 185.69H1400.2C1400.64 185.69 1401 186.05 1401 186.494V186.494C1401 186.938 1400.64 187.298 1400.2 187.298H1378.87C1375.89 187.298 1373.48 189.712 1373.48 192.691V245.354C1373.48 248.333 1375.89 250.748 1378.87 250.748H1400.2C1400.64 250.748 1401 251.108 1401 251.552V251.552C1401 251.996 1400.64 252.355 1400.2 252.355H1378.87C1375.89 252.355 1373.48 254.77 1373.48 257.749V310.412C1373.48 313.391 1375.89 315.806 1378.87 315.806H1400.2C1400.64 315.806 1401 316.166 1401 316.61V316.61C1401 317.053 1400.64 317.413 1400.2 317.413H1378.87C1375.89 317.413 1373.48 319.828 1373.48 322.807V375.472C1373.48 378.45 1375.89 380.865 1378.87 380.865H1400.2C1400.64 380.865 1401 381.225 1401 381.669V381.669C1401 382.113 1400.64 382.473 1400.2 382.473H1378.87C1375.89 382.473 1373.48 384.888 1373.48 387.866V440.529C1373.48 443.508 1375.89 445.923 1378.87 445.923H1400.2C1400.64 445.923 1401 446.283 1401 446.727V446.727C1401 447.171 1400.64 447.531 1400.2 447.531H1378.87C1375.89 447.531 1373.48 449.945 1373.48 452.924V505.589C1373.48 508.568 1375.89 510.983 1378.87 510.983H1400.2C1400.64 510.983 1401 511.342 1401 511.786V511.786C1401 512.23 1400.64 512.59 1400.2 512.59H1378.87C1375.89 512.59 1373.48 515.005 1373.48 517.984V570.647C1373.48 573.626 1375.89 576.04 1378.87 576.04H1400.2C1400.64 576.04 1401 576.4 1401 576.844V576.844C1401 577.288 1400.64 577.648 1400.2 577.648H1378.87C1375.89 577.648 1373.48 580.063 1373.48 583.042V635.706C1373.48 638.685 1375.89 641.1 1378.87 641.1H1400.2C1400.64 641.1 1401 641.46 1401 641.904V641.904C1401 642.348 1400.64 642.707 1400.2 642.707H1378.87C1375.89 642.707 1373.48 645.122 1373.48 648.101V700.764C1373.48 703.743 1375.89 706.158 1378.87 706.158H1400.2C1400.64 706.158 1401 706.518 1401 706.962V706.962C1401 707.405 1400.64 707.765 1400.2 707.765H1378.87C1375.89 707.765 1373.48 710.18 1373.48 713.159V765.824C1373.48 768.802 1375.89 771.217 1378.87 771.217H1400.2C1400.64 771.217 1401 771.577 1401 772.021V772.021C1401 772.465 1400.64 772.825 1400.2 772.825H1378.87C1375.89 772.825 1373.48 775.24 1373.48 778.218V830.882C1373.48 833.86 1375.89 836.275 1378.87 836.275H1400.2C1400.64 836.275 1401 836.635 1401 837.079V837.079C1401 837.523 1400.64 837.883 1400.2 837.883H1378.87C1375.89 837.883 1373.48 840.297 1373.48 843.276V895.939C1373.48 898.918 1375.89 901.333 1378.87 901.333H1400.2C1400.64 901.333 1401 901.693 1401 902.137V902.137C1401 902.581 1400.64 902.941 1400.2 902.941H1378.87ZM1372.21 895.939C1372.21 898.918 1369.8 901.333 1366.82 901.333H1327.58C1324.61 901.333 1322.19 898.918 1322.19 895.939V843.276C1322.19 840.297 1324.61 837.883 1327.58 837.883H1366.82C1369.8 837.883 1372.21 840.297 1372.21 843.276V895.939ZM1372.21 830.882C1372.21 833.86 1369.8 836.275 1366.82 836.275H1327.58C1324.61 836.275 1322.19 833.86 1322.19 830.882V778.218C1322.19 775.24 1324.61 772.825 1327.58 772.825H1366.82C1369.8 772.825 1372.21 775.24 1372.21 778.218V830.882ZM1372.21 765.824C1372.21 768.802 1369.8 771.217 1366.82 771.217H1327.58C1324.61 771.217 1322.19 768.802 1322.19 765.824V713.159C1322.19 710.18 1324.61 707.765 1327.58 707.765H1366.82C1369.8 707.765 1372.21 710.18 1372.21 713.159V765.824ZM1372.21 700.764C1372.21 703.743 1369.8 706.158 1366.82 706.158H1327.58C1324.61 706.158 1322.19 703.743 1322.19 700.764V648.101C1322.19 645.122 1324.61 642.707 1327.58 642.707H1366.82C1369.8 642.707 1372.21 645.122 1372.21 648.101V700.764ZM1372.21 635.706C1372.21 638.685 1369.8 641.1 1366.82 641.1H1327.58C1324.61 641.1 1322.19 638.685 1322.19 635.706V583.042C1322.19 580.063 1324.61 577.648 1327.58 577.648H1366.82C1369.8 577.648 1372.21 580.063 1372.21 583.042V635.706ZM1372.21 570.647C1372.21 573.626 1369.8 576.04 1366.82 576.04H1327.58C1324.61 576.04 1322.19 573.626 1322.19 570.647V517.984C1322.19 515.005 1324.61 512.59 1327.58 512.59H1366.82C1369.8 512.59 1372.21 515.005 1372.21 517.984V570.647ZM1372.21 505.589C1372.21 508.568 1369.8 510.983 1366.82 510.983H1327.58C1324.61 510.983 1322.19 508.568 1322.19 505.589V452.924C1322.19 449.945 1324.61 447.531 1327.58 447.531H1366.82C1369.8 447.531 1372.21 449.945 1372.21 452.924V505.589ZM1372.21 440.529C1372.21 443.508 1369.8 445.923 1366.82 445.923H1327.58C1324.61 445.923 1322.19 443.508 1322.19 440.529V387.866C1322.19 384.888 1324.61 382.473 1327.58 382.473H1366.82C1369.8 382.473 1372.21 384.888 1372.21 387.866V440.529ZM1372.21 375.472C1372.21 378.45 1369.8 380.865 1366.82 380.865H1327.58C1324.61 380.865 1322.19 378.45 1322.19 375.472V322.807C1322.19 319.828 1324.61 317.413 1327.58 317.413H1366.82C1369.8 317.413 1372.21 319.828 1372.21 322.807V375.472ZM1372.21 310.412C1372.21 313.391 1369.8 315.806 1366.82 315.806H1327.58C1324.61 315.806 1322.19 313.391 1322.19 310.412V257.749C1322.19 254.77 1324.61 252.355 1327.58 252.355H1366.82C1369.8 252.355 1372.21 254.77 1372.21 257.749V310.412ZM1372.21 245.354C1372.21 248.333 1369.8 250.748 1366.82 250.748H1327.58C1324.61 250.748 1322.19 248.333 1322.19 245.354V192.691C1322.19 189.712 1324.61 187.298 1327.58 187.298H1366.82C1369.8 187.298 1372.21 189.712 1372.21 192.691V245.354ZM1372.21 180.296C1372.21 183.275 1369.8 185.69 1366.82 185.69H1327.58C1324.61 185.69 1322.19 183.275 1322.19 180.296V127.632C1322.19 124.653 1324.61 122.238 1327.58 122.238H1366.82C1369.8 122.238 1372.21 124.653 1372.21 127.632V180.296ZM1270.91 895.939C1270.91 898.918 1273.32 901.333 1276.3 901.333H1315.53C1318.51 901.333 1320.93 898.918 1320.93 895.939V843.276C1320.93 840.297 1318.51 837.883 1315.53 837.883H1276.3C1273.32 837.883 1270.91 840.297 1270.91 843.276V895.939ZM1270.91 830.882C1270.91 833.86 1273.32 836.275 1276.3 836.275H1315.53C1318.51 836.275 1320.93 833.86 1320.93 830.882V778.218C1320.93 775.24 1318.51 772.825 1315.53 772.825H1276.3C1273.32 772.825 1270.91 775.24 1270.91 778.218V830.882ZM1270.91 765.824C1270.91 768.802 1273.32 771.217 1276.3 771.217H1315.53C1318.51 771.217 1320.93 768.802 1320.93 765.824V713.159C1320.93 710.18 1318.51 707.765 1315.53 707.765H1276.3C1273.32 707.765 1270.91 710.18 1270.91 713.159V765.824ZM1270.91 700.764C1270.91 703.743 1273.32 706.158 1276.3 706.158H1315.53C1318.51 706.158 1320.93 703.743 1320.93 700.764V648.101C1320.93 645.122 1318.51 642.707 1315.53 642.707H1276.3C1273.32 642.707 1270.91 645.122 1270.91 648.101V700.764ZM1270.91 635.706C1270.91 638.685 1273.32 641.1 1276.3 641.1H1315.53C1318.51 641.1 1320.93 638.685 1320.93 635.706V583.042C1320.93 580.063 1318.51 577.648 1315.53 577.648H1276.3C1273.32 577.648 1270.91 580.063 1270.91 583.042V635.706ZM1270.91 570.647C1270.91 573.626 1273.32 576.04 1276.3 576.04H1315.53C1318.51 576.04 1320.93 573.626 1320.93 570.647V517.984C1320.93 515.005 1318.51 512.59 1315.53 512.59H1276.3C1273.32 512.59 1270.91 515.005 1270.91 517.984V570.647ZM1270.91 505.589C1270.91 508.568 1273.32 510.983 1276.3 510.983H1315.53C1318.51 510.983 1320.93 508.568 1320.93 505.589V452.924C1320.93 449.945 1318.51 447.531 1315.53 447.531H1276.3C1273.32 447.531 1270.91 449.945 1270.91 452.924V505.589ZM1270.91 440.529C1270.91 443.508 1273.32 445.923 1276.3 445.923H1315.53C1318.51 445.923 1320.93 443.508 1320.93 440.529V387.866C1320.93 384.888 1318.51 382.473 1315.53 382.473H1276.3C1273.32 382.473 1270.91 384.888 1270.91 387.866V440.529ZM1270.91 375.472C1270.91 378.45 1273.32 380.865 1276.3 380.865H1315.53C1318.51 380.865 1320.93 378.45 1320.93 375.472V322.807C1320.93 319.828 1318.51 317.413 1315.53 317.413H1276.3C1273.32 317.413 1270.91 319.828 1270.91 322.807V375.472ZM1270.91 310.412C1270.91 313.391 1273.32 315.806 1276.3 315.806H1315.53C1318.51 315.806 1320.93 313.391 1320.93 310.412V257.749C1320.93 254.77 1318.51 252.355 1315.53 252.355H1276.3C1273.32 252.355 1270.91 254.77 1270.91 257.749V310.412ZM1270.91 245.354C1270.91 248.333 1273.32 250.748 1276.3 250.748H1315.53C1318.51 250.748 1320.93 248.333 1320.93 245.354V192.691C1320.93 189.712 1318.51 187.298 1315.53 187.298H1276.3C1273.32 187.298 1270.91 189.712 1270.91 192.691V245.354ZM1270.91 180.296C1270.91 183.275 1273.32 185.69 1276.3 185.69H1315.53C1318.51 185.69 1320.93 183.275 1320.93 180.296V127.632C1320.93 124.653 1318.51 122.238 1315.53 122.238H1276.3C1273.32 122.238 1270.91 124.653 1270.91 127.632V180.296ZM1264.24 122.238C1267.22 122.238 1269.64 124.653 1269.64 127.632V180.296C1269.64 183.275 1267.22 185.69 1264.24 185.69H1225.01C1222.03 185.69 1219.62 183.275 1219.62 180.296V127.632C1219.62 124.653 1222.03 122.238 1225.01 122.238H1264.24ZM1264.24 187.298C1267.22 187.298 1269.64 189.712 1269.64 192.691V245.354C1269.64 248.333 1267.22 250.748 1264.24 250.748H1225.01C1222.03 250.748 1219.62 248.333 1219.62 245.354V192.691C1219.62 189.712 1222.03 187.298 1225.01 187.298H1264.24ZM1264.24 252.355C1267.22 252.355 1269.64 254.77 1269.64 257.749V310.412C1269.64 313.391 1267.22 315.806 1264.24 315.806H1225.01C1222.03 315.806 1219.62 313.391 1219.62 310.412V257.749C1219.62 254.77 1222.03 252.355 1225.01 252.355H1264.24ZM1264.24 317.413C1267.22 317.413 1269.64 319.828 1269.64 322.807V375.472C1269.64 378.45 1267.22 380.865 1264.24 380.865H1225.01C1222.03 380.865 1219.62 378.45 1219.62 375.472V322.807C1219.62 319.828 1222.03 317.413 1225.01 317.413H1264.24ZM1264.24 382.473C1267.22 382.473 1269.64 384.888 1269.64 387.866V440.529C1269.64 443.508 1267.22 445.923 1264.24 445.923H1225.01C1222.03 445.923 1219.62 443.508 1219.62 440.529V387.866C1219.62 384.888 1222.03 382.473 1225.01 382.473H1264.24ZM1264.24 447.531C1267.22 447.531 1269.64 449.945 1269.64 452.924V505.589C1269.64 508.568 1267.22 510.983 1264.24 510.983H1225.01C1222.03 510.983 1219.62 508.568 1219.62 505.589V452.924C1219.62 449.945 1222.03 447.531 1225.01 447.531H1264.24ZM1264.24 512.59C1267.22 512.59 1269.64 515.005 1269.64 517.984V570.647C1269.64 573.626 1267.22 576.04 1264.24 576.04H1225.01C1222.03 576.04 1219.62 573.626 1219.62 570.647V517.984C1219.62 515.005 1222.03 512.59 1225.01 512.59H1264.24ZM1264.24 577.648C1267.22 577.648 1269.64 580.063 1269.64 583.042V635.706C1269.64 638.685 1267.22 641.1 1264.24 641.1H1225.01C1222.03 641.1 1219.62 638.685 1219.62 635.706V583.042C1219.62 580.063 1222.03 577.648 1225.01 577.648H1264.24ZM1264.24 642.707C1267.22 642.707 1269.64 645.122 1269.64 648.101V700.764C1269.64 703.743 1267.22 706.158 1264.24 706.158H1225.01C1222.03 706.158 1219.62 703.743 1219.62 700.764V648.101C1219.62 645.122 1222.03 642.707 1225.01 642.707H1264.24ZM1264.24 707.765C1267.22 707.765 1269.64 710.18 1269.64 713.159V765.824C1269.64 768.802 1267.22 771.217 1264.24 771.217H1225.01C1222.03 771.217 1219.62 768.802 1219.62 765.824V713.159C1219.62 710.18 1222.03 707.765 1225.01 707.765H1264.24ZM1264.24 772.825C1267.22 772.825 1269.64 775.24 1269.64 778.218V830.882C1269.64 833.86 1267.22 836.275 1264.24 836.275H1225.01C1222.03 836.275 1219.62 833.86 1219.62 830.882V778.218C1219.62 775.24 1222.03 772.825 1225.01 772.825H1264.24ZM1264.24 837.883C1267.22 837.883 1269.64 840.297 1269.64 843.276V895.939C1269.64 898.918 1267.22 901.333 1264.24 901.333H1225.01C1222.03 901.333 1219.62 898.918 1219.62 895.939V843.276C1219.62 840.297 1222.03 837.883 1225.01 837.883H1264.24ZM1168.33 895.939C1168.33 898.918 1170.74 901.333 1173.72 901.333H1212.96C1215.93 901.333 1218.35 898.918 1218.35 895.939V843.276C1218.35 840.297 1215.93 837.883 1212.96 837.883H1173.72C1170.74 837.883 1168.33 840.297 1168.33 843.276V895.939ZM1168.33 830.882C1168.33 833.86 1170.74 836.275 1173.72 836.275H1212.96C1215.93 836.275 1218.35 833.86 1218.35 830.882V778.218C1218.35 775.24 1215.93 772.825 1212.96 772.825H1173.72C1170.74 772.825 1168.33 775.24 1168.33 778.218V830.882ZM1168.33 765.824C1168.33 768.802 1170.74 771.217 1173.72 771.217H1212.96C1215.93 771.217 1218.35 768.802 1218.35 765.824V713.159C1218.35 710.18 1215.93 707.765 1212.96 707.765H1173.72C1170.74 707.765 1168.33 710.18 1168.33 713.159V765.824ZM1168.33 700.764C1168.33 703.743 1170.74 706.158 1173.72 706.158H1212.96C1215.93 706.158 1218.35 703.743 1218.35 700.764V648.101C1218.35 645.122 1215.93 642.707 1212.96 642.707H1173.72C1170.74 642.707 1168.33 645.122 1168.33 648.101V700.764ZM1168.33 635.706C1168.33 638.685 1170.74 641.1 1173.72 641.1H1212.96C1215.93 641.1 1218.35 638.685 1218.35 635.706V583.042C1218.35 580.063 1215.93 577.648 1212.96 577.648H1173.72C1170.74 577.648 1168.33 580.063 1168.33 583.042V635.706ZM1168.33 570.647C1168.33 573.626 1170.74 576.04 1173.72 576.04H1212.96C1215.93 576.04 1218.35 573.626 1218.35 570.647V517.984C1218.35 515.005 1215.93 512.59 1212.96 512.59H1173.72C1170.74 512.59 1168.33 515.005 1168.33 517.984V570.647ZM1168.33 505.589C1168.33 508.568 1170.74 510.983 1173.72 510.983H1212.96C1215.93 510.983 1218.35 508.568 1218.35 505.589V452.924C1218.35 449.945 1215.93 447.531 1212.96 447.531H1173.72C1170.74 447.531 1168.33 449.945 1168.33 452.924V505.589ZM1168.33 440.529C1168.33 443.508 1170.74 445.923 1173.72 445.923H1212.96C1215.93 445.923 1218.35 443.508 1218.35 440.529V387.866C1218.35 384.888 1215.93 382.473 1212.96 382.473H1173.72C1170.74 382.473 1168.33 384.888 1168.33 387.866V440.529ZM1168.33 375.472C1168.33 378.45 1170.74 380.865 1173.72 380.865H1212.96C1215.93 380.865 1218.35 378.45 1218.35 375.472V322.807C1218.35 319.828 1215.93 317.413 1212.96 317.413H1173.72C1170.74 317.413 1168.33 319.828 1168.33 322.807V375.472ZM1168.33 310.412C1168.33 313.391 1170.74 315.806 1173.72 315.806H1212.96C1215.93 315.806 1218.35 313.391 1218.35 310.412V257.749C1218.35 254.77 1215.93 252.355 1212.96 252.355H1173.72C1170.74 252.355 1168.33 254.77 1168.33 257.749V310.412ZM1168.33 245.354C1168.33 248.333 1170.74 250.748 1173.72 250.748H1212.96C1215.93 250.748 1218.35 248.333 1218.35 245.354V192.691C1218.35 189.712 1215.93 187.298 1212.96 187.298H1173.72C1170.74 187.298 1168.33 189.712 1168.33 192.691V245.354ZM1168.33 180.296C1168.33 183.275 1170.74 185.69 1173.72 185.69H1212.96C1215.93 185.69 1218.35 183.275 1218.35 180.296V127.632C1218.35 124.653 1215.93 122.238 1212.96 122.238H1173.72C1170.74 122.238 1168.33 124.653 1168.33 127.632V180.296ZM1161.67 122.238C1164.65 122.238 1167.06 124.653 1167.06 127.632V180.296C1167.06 183.275 1164.65 185.69 1161.67 185.69H1122.44C1119.46 185.69 1117.04 183.275 1117.04 180.296V127.632C1117.04 124.653 1119.46 122.238 1122.44 122.238H1161.67ZM1161.67 187.298C1164.65 187.298 1167.06 189.712 1167.06 192.691V245.354C1167.06 248.333 1164.65 250.748 1161.67 250.748H1122.44C1119.46 250.748 1117.04 248.333 1117.04 245.354V192.691C1117.04 189.712 1119.46 187.298 1122.44 187.298H1161.67ZM1161.67 252.355C1164.65 252.355 1167.06 254.77 1167.06 257.749V310.412C1167.06 313.391 1164.65 315.806 1161.67 315.806H1122.44C1119.46 315.806 1117.04 313.391 1117.04 310.412V257.749C1117.04 254.77 1119.46 252.355 1122.44 252.355H1161.67ZM1161.67 317.413C1164.65 317.413 1167.06 319.828 1167.06 322.807V375.472C1167.06 378.45 1164.65 380.865 1161.67 380.865H1122.44C1119.46 380.865 1117.04 378.45 1117.04 375.472V322.807C1117.04 319.828 1119.46 317.413 1122.44 317.413H1161.67ZM1161.67 382.473C1164.65 382.473 1167.06 384.888 1167.06 387.866V440.529C1167.06 443.508 1164.65 445.923 1161.67 445.923H1122.44C1119.46 445.923 1117.04 443.508 1117.04 440.529V387.866C1117.04 384.888 1119.46 382.473 1122.44 382.473H1161.67ZM1161.67 447.531C1164.65 447.531 1167.06 449.945 1167.06 452.924V505.589C1167.06 508.568 1164.65 510.983 1161.67 510.983H1122.44C1119.46 510.983 1117.04 508.568 1117.04 505.589V452.924C1117.04 449.945 1119.46 447.531 1122.44 447.531H1161.67ZM1161.67 512.59C1164.65 512.59 1167.06 515.005 1167.06 517.984V570.647C1167.06 573.626 1164.65 576.04 1161.67 576.04H1122.44C1119.46 576.04 1117.04 573.626 1117.04 570.647V517.984C1117.04 515.005 1119.46 512.59 1122.44 512.59H1161.67ZM1161.67 577.648C1164.65 577.648 1167.06 580.063 1167.06 583.042V635.706C1167.06 638.685 1164.65 641.1 1161.67 641.1H1122.44C1119.46 641.1 1117.04 638.685 1117.04 635.706V583.042C1117.04 580.063 1119.46 577.648 1122.44 577.648H1161.67ZM1161.67 642.707C1164.65 642.707 1167.06 645.122 1167.06 648.101V700.764C1167.06 703.743 1164.65 706.158 1161.67 706.158H1122.44C1119.46 706.158 1117.04 703.743 1117.04 700.764V648.101C1117.04 645.122 1119.46 642.707 1122.44 642.707H1161.67ZM1161.67 707.765C1164.65 707.765 1167.06 710.18 1167.06 713.159V765.824C1167.06 768.802 1164.65 771.217 1161.67 771.217H1122.44C1119.46 771.217 1117.04 768.802 1117.04 765.824V713.159C1117.04 710.18 1119.46 707.765 1122.44 707.765H1161.67ZM1161.67 772.825C1164.65 772.825 1167.06 775.24 1167.06 778.218V830.882C1167.06 833.86 1164.65 836.275 1161.67 836.275H1122.44C1119.46 836.275 1117.04 833.86 1117.04 830.882V778.218C1117.04 775.24 1119.46 772.825 1122.44 772.825H1161.67ZM1161.67 837.883C1164.65 837.883 1167.06 840.297 1167.06 843.276V895.939C1167.06 898.918 1164.65 901.333 1161.67 901.333H1122.44C1119.46 901.333 1117.04 898.918 1117.04 895.939V843.276C1117.04 840.297 1119.46 837.883 1122.44 837.883H1161.67ZM1065.75 895.939C1065.75 898.918 1068.17 901.333 1071.15 901.333H1110.38C1113.36 901.333 1115.77 898.918 1115.77 895.939V843.276C1115.77 840.297 1113.36 837.883 1110.38 837.883H1071.15C1068.17 837.883 1065.75 840.297 1065.75 843.276V895.939ZM1065.75 830.882C1065.75 833.86 1068.17 836.275 1071.15 836.275H1110.38C1113.36 836.275 1115.77 833.86 1115.77 830.882V778.218C1115.77 775.24 1113.36 772.825 1110.38 772.825H1071.15C1068.17 772.825 1065.75 775.24 1065.75 778.218V830.882ZM1065.75 765.824C1065.75 768.802 1068.17 771.217 1071.15 771.217H1110.38C1113.36 771.217 1115.77 768.802 1115.77 765.824V713.159C1115.77 710.18 1113.36 707.765 1110.38 707.765H1071.15C1068.17 707.765 1065.75 710.18 1065.75 713.159V765.824ZM1065.75 700.764C1065.75 703.743 1068.17 706.158 1071.15 706.158H1110.38C1113.36 706.158 1115.77 703.743 1115.77 700.764V648.101C1115.77 645.122 1113.36 642.707 1110.38 642.707H1071.15C1068.17 642.707 1065.75 645.122 1065.75 648.101V700.764ZM1065.75 635.706C1065.75 638.685 1068.17 641.1 1071.15 641.1H1110.38C1113.36 641.1 1115.77 638.685 1115.77 635.706V583.042C1115.77 580.063 1113.36 577.648 1110.38 577.648H1071.15C1068.17 577.648 1065.75 580.063 1065.75 583.042V635.706ZM1065.75 570.647C1065.75 573.626 1068.17 576.04 1071.15 576.04H1110.38C1113.36 576.04 1115.77 573.626 1115.77 570.647V517.984C1115.77 515.005 1113.36 512.59 1110.38 512.59H1071.15C1068.17 512.59 1065.75 515.005 1065.75 517.984V570.647ZM1065.75 505.589C1065.75 508.568 1068.17 510.983 1071.15 510.983H1110.38C1113.36 510.983 1115.77 508.568 1115.77 505.589V452.924C1115.77 449.945 1113.36 447.531 1110.38 447.531H1071.15C1068.17 447.531 1065.75 449.945 1065.75 452.924V505.589ZM1065.75 440.529C1065.75 443.508 1068.17 445.923 1071.15 445.923H1110.38C1113.36 445.923 1115.77 443.508 1115.77 440.529V387.866C1115.77 384.888 1113.36 382.473 1110.38 382.473H1071.15C1068.17 382.473 1065.75 384.888 1065.75 387.866V440.529ZM1065.75 375.472C1065.75 378.45 1068.17 380.865 1071.15 380.865H1110.38C1113.36 380.865 1115.77 378.45 1115.77 375.472V322.807C1115.77 319.828 1113.36 317.413 1110.38 317.413H1071.15C1068.17 317.413 1065.75 319.828 1065.75 322.807V375.472ZM1065.75 310.412C1065.75 313.391 1068.17 315.806 1071.15 315.806H1110.38C1113.36 315.806 1115.77 313.391 1115.77 310.412V257.749C1115.77 254.77 1113.36 252.355 1110.38 252.355H1071.15C1068.17 252.355 1065.75 254.77 1065.75 257.749V310.412ZM1065.75 245.354C1065.75 248.333 1068.17 250.748 1071.15 250.748H1110.38C1113.36 250.748 1115.77 248.333 1115.77 245.354V192.691C1115.77 189.712 1113.36 187.298 1110.38 187.298H1071.15C1068.17 187.298 1065.75 189.712 1065.75 192.691V245.354ZM1065.75 180.296C1065.75 183.275 1068.17 185.69 1071.15 185.69H1110.38C1113.36 185.69 1115.77 183.275 1115.77 180.296V127.632C1115.77 124.653 1113.36 122.238 1110.38 122.238H1071.15C1068.17 122.238 1065.75 124.653 1065.75 127.632V180.296ZM1059.09 122.238C1062.07 122.238 1064.49 124.653 1064.49 127.632V180.296C1064.49 183.275 1062.07 185.69 1059.09 185.69H1019.86C1016.88 185.69 1014.47 183.275 1014.47 180.296V127.632C1014.47 124.653 1016.88 122.238 1019.86 122.238H1059.09ZM1059.09 187.298C1062.07 187.298 1064.49 189.712 1064.49 192.691V245.354C1064.49 248.333 1062.07 250.748 1059.09 250.748H1019.86C1016.88 250.748 1014.47 248.333 1014.47 245.354V192.691C1014.47 189.712 1016.88 187.298 1019.86 187.298H1059.09ZM1059.09 252.355C1062.07 252.355 1064.49 254.77 1064.49 257.749V310.412C1064.49 313.391 1062.07 315.806 1059.09 315.806H1019.86C1016.88 315.806 1014.47 313.391 1014.47 310.412L1014.47 257.749C1014.47 254.77 1016.88 252.355 1019.86 252.355H1059.09ZM1059.09 317.413C1062.07 317.413 1064.49 319.828 1064.49 322.807V375.472C1064.49 378.45 1062.07 380.865 1059.09 380.865H1019.86C1016.88 380.865 1014.47 378.45 1014.47 375.472V322.807C1014.47 319.828 1016.88 317.413 1019.86 317.413H1059.09ZM1059.09 382.473C1062.07 382.473 1064.49 384.888 1064.49 387.866V440.529C1064.49 443.508 1062.07 445.923 1059.09 445.923H1019.86C1016.88 445.923 1014.47 443.508 1014.47 440.529V387.866C1014.47 384.888 1016.88 382.473 1019.86 382.473H1059.09ZM1059.09 447.531C1062.07 447.531 1064.49 449.945 1064.49 452.924V505.589C1064.49 508.568 1062.07 510.983 1059.09 510.983H1019.86C1016.88 510.983 1014.47 508.568 1014.47 505.589V452.924C1014.47 449.945 1016.88 447.531 1019.86 447.531H1059.09ZM1059.09 512.59C1062.07 512.59 1064.49 515.005 1064.49 517.984V570.647C1064.49 573.626 1062.07 576.04 1059.09 576.04H1019.86C1016.88 576.04 1014.47 573.626 1014.47 570.647V517.984C1014.47 515.005 1016.88 512.59 1019.86 512.59H1059.09ZM1059.09 577.648C1062.07 577.648 1064.49 580.063 1064.49 583.042V635.706C1064.49 638.685 1062.07 641.1 1059.09 641.1H1019.86C1016.88 641.1 1014.47 638.685 1014.47 635.706V583.042C1014.47 580.063 1016.88 577.648 1019.86 577.648H1059.09ZM1059.09 642.707C1062.07 642.707 1064.49 645.122 1064.49 648.101V700.764C1064.49 703.743 1062.07 706.158 1059.09 706.158H1019.86C1016.88 706.158 1014.47 703.743 1014.47 700.764V648.101C1014.47 645.122 1016.88 642.707 1019.86 642.707H1059.09ZM1059.09 707.765C1062.07 707.765 1064.49 710.18 1064.49 713.159V765.824C1064.49 768.802 1062.07 771.217 1059.09 771.217H1019.86C1016.88 771.217 1014.47 768.802 1014.47 765.824V713.159C1014.47 710.18 1016.88 707.765 1019.86 707.765H1059.09ZM1059.09 772.825C1062.07 772.825 1064.49 775.24 1064.49 778.218V830.882C1064.49 833.86 1062.07 836.275 1059.09 836.275H1019.86C1016.88 836.275 1014.47 833.86 1014.47 830.882V778.218C1014.47 775.24 1016.88 772.825 1019.86 772.825H1059.09ZM1059.09 837.883C1062.07 837.883 1064.49 840.297 1064.49 843.276V895.939C1064.49 898.918 1062.07 901.333 1059.09 901.333H1019.86C1016.88 901.333 1014.47 898.918 1014.47 895.939V843.276C1014.47 840.297 1016.88 837.883 1019.86 837.883H1059.09ZM963.179 895.939C963.179 898.918 965.594 901.333 968.572 901.333H1007.8C1010.78 901.333 1013.2 898.918 1013.2 895.939V843.276C1013.2 840.297 1010.78 837.883 1007.8 837.883H968.572C965.594 837.883 963.179 840.297 963.179 843.276V895.939ZM963.179 830.882C963.179 833.86 965.594 836.275 968.572 836.275H1007.8C1010.78 836.275 1013.2 833.86 1013.2 830.882V778.218C1013.2 775.24 1010.78 772.825 1007.8 772.825H968.572C965.594 772.825 963.179 775.24 963.179 778.218V830.882ZM963.179 765.824C963.179 768.802 965.594 771.217 968.572 771.217H1007.8C1010.78 771.217 1013.2 768.802 1013.2 765.824V713.159C1013.2 710.18 1010.78 707.765 1007.8 707.765H968.572C965.594 707.765 963.179 710.18 963.179 713.159V765.824ZM963.179 700.764C963.179 703.743 965.594 706.158 968.572 706.158H1007.8C1010.78 706.158 1013.2 703.743 1013.2 700.764V648.101C1013.2 645.122 1010.78 642.707 1007.8 642.707H968.572C965.594 642.707 963.179 645.122 963.179 648.101V700.764ZM963.179 635.706C963.179 638.685 965.594 641.1 968.572 641.1H1007.8C1010.78 641.1 1013.2 638.685 1013.2 635.706V583.042C1013.2 580.063 1010.78 577.648 1007.8 577.648H968.572C965.594 577.648 963.179 580.063 963.179 583.042V635.706ZM963.179 570.647C963.179 573.626 965.594 576.04 968.572 576.04H1007.8C1010.78 576.04 1013.2 573.626 1013.2 570.647V517.984C1013.2 515.005 1010.78 512.59 1007.8 512.59H968.572C965.594 512.59 963.179 515.005 963.179 517.984V570.647ZM963.179 505.589C963.179 508.568 965.594 510.983 968.572 510.983H1007.8C1010.78 510.983 1013.2 508.568 1013.2 505.589V452.924C1013.2 449.945 1010.78 447.531 1007.8 447.531H968.572C965.594 447.531 963.179 449.945 963.179 452.924V505.589ZM963.179 440.529C963.179 443.508 965.594 445.923 968.572 445.923H1007.8C1010.78 445.923 1013.2 443.508 1013.2 440.529V387.866C1013.2 384.888 1010.78 382.473 1007.8 382.473H968.572C965.594 382.473 963.179 384.888 963.179 387.866V440.529ZM963.179 375.472C963.179 378.45 965.594 380.865 968.572 380.865H1007.8C1010.78 380.865 1013.2 378.45 1013.2 375.472V322.807C1013.2 319.828 1010.78 317.413 1007.8 317.413H968.572C965.594 317.413 963.179 319.828 963.179 322.807V375.472ZM963.179 310.412C963.179 313.391 965.594 315.806 968.572 315.806H1007.8C1010.78 315.806 1013.2 313.391 1013.2 310.412L1013.2 257.749C1013.2 254.77 1010.78 252.355 1007.8 252.355H968.572C965.594 252.355 963.179 254.77 963.179 257.749L963.179 310.412ZM963.179 245.354C963.179 248.333 965.594 250.748 968.572 250.748H1007.8C1010.78 250.748 1013.2 248.333 1013.2 245.354V192.691C1013.2 189.712 1010.78 187.298 1007.8 187.298H968.572C965.594 187.298 963.179 189.712 963.179 192.691V245.354ZM963.179 180.296C963.179 183.275 965.594 185.69 968.572 185.69H1007.8C1010.78 185.69 1013.2 183.275 1013.2 180.296V127.632C1013.2 124.653 1010.78 122.238 1007.8 122.238H968.572C965.594 122.238 963.179 124.653 963.179 127.632V180.296ZM956.518 122.238C959.497 122.238 961.911 124.653 961.911 127.632V180.296C961.911 183.275 959.497 185.69 956.518 185.69L917.284 185.69C914.305 185.69 911.89 183.275 911.89 180.296V127.632C911.89 124.653 914.305 122.238 917.284 122.238L956.518 122.238ZM956.518 187.298C959.497 187.298 961.911 189.712 961.911 192.691V245.354C961.911 248.333 959.497 250.748 956.518 250.748L917.284 250.748C914.305 250.748 911.89 248.333 911.89 245.354V192.691C911.89 189.712 914.305 187.298 917.284 187.298L956.518 187.298ZM956.518 252.355C959.497 252.355 961.911 254.77 961.911 257.749L961.911 310.412C961.911 313.391 959.497 315.806 956.518 315.806L917.284 315.806C914.305 315.806 911.89 313.391 911.89 310.412L911.89 257.749C911.89 254.77 914.305 252.355 917.284 252.355L956.518 252.355ZM956.518 317.413C959.497 317.413 961.911 319.828 961.911 322.807V375.472C961.911 378.45 959.497 380.865 956.518 380.865L917.284 380.865C914.305 380.865 911.89 378.45 911.89 375.472V322.807C911.89 319.828 914.305 317.413 917.284 317.413L956.518 317.413ZM956.518 382.473C959.497 382.473 961.911 384.888 961.911 387.866V440.529C961.911 443.508 959.497 445.923 956.518 445.923L917.284 445.923C914.305 445.923 911.89 443.508 911.89 440.529V387.866C911.89 384.888 914.305 382.473 917.284 382.473L956.518 382.473ZM956.518 447.531C959.497 447.531 961.911 449.945 961.911 452.924V505.589C961.911 508.568 959.497 510.983 956.518 510.983H917.284C914.305 510.983 911.89 508.568 911.89 505.589V452.924C911.89 449.945 914.305 447.531 917.284 447.531L956.518 447.531ZM956.518 512.59C959.497 512.59 961.911 515.005 961.911 517.984V570.647C961.911 573.626 959.497 576.04 956.518 576.04H917.284C914.305 576.04 911.89 573.626 911.89 570.647V517.984C911.89 515.005 914.305 512.59 917.284 512.59H956.518ZM956.518 577.648C959.497 577.648 961.911 580.063 961.911 583.042V635.706C961.911 638.685 959.497 641.1 956.518 641.1H917.284C914.305 641.1 911.89 638.685 911.89 635.706V583.042C911.89 580.063 914.305 577.648 917.284 577.648H956.518ZM956.518 642.707C959.497 642.707 961.911 645.122 961.911 648.101V700.764C961.911 703.743 959.497 706.158 956.518 706.158H917.284C914.305 706.158 911.89 703.743 911.89 700.764V648.101C911.89 645.122 914.305 642.707 917.284 642.707H956.518ZM956.518 707.765C959.497 707.765 961.911 710.18 961.911 713.159V765.824C961.911 768.802 959.497 771.217 956.518 771.217H917.284C914.305 771.217 911.89 768.802 911.89 765.824V713.159C911.89 710.18 914.305 707.765 917.284 707.765H956.518ZM956.518 772.825C959.497 772.825 961.911 775.24 961.911 778.218V830.882C961.911 833.86 959.497 836.275 956.518 836.275H917.284C914.305 836.275 911.89 833.86 911.89 830.882V778.218C911.89 775.24 914.305 772.825 917.284 772.825H956.518ZM956.518 837.883C959.497 837.883 961.911 840.297 961.911 843.276V895.939C961.911 898.918 959.497 901.333 956.518 901.333H917.284C914.305 901.333 911.89 898.918 911.89 895.939V843.276C911.89 840.297 914.305 837.883 917.284 837.883H956.518ZM860.603 895.939C860.603 898.918 863.018 901.333 865.997 901.333L905.229 901.333C908.208 901.333 910.623 898.918 910.623 895.939V843.276C910.623 840.297 908.208 837.883 905.229 837.883H865.997C863.018 837.883 860.603 840.297 860.603 843.276V895.939ZM860.603 830.882C860.603 833.86 863.018 836.275 865.997 836.275H905.229C908.208 836.275 910.623 833.86 910.623 830.882V778.218C910.623 775.24 908.208 772.825 905.229 772.825H865.997C863.018 772.825 860.603 775.24 860.603 778.218V830.882ZM860.603 765.824C860.603 768.802 863.018 771.217 865.997 771.217H905.229C908.208 771.217 910.623 768.802 910.623 765.824V713.159C910.623 710.18 908.208 707.765 905.229 707.765H865.997C863.018 707.765 860.603 710.18 860.603 713.159V765.824ZM860.603 700.764C860.603 703.743 863.018 706.158 865.997 706.158H905.229C908.208 706.158 910.623 703.743 910.623 700.764V648.101C910.623 645.122 908.208 642.707 905.229 642.707H865.997C863.018 642.707 860.603 645.122 860.603 648.101V700.764ZM860.603 635.706C860.603 638.685 863.018 641.1 865.997 641.1H905.229C908.208 641.1 910.623 638.685 910.623 635.706V583.042C910.623 580.063 908.208 577.648 905.229 577.648H865.997C863.018 577.648 860.603 580.063 860.603 583.042V635.706ZM860.603 570.647C860.603 573.626 863.018 576.04 865.997 576.04H905.229C908.208 576.04 910.623 573.626 910.623 570.647V517.984C910.623 515.005 908.208 512.59 905.229 512.59H865.997C863.018 512.59 860.603 515.005 860.603 517.984V570.647ZM860.603 505.589C860.603 508.568 863.018 510.983 865.997 510.983H905.229C908.208 510.983 910.623 508.568 910.623 505.589V452.924C910.623 449.945 908.208 447.531 905.229 447.531H865.997C863.018 447.531 860.603 449.945 860.603 452.924L860.603 505.589ZM860.603 440.529C860.603 443.508 863.018 445.923 865.997 445.923H905.229C908.208 445.923 910.623 443.508 910.623 440.529V387.866C910.623 384.888 908.208 382.473 905.229 382.473H865.997C863.018 382.473 860.603 384.888 860.603 387.866V440.529ZM860.603 375.472C860.603 378.45 863.018 380.865 865.997 380.865H905.229C908.208 380.865 910.623 378.45 910.623 375.472V322.807C910.623 319.828 908.208 317.413 905.229 317.413H865.997C863.018 317.413 860.603 319.828 860.603 322.807V375.472ZM860.603 310.412C860.603 313.391 863.018 315.806 865.997 315.806H905.229C908.208 315.806 910.623 313.391 910.623 310.412L910.623 257.749C910.623 254.77 908.208 252.355 905.229 252.355H865.997C863.018 252.355 860.603 254.77 860.603 257.749V310.412ZM860.603 245.354C860.603 248.333 863.018 250.748 865.997 250.748H905.229C908.208 250.748 910.623 248.333 910.623 245.354V192.691C910.623 189.712 908.208 187.298 905.229 187.298H865.997C863.018 187.298 860.603 189.712 860.603 192.691V245.354ZM860.603 180.296C860.603 183.275 863.018 185.69 865.997 185.69H905.229C908.208 185.69 910.623 183.275 910.623 180.296V127.632C910.623 124.653 908.208 122.238 905.229 122.238H865.997C863.018 122.238 860.603 124.653 860.603 127.632V180.296ZM853.942 122.238C856.921 122.238 859.336 124.653 859.336 127.632V180.296C859.336 183.275 856.921 185.69 853.942 185.69H814.708C811.73 185.69 809.315 183.275 809.315 180.296V127.632C809.315 124.653 811.73 122.238 814.708 122.238H853.942ZM853.942 187.298C856.921 187.298 859.336 189.712 859.336 192.691V245.354C859.336 248.333 856.921 250.748 853.942 250.748H814.708C811.73 250.748 809.315 248.333 809.315 245.354V192.691C809.315 189.712 811.73 187.298 814.708 187.298H853.942ZM853.942 252.355C856.921 252.355 859.336 254.77 859.336 257.749V310.412C859.336 313.391 856.921 315.806 853.942 315.806H814.708C811.73 315.806 809.315 313.391 809.315 310.412V257.749C809.315 254.77 811.73 252.355 814.708 252.355H853.942ZM853.942 317.413C856.921 317.413 859.336 319.828 859.336 322.807V375.472C859.336 378.45 856.921 380.865 853.942 380.865H814.708C811.73 380.865 809.315 378.45 809.315 375.472V322.807C809.315 319.828 811.73 317.413 814.708 317.413H853.942ZM853.942 382.473C856.921 382.473 859.336 384.888 859.336 387.866V440.529C859.336 443.508 856.921 445.923 853.942 445.923H814.708C811.73 445.923 809.315 443.508 809.315 440.529V387.866C809.315 384.888 811.73 382.473 814.708 382.473H853.942ZM853.942 447.531C856.921 447.531 859.336 449.945 859.336 452.924L859.336 505.589C859.336 508.568 856.921 510.983 853.942 510.983H814.708C811.73 510.983 809.315 508.568 809.315 505.589L809.315 452.924C809.315 449.945 811.73 447.531 814.708 447.531H853.942ZM853.942 512.59C856.921 512.59 859.336 515.005 859.336 517.984V570.647C859.336 573.626 856.921 576.04 853.942 576.04H814.708C811.73 576.04 809.315 573.626 809.315 570.647V517.984C809.315 515.005 811.73 512.59 814.708 512.59H853.942ZM853.942 577.648C856.921 577.648 859.336 580.063 859.336 583.042V635.706C859.336 638.685 856.921 641.1 853.942 641.1H814.708C811.73 641.1 809.315 638.685 809.315 635.706V583.042C809.315 580.063 811.73 577.648 814.708 577.648H853.942ZM853.942 642.707C856.921 642.707 859.336 645.122 859.336 648.101V700.764C859.336 703.743 856.921 706.158 853.942 706.158H814.708C811.73 706.158 809.315 703.743 809.315 700.764V648.101C809.315 645.122 811.73 642.707 814.708 642.707H853.942ZM853.942 707.765C856.921 707.765 859.336 710.18 859.336 713.159V765.824C859.336 768.802 856.921 771.217 853.942 771.217L814.708 771.217C811.73 771.217 809.315 768.802 809.315 765.824V713.159C809.315 710.18 811.73 707.765 814.708 707.765H853.942ZM853.942 772.825C856.921 772.825 859.336 775.24 859.336 778.218V830.882C859.336 833.86 856.921 836.275 853.942 836.275L814.708 836.275C811.73 836.275 809.315 833.86 809.315 830.882V778.218C809.315 775.24 811.73 772.825 814.708 772.825L853.942 772.825ZM853.942 837.883C856.921 837.883 859.336 840.297 859.336 843.276V895.939C859.336 898.918 856.921 901.333 853.942 901.333H814.708C811.73 901.333 809.315 898.918 809.315 895.939V843.276C809.315 840.297 811.73 837.883 814.708 837.883L853.942 837.883ZM758.028 895.939C758.028 898.918 760.442 901.333 763.421 901.333H802.654C805.633 901.333 808.048 898.918 808.048 895.939V843.276C808.048 840.297 805.633 837.883 802.654 837.883H763.421C760.442 837.883 758.028 840.297 758.028 843.276V895.939ZM758.028 830.882C758.028 833.86 760.442 836.275 763.421 836.275H802.654C805.633 836.275 808.048 833.86 808.048 830.882V778.218C808.048 775.24 805.633 772.825 802.654 772.825H763.421C760.442 772.825 758.028 775.24 758.028 778.218V830.882ZM758.028 765.824C758.028 768.802 760.442 771.217 763.421 771.217H802.654C805.633 771.217 808.048 768.802 808.048 765.824V713.159C808.048 710.18 805.633 707.765 802.654 707.765H763.421C760.442 707.765 758.028 710.18 758.028 713.159V765.824ZM758.028 700.764C758.028 703.743 760.442 706.158 763.421 706.158H802.654C805.633 706.158 808.048 703.743 808.048 700.764V648.101C808.048 645.122 805.633 642.707 802.654 642.707H763.421C760.442 642.707 758.028 645.122 758.028 648.101V700.764ZM758.028 635.706C758.028 638.685 760.442 641.1 763.421 641.1H802.654C805.633 641.1 808.048 638.685 808.048 635.706V583.042C808.048 580.063 805.633 577.648 802.654 577.648H763.421C760.442 577.648 758.028 580.063 758.028 583.042V635.706ZM758.028 570.647C758.028 573.626 760.442 576.04 763.421 576.04H802.654C805.633 576.04 808.048 573.626 808.048 570.647V517.984C808.048 515.005 805.633 512.59 802.654 512.59H763.421C760.442 512.59 758.028 515.005 758.028 517.984V570.647ZM758.028 505.589C758.028 508.568 760.442 510.983 763.421 510.983H802.654C805.633 510.983 808.048 508.568 808.048 505.589L808.048 452.924C808.048 449.945 805.633 447.531 802.654 447.531H763.421C760.442 447.531 758.028 449.945 758.028 452.924L758.028 505.589ZM758.028 440.529C758.028 443.508 760.442 445.923 763.421 445.923H802.654C805.633 445.923 808.048 443.508 808.048 440.529V387.866C808.048 384.888 805.633 382.473 802.654 382.473H763.421C760.442 382.473 758.028 384.888 758.028 387.866V440.529ZM758.028 375.472C758.028 378.45 760.442 380.865 763.421 380.865H802.654C805.633 380.865 808.048 378.45 808.048 375.472V322.807C808.048 319.828 805.633 317.413 802.654 317.413H763.421C760.442 317.413 758.028 319.828 758.028 322.807V375.472ZM758.028 310.412C758.028 313.391 760.442 315.806 763.421 315.806H802.654C805.633 315.806 808.048 313.391 808.048 310.412V257.749C808.048 254.77 805.633 252.355 802.654 252.355H763.421C760.442 252.355 758.028 254.77 758.028 257.749V310.412ZM758.028 245.354C758.028 248.333 760.442 250.748 763.421 250.748H802.654C805.633 250.748 808.048 248.333 808.048 245.354V192.691C808.048 189.712 805.633 187.298 802.654 187.298H763.421C760.442 187.298 758.028 189.712 758.028 192.691V245.354ZM758.028 180.296C758.028 183.275 760.442 185.69 763.421 185.69H802.654C805.633 185.69 808.048 183.275 808.048 180.296V127.632C808.048 124.653 805.633 122.238 802.654 122.238H763.421C760.442 122.238 758.028 124.653 758.028 127.632V180.296ZM751.367 122.238C754.346 122.238 756.76 124.653 756.76 127.632V180.296C756.76 183.275 754.346 185.69 751.367 185.69H712.133C709.154 185.69 706.739 183.275 706.739 180.296V127.632C706.739 124.653 709.154 122.238 712.133 122.238H751.367ZM751.367 187.298C754.346 187.298 756.76 189.712 756.76 192.691V245.354C756.76 248.333 754.346 250.748 751.367 250.748H712.133C709.154 250.748 706.739 248.333 706.739 245.354V192.691C706.739 189.712 709.154 187.298 712.133 187.298H751.367ZM751.367 252.355C754.346 252.355 756.76 254.77 756.76 257.749V310.412C756.76 313.391 754.346 315.806 751.367 315.806H712.133C709.154 315.806 706.739 313.391 706.739 310.412V257.749C706.739 254.77 709.154 252.355 712.133 252.355H751.367ZM751.367 317.413C754.346 317.413 756.76 319.828 756.76 322.807V375.472C756.76 378.45 754.346 380.865 751.367 380.865H712.133C709.154 380.865 706.739 378.45 706.739 375.472V322.807C706.739 319.828 709.154 317.413 712.133 317.413H751.367ZM751.367 382.473C754.346 382.473 756.76 384.888 756.76 387.866V440.529C756.76 443.508 754.346 445.923 751.367 445.923H712.133C709.154 445.923 706.739 443.508 706.739 440.529V387.866C706.739 384.888 709.154 382.473 712.133 382.473H751.367ZM751.367 447.531C754.346 447.531 756.76 449.945 756.76 452.924L756.76 505.589C756.76 508.568 754.346 510.983 751.367 510.983H712.133C709.154 510.983 706.739 508.568 706.739 505.589L706.739 452.924C706.739 449.945 709.154 447.531 712.133 447.531H751.367ZM751.367 512.59C754.346 512.59 756.76 515.005 756.76 517.984V570.647C756.76 573.626 754.346 576.04 751.367 576.04H712.133C709.154 576.04 706.739 573.626 706.739 570.647V517.984C706.739 515.005 709.154 512.59 712.133 512.59H751.367ZM751.367 577.648C754.346 577.648 756.76 580.063 756.76 583.042V635.706C756.76 638.685 754.346 641.1 751.367 641.1H712.133C709.154 641.1 706.739 638.685 706.739 635.706V583.042C706.739 580.063 709.154 577.648 712.133 577.648H751.367ZM751.367 642.707C754.346 642.707 756.76 645.122 756.76 648.101V700.764C756.76 703.743 754.346 706.158 751.367 706.158H712.133C709.154 706.158 706.739 703.743 706.739 700.764V648.101C706.739 645.122 709.154 642.707 712.133 642.707H751.367ZM751.367 707.765C754.346 707.765 756.76 710.18 756.76 713.159V765.824C756.76 768.802 754.346 771.217 751.367 771.217H712.133C709.154 771.217 706.739 768.802 706.739 765.824V713.159C706.739 710.18 709.154 707.765 712.133 707.765H751.367ZM751.367 772.825C754.346 772.825 756.76 775.24 756.76 778.218V830.882C756.76 833.86 754.346 836.275 751.367 836.275H712.133C709.154 836.275 706.739 833.86 706.739 830.882V778.218C706.739 775.24 709.154 772.825 712.133 772.825H751.367ZM751.367 837.883C754.346 837.883 756.76 840.297 756.76 843.276V895.939C756.76 898.918 754.346 901.333 751.367 901.333H712.133C709.154 901.333 706.739 898.918 706.739 895.939V843.276C706.739 840.297 709.154 837.883 712.133 837.883H751.367ZM655.452 895.939C655.452 898.918 657.867 901.333 660.846 901.333H700.078C703.057 901.333 705.472 898.918 705.472 895.939V843.276C705.472 840.297 703.057 837.883 700.078 837.883H660.846C657.867 837.883 655.452 840.297 655.452 843.276V895.939ZM655.452 830.882C655.452 833.86 657.867 836.275 660.846 836.275H700.078C703.057 836.275 705.472 833.86 705.472 830.882V778.218C705.472 775.24 703.057 772.825 700.078 772.825H660.846C657.867 772.825 655.452 775.24 655.452 778.218V830.882ZM655.452 765.824C655.452 768.802 657.867 771.217 660.846 771.217H700.078C703.057 771.217 705.472 768.802 705.472 765.824V713.159C705.472 710.18 703.057 707.765 700.078 707.765H660.846C657.867 707.765 655.452 710.18 655.452 713.159V765.824ZM655.452 700.764C655.452 703.743 657.867 706.158 660.846 706.158H700.078C703.057 706.158 705.472 703.743 705.472 700.764V648.101C705.472 645.122 703.057 642.707 700.078 642.707H660.846C657.867 642.707 655.452 645.122 655.452 648.101V700.764ZM655.452 635.706C655.452 638.685 657.867 641.1 660.846 641.1H700.078C703.057 641.1 705.472 638.685 705.472 635.706V583.042C705.472 580.063 703.057 577.648 700.078 577.648H660.846C657.867 577.648 655.452 580.063 655.452 583.042V635.706ZM655.452 570.647C655.452 573.626 657.867 576.04 660.846 576.04H700.078C703.057 576.04 705.472 573.626 705.472 570.647V517.984C705.472 515.005 703.057 512.59 700.078 512.59H660.846C657.867 512.59 655.452 515.005 655.452 517.984V570.647ZM655.452 505.589C655.452 508.568 657.867 510.983 660.846 510.983H700.078C703.057 510.983 705.472 508.568 705.472 505.589L705.472 452.924C705.472 449.945 703.057 447.531 700.078 447.531H660.846C657.867 447.531 655.452 449.945 655.452 452.924L655.452 505.589ZM655.452 440.529C655.452 443.508 657.867 445.923 660.846 445.923H700.078C703.057 445.923 705.472 443.508 705.472 440.529V387.866C705.472 384.888 703.057 382.473 700.078 382.473H660.846C657.867 382.473 655.452 384.888 655.452 387.866V440.529ZM655.452 375.472C655.452 378.45 657.867 380.865 660.846 380.865H700.078C703.057 380.865 705.472 378.45 705.472 375.472V322.807C705.472 319.828 703.057 317.413 700.078 317.413H660.846C657.867 317.413 655.452 319.828 655.452 322.807V375.472ZM655.452 310.412C655.452 313.391 657.867 315.806 660.846 315.806H700.078C703.057 315.806 705.472 313.391 705.472 310.412V257.749C705.472 254.77 703.057 252.355 700.078 252.355H660.846C657.867 252.355 655.452 254.77 655.452 257.749V310.412ZM655.452 245.354C655.452 248.333 657.867 250.748 660.846 250.748H700.078C703.057 250.748 705.472 248.333 705.472 245.354V192.691C705.472 189.712 703.057 187.298 700.078 187.298H660.846C657.867 187.298 655.452 189.712 655.452 192.691V245.354ZM655.452 180.296C655.452 183.275 657.867 185.69 660.846 185.69H700.078C703.057 185.69 705.472 183.275 705.472 180.296V127.632C705.472 124.653 703.057 122.238 700.078 122.238H660.846C657.867 122.238 655.452 124.653 655.452 127.632V180.296ZM648.791 122.238C651.77 122.238 654.185 124.653 654.185 127.632V180.296C654.185 183.275 651.77 185.69 648.791 185.69H609.557C606.578 185.69 604.164 183.275 604.164 180.296V127.632C604.164 124.653 606.578 122.238 609.557 122.238H648.791ZM648.791 187.298C651.77 187.298 654.185 189.712 654.185 192.691V245.354C654.185 248.333 651.77 250.748 648.791 250.748H609.557C606.578 250.748 604.164 248.333 604.164 245.354V192.691C604.164 189.712 606.578 187.298 609.557 187.298H648.791ZM648.791 252.355C651.77 252.355 654.185 254.77 654.185 257.749V310.412C654.185 313.391 651.77 315.806 648.791 315.806H609.557C606.578 315.806 604.164 313.391 604.164 310.412V257.749C604.164 254.77 606.578 252.355 609.557 252.355H648.791ZM648.791 317.413C651.77 317.413 654.185 319.828 654.185 322.807V375.472C654.185 378.45 651.77 380.865 648.791 380.865H609.557C606.578 380.865 604.164 378.45 604.164 375.472V322.807C604.164 319.828 606.578 317.413 609.557 317.413H648.791ZM648.791 382.473C651.77 382.473 654.185 384.888 654.185 387.866V440.529C654.185 443.508 651.77 445.923 648.791 445.923H609.557C606.578 445.923 604.164 443.508 604.164 440.529V387.866C604.164 384.888 606.578 382.473 609.557 382.473H648.791ZM648.791 447.531C651.77 447.531 654.185 449.945 654.185 452.924L654.185 505.589C654.185 508.568 651.77 510.983 648.791 510.983H609.557C606.578 510.983 604.164 508.568 604.164 505.589L604.164 452.924C604.164 449.945 606.578 447.531 609.557 447.531H648.791ZM648.791 512.59C651.77 512.59 654.185 515.005 654.185 517.984V570.647C654.185 573.626 651.77 576.04 648.791 576.04H609.557C606.578 576.04 604.164 573.626 604.164 570.647V517.984C604.164 515.005 606.578 512.59 609.557 512.59H648.791ZM648.791 577.648C651.77 577.648 654.185 580.063 654.185 583.042V635.706C654.185 638.685 651.77 641.1 648.791 641.1H609.557C606.578 641.1 604.164 638.685 604.164 635.706V583.042C604.164 580.063 606.578 577.648 609.557 577.648H648.791ZM648.791 642.707C651.77 642.707 654.185 645.122 654.185 648.101V700.764C654.185 703.743 651.77 706.158 648.791 706.158H609.557C606.578 706.158 604.164 703.743 604.164 700.764V648.101C604.164 645.122 606.578 642.707 609.557 642.707H648.791ZM648.791 707.765C651.77 707.765 654.185 710.18 654.185 713.159V765.824C654.185 768.802 651.77 771.217 648.791 771.217H609.557C606.578 771.217 604.164 768.802 604.164 765.824V713.159C604.164 710.18 606.578 707.765 609.557 707.765H648.791ZM648.791 772.825C651.77 772.825 654.185 775.24 654.185 778.218V830.882C654.185 833.86 651.77 836.275 648.791 836.275H609.557C606.578 836.275 604.164 833.86 604.164 830.882V778.218C604.164 775.24 606.578 772.825 609.557 772.825H648.791ZM648.791 837.883C651.77 837.883 654.185 840.297 654.185 843.276V895.939C654.185 898.918 651.77 901.333 648.791 901.333H609.557C606.578 901.333 604.164 898.918 604.164 895.939V843.276C604.164 840.297 606.578 837.883 609.557 837.883H648.791ZM552.877 895.939C552.877 898.918 555.291 901.333 558.27 901.333H597.503C600.482 901.333 602.896 898.918 602.896 895.939V843.276C602.896 840.297 600.482 837.883 597.503 837.883H558.27C555.291 837.883 552.877 840.297 552.877 843.276V895.939ZM552.877 830.882C552.877 833.86 555.291 836.275 558.27 836.275H597.503C600.482 836.275 602.896 833.86 602.896 830.882V778.218C602.896 775.24 600.482 772.825 597.503 772.825H558.27C555.291 772.825 552.877 775.24 552.877 778.218V830.882ZM552.877 765.824C552.877 768.802 555.291 771.217 558.27 771.217H597.503C600.482 771.217 602.896 768.802 602.896 765.824V713.159C602.896 710.18 600.482 707.765 597.503 707.765H558.27C555.291 707.765 552.877 710.18 552.877 713.159V765.824ZM552.877 700.764C552.877 703.743 555.291 706.158 558.27 706.158H597.503C600.482 706.158 602.896 703.743 602.896 700.764V648.101C602.896 645.122 600.482 642.707 597.503 642.707H558.27C555.291 642.707 552.877 645.122 552.877 648.101V700.764ZM552.877 635.706C552.877 638.685 555.291 641.1 558.27 641.1H597.503C600.482 641.1 602.896 638.685 602.896 635.706V583.042C602.896 580.063 600.482 577.648 597.503 577.648H558.27C555.291 577.648 552.877 580.063 552.877 583.042V635.706ZM552.877 570.647C552.877 573.626 555.291 576.04 558.27 576.04H597.503C600.482 576.04 602.896 573.626 602.896 570.647V517.984C602.896 515.005 600.482 512.59 597.503 512.59H558.27C555.291 512.59 552.877 515.005 552.877 517.984V570.647ZM552.877 505.589C552.877 508.568 555.291 510.983 558.27 510.983H597.503C600.482 510.983 602.896 508.568 602.896 505.589L602.896 452.924C602.896 449.945 600.482 447.531 597.503 447.531H558.27C555.291 447.531 552.877 449.945 552.877 452.924L552.877 505.589ZM552.877 440.529C552.877 443.508 555.291 445.923 558.27 445.923H597.503C600.482 445.923 602.896 443.508 602.896 440.529V387.866C602.896 384.888 600.482 382.473 597.503 382.473H558.27C555.291 382.473 552.877 384.888 552.877 387.866V440.529ZM552.877 375.472C552.877 378.45 555.291 380.865 558.27 380.865H597.503C600.482 380.865 602.896 378.45 602.896 375.472V322.807C602.896 319.828 600.482 317.413 597.503 317.413H558.27C555.291 317.413 552.877 319.828 552.877 322.807V375.472ZM552.877 310.412C552.877 313.391 555.291 315.806 558.27 315.806H597.503C600.482 315.806 602.896 313.391 602.896 310.412V257.749C602.896 254.77 600.482 252.355 597.503 252.355H558.27C555.291 252.355 552.877 254.77 552.877 257.749V310.412ZM552.877 245.354C552.877 248.333 555.291 250.748 558.27 250.748H597.503C600.482 250.748 602.896 248.333 602.896 245.354V192.691C602.896 189.712 600.482 187.298 597.503 187.298H558.27C555.291 187.298 552.877 189.712 552.877 192.691V245.354ZM552.877 180.296C552.877 183.275 555.291 185.69 558.27 185.69H597.503C600.482 185.69 602.896 183.275 602.896 180.296V127.632C602.896 124.653 600.482 122.238 597.503 122.238H558.27C555.291 122.238 552.877 124.653 552.877 127.632V180.296ZM546.216 122.238C549.194 122.238 551.609 124.653 551.609 127.632V180.296C551.609 183.275 549.194 185.69 546.216 185.69H506.982C504.003 185.69 501.588 183.275 501.588 180.296V127.632C501.588 124.653 504.003 122.238 506.982 122.238H546.216ZM546.216 187.298C549.194 187.298 551.609 189.712 551.609 192.691V245.354C551.609 248.333 549.194 250.748 546.216 250.748H506.982C504.003 250.748 501.588 248.333 501.588 245.354V192.691C501.588 189.712 504.003 187.298 506.982 187.298H546.216ZM546.216 252.355C549.194 252.355 551.609 254.77 551.609 257.749V310.412C551.609 313.391 549.194 315.806 546.216 315.806H506.982C504.003 315.806 501.588 313.391 501.588 310.412V257.749C501.588 254.77 504.003 252.355 506.982 252.355H546.216ZM546.216 317.413C549.194 317.413 551.609 319.828 551.609 322.807V375.472C551.609 378.45 549.194 380.865 546.216 380.865H506.982C504.003 380.865 501.588 378.45 501.588 375.472V322.807C501.588 319.828 504.003 317.413 506.982 317.413H546.216ZM546.216 382.473C549.194 382.473 551.609 384.888 551.609 387.866V440.529C551.609 443.508 549.194 445.923 546.216 445.923H506.982C504.003 445.923 501.588 443.508 501.588 440.529V387.866C501.588 384.888 504.003 382.473 506.982 382.473H546.216ZM546.216 447.531C549.194 447.531 551.609 449.945 551.609 452.924L551.609 505.589C551.609 508.568 549.194 510.983 546.216 510.983H506.982C504.003 510.983 501.588 508.568 501.588 505.589L501.588 452.924C501.588 449.945 504.003 447.531 506.982 447.531H546.216ZM546.216 512.59C549.194 512.59 551.609 515.005 551.609 517.984V570.647C551.609 573.626 549.194 576.04 546.216 576.04H506.982C504.003 576.04 501.588 573.626 501.588 570.647V517.984C501.588 515.005 504.003 512.59 506.982 512.59H546.216ZM546.216 577.648C549.194 577.648 551.609 580.063 551.609 583.042V635.706C551.609 638.685 549.194 641.1 546.216 641.1H506.982C504.003 641.1 501.588 638.685 501.588 635.706V583.042C501.588 580.063 504.003 577.648 506.982 577.648H546.216ZM546.216 642.707C549.194 642.707 551.609 645.122 551.609 648.101V700.764C551.609 703.743 549.194 706.158 546.216 706.158H506.982C504.003 706.158 501.588 703.743 501.588 700.764V648.101C501.588 645.122 504.003 642.707 506.982 642.707H546.216ZM546.216 707.765C549.194 707.765 551.609 710.18 551.609 713.159V765.824C551.609 768.802 549.194 771.217 546.216 771.217H506.982C504.003 771.217 501.588 768.802 501.588 765.824V713.159C501.588 710.18 504.003 707.765 506.982 707.765H546.216ZM546.216 772.825C549.194 772.825 551.609 775.24 551.609 778.218V830.882C551.609 833.86 549.194 836.275 546.216 836.275H506.982C504.003 836.275 501.588 833.86 501.588 830.882V778.218C501.588 775.24 504.003 772.825 506.982 772.825H546.216ZM546.216 837.883C549.194 837.883 551.609 840.297 551.609 843.276V895.939C551.609 898.918 549.194 901.333 546.216 901.333H506.982C504.003 901.333 501.588 898.918 501.588 895.939V843.276C501.588 840.297 504.003 837.883 506.982 837.883H546.216ZM450.302 895.939C450.302 898.918 452.717 901.333 455.696 901.333H494.927C497.906 901.333 500.321 898.918 500.321 895.939V843.276C500.321 840.297 497.906 837.883 494.927 837.883H455.696C452.717 837.883 450.302 840.297 450.302 843.276V895.939ZM450.302 830.882C450.302 833.86 452.717 836.275 455.696 836.275H494.927C497.906 836.275 500.321 833.86 500.321 830.882V778.218C500.321 775.24 497.906 772.825 494.927 772.825H455.696C452.717 772.825 450.302 775.24 450.302 778.218V830.882ZM450.302 765.824C450.302 768.802 452.717 771.217 455.696 771.217H494.927C497.906 771.217 500.321 768.802 500.321 765.824V713.159C500.321 710.18 497.906 707.765 494.927 707.765H455.696C452.717 707.765 450.302 710.18 450.302 713.159V765.824ZM450.302 700.764C450.302 703.743 452.717 706.158 455.696 706.158H494.927C497.906 706.158 500.321 703.743 500.321 700.764V648.101C500.321 645.122 497.906 642.707 494.927 642.707H455.696C452.717 642.707 450.302 645.122 450.302 648.101V700.764ZM450.302 635.706C450.302 638.685 452.717 641.1 455.696 641.1H494.927C497.906 641.1 500.321 638.685 500.321 635.706V583.042C500.321 580.063 497.906 577.648 494.927 577.648H455.696C452.717 577.648 450.302 580.063 450.302 583.042V635.706ZM450.302 570.647C450.302 573.626 452.717 576.04 455.696 576.04H494.927C497.906 576.04 500.321 573.626 500.321 570.647V517.984C500.321 515.005 497.906 512.59 494.927 512.59H455.696C452.717 512.59 450.302 515.005 450.302 517.984V570.647ZM450.302 505.589C450.302 508.568 452.717 510.983 455.696 510.983H494.927C497.906 510.983 500.321 508.568 500.321 505.589L500.321 452.924C500.321 449.945 497.906 447.531 494.927 447.531H455.696C452.717 447.531 450.302 449.945 450.302 452.924L450.302 505.589ZM450.302 440.529C450.302 443.508 452.717 445.923 455.696 445.923H494.927C497.906 445.923 500.321 443.508 500.321 440.529V387.866C500.321 384.888 497.906 382.473 494.927 382.473H455.696C452.717 382.473 450.302 384.888 450.302 387.866V440.529ZM450.302 375.472C450.302 378.45 452.717 380.865 455.696 380.865H494.927C497.906 380.865 500.321 378.45 500.321 375.472V322.807C500.321 319.828 497.906 317.413 494.927 317.413H455.696C452.717 317.413 450.302 319.828 450.302 322.807V375.472ZM450.302 310.412C450.302 313.391 452.717 315.806 455.696 315.806H494.927C497.906 315.806 500.321 313.391 500.321 310.412V257.749C500.321 254.77 497.906 252.355 494.927 252.355H455.696C452.717 252.355 450.302 254.77 450.302 257.749V310.412ZM450.302 245.354C450.302 248.333 452.717 250.748 455.696 250.748H494.927C497.906 250.748 500.321 248.333 500.321 245.354V192.691C500.321 189.712 497.906 187.298 494.927 187.298H455.696C452.717 187.298 450.302 189.712 450.302 192.691V245.354ZM450.302 180.296C450.302 183.275 452.717 185.69 455.696 185.69H494.927C497.906 185.69 500.321 183.275 500.321 180.296V127.632C500.321 124.653 497.906 122.238 494.927 122.238H455.696C452.717 122.238 450.302 124.653 450.302 127.632V180.296ZM443.641 122.238C446.62 122.238 449.035 124.653 449.035 127.632V180.296C449.035 183.275 446.62 185.69 443.641 185.69H404.407C401.429 185.69 399.014 183.275 399.014 180.296V127.632C399.014 124.653 401.429 122.238 404.407 122.238H443.641ZM443.641 187.298C446.62 187.298 449.035 189.712 449.035 192.691V245.354C449.035 248.333 446.62 250.748 443.641 250.748H404.407C401.429 250.748 399.014 248.333 399.014 245.354V192.691C399.014 189.712 401.429 187.298 404.407 187.298H443.641ZM443.641 252.355C446.62 252.355 449.035 254.77 449.035 257.749V310.412C449.035 313.391 446.62 315.806 443.641 315.806H404.407C401.429 315.806 399.014 313.391 399.014 310.412V257.749C399.014 254.77 401.429 252.355 404.407 252.355H443.641ZM443.641 317.413C446.62 317.413 449.035 319.828 449.035 322.807V375.472C449.035 378.45 446.62 380.865 443.641 380.865H404.407C401.429 380.865 399.014 378.45 399.014 375.472V322.807C399.014 319.828 401.429 317.413 404.407 317.413H443.641ZM443.641 382.473C446.62 382.473 449.035 384.888 449.035 387.866V440.529C449.035 443.508 446.62 445.923 443.641 445.923H404.407C401.429 445.923 399.014 443.508 399.014 440.529V387.866C399.014 384.888 401.429 382.473 404.407 382.473H443.641ZM443.641 447.531C446.62 447.531 449.035 449.945 449.035 452.924L449.035 505.589C449.035 508.568 446.62 510.983 443.641 510.983H404.407C401.429 510.983 399.014 508.568 399.014 505.589L399.014 452.924C399.014 449.945 401.429 447.531 404.407 447.531H443.641ZM443.641 512.59C446.62 512.59 449.035 515.005 449.035 517.984V570.647C449.035 573.626 446.62 576.04 443.641 576.04H404.407C401.429 576.04 399.014 573.626 399.014 570.647V517.984C399.014 515.005 401.429 512.59 404.407 512.59H443.641ZM443.641 577.648C446.62 577.648 449.035 580.063 449.035 583.042V635.706C449.035 638.685 446.62 641.1 443.641 641.1H404.407C401.429 641.1 399.014 638.685 399.014 635.706V583.042C399.014 580.063 401.429 577.648 404.407 577.648H443.641ZM443.641 642.707C446.62 642.707 449.035 645.122 449.035 648.101V700.764C449.035 703.743 446.62 706.158 443.641 706.158H404.407C401.429 706.158 399.014 703.743 399.014 700.764V648.101C399.014 645.122 401.429 642.707 404.407 642.707H443.641ZM443.641 707.765C446.62 707.765 449.035 710.18 449.035 713.159V765.824C449.035 768.802 446.62 771.217 443.641 771.217H404.407C401.429 771.217 399.014 768.802 399.014 765.824V713.159C399.014 710.18 401.429 707.765 404.407 707.765H443.641ZM443.641 772.825C446.62 772.825 449.035 775.24 449.035 778.218V830.882C449.035 833.86 446.62 836.275 443.641 836.275H404.407C401.429 836.275 399.014 833.86 399.014 830.882V778.218C399.014 775.24 401.429 772.825 404.407 772.825H443.641ZM443.641 837.883C446.62 837.883 449.035 840.297 449.035 843.276V895.939C449.035 898.918 446.62 901.333 443.641 901.333H404.407C401.429 901.333 399.014 898.918 399.014 895.939V843.276C399.014 840.297 401.429 837.883 404.407 837.883H443.641ZM347.727 895.939C347.727 898.918 350.142 901.333 353.12 901.333H392.353C395.332 901.333 397.747 898.918 397.747 895.939V843.276C397.747 840.297 395.332 837.883 392.353 837.883H353.12C350.142 837.883 347.727 840.297 347.727 843.276V895.939ZM347.727 830.882C347.727 833.86 350.142 836.275 353.12 836.275H392.353C395.332 836.275 397.747 833.86 397.747 830.882V778.218C397.747 775.24 395.332 772.825 392.353 772.825H353.12C350.142 772.825 347.727 775.24 347.727 778.218V830.882ZM347.727 765.824C347.727 768.802 350.142 771.217 353.12 771.217H392.353C395.332 771.217 397.747 768.802 397.747 765.824V713.159C397.747 710.18 395.332 707.765 392.353 707.765H353.12C350.142 707.765 347.727 710.18 347.727 713.159V765.824ZM347.727 700.764C347.727 703.743 350.142 706.158 353.12 706.158H392.353C395.332 706.158 397.747 703.743 397.747 700.764V648.101C397.747 645.122 395.332 642.707 392.353 642.707H353.12C350.142 642.707 347.727 645.122 347.727 648.101V700.764ZM347.727 635.706C347.727 638.685 350.142 641.1 353.12 641.1H392.353C395.332 641.1 397.747 638.685 397.747 635.706V583.042C397.747 580.063 395.332 577.648 392.353 577.648H353.12C350.142 577.648 347.727 580.063 347.727 583.042V635.706ZM347.727 570.647C347.727 573.626 350.142 576.04 353.12 576.04H392.353C395.332 576.04 397.747 573.626 397.747 570.647V517.984C397.747 515.005 395.332 512.59 392.353 512.59H353.12C350.142 512.59 347.727 515.005 347.727 517.984V570.647ZM347.727 505.589C347.727 508.568 350.142 510.983 353.12 510.983H392.353C395.332 510.983 397.747 508.568 397.747 505.589L397.747 452.924C397.747 449.945 395.332 447.531 392.353 447.531H353.12C350.142 447.531 347.727 449.945 347.727 452.924V505.589ZM347.727 440.529C347.727 443.508 350.142 445.923 353.12 445.923H392.353C395.332 445.923 397.747 443.508 397.747 440.529V387.866C397.747 384.888 395.332 382.473 392.353 382.473H353.12C350.142 382.473 347.727 384.888 347.727 387.866V440.529ZM347.727 375.472C347.727 378.45 350.142 380.865 353.12 380.865H392.353C395.332 380.865 397.747 378.45 397.747 375.472V322.807C397.747 319.828 395.332 317.413 392.353 317.413H353.12C350.142 317.413 347.727 319.828 347.727 322.807V375.472ZM347.727 310.412C347.727 313.391 350.142 315.806 353.12 315.806H392.353C395.332 315.806 397.747 313.391 397.747 310.412V257.749C397.747 254.77 395.332 252.355 392.353 252.355H353.12C350.142 252.355 347.727 254.77 347.727 257.749V310.412ZM347.727 245.354C347.727 248.333 350.142 250.748 353.12 250.748H392.353C395.332 250.748 397.747 248.333 397.747 245.354V192.691C397.747 189.712 395.332 187.298 392.353 187.298H353.12C350.142 187.298 347.727 189.712 347.727 192.691V245.354ZM347.727 180.296C347.727 183.275 350.142 185.69 353.12 185.69H392.353C395.332 185.69 397.747 183.275 397.747 180.296V127.632C397.747 124.653 395.332 122.238 392.353 122.238H353.12C350.142 122.238 347.727 124.653 347.727 127.632V180.296ZM341.066 122.238C344.045 122.238 346.459 124.653 346.459 127.632V180.296C346.459 183.275 344.045 185.69 341.066 185.69H301.833C298.854 185.69 296.439 183.275 296.439 180.296V127.632C296.439 124.653 298.854 122.238 301.833 122.238H341.066ZM341.066 187.298C344.045 187.298 346.459 189.712 346.459 192.691V245.354C346.459 248.333 344.045 250.748 341.066 250.748H301.833C298.854 250.748 296.439 248.333 296.439 245.354V192.691C296.439 189.712 298.854 187.298 301.833 187.298H341.066ZM341.066 252.355C344.045 252.355 346.459 254.77 346.459 257.749V310.412C346.459 313.391 344.045 315.806 341.066 315.806H301.833C298.854 315.806 296.439 313.391 296.439 310.412V257.749C296.439 254.77 298.854 252.355 301.833 252.355H341.066ZM341.066 317.413C344.045 317.413 346.459 319.828 346.459 322.807V375.472C346.459 378.45 344.045 380.865 341.066 380.865H301.833C298.854 380.865 296.439 378.45 296.439 375.472V322.807C296.439 319.828 298.854 317.413 301.833 317.413H341.066ZM341.066 382.473C344.045 382.473 346.459 384.888 346.459 387.866V440.529C346.459 443.508 344.045 445.923 341.066 445.923H301.833C298.854 445.923 296.439 443.508 296.439 440.529V387.866C296.439 384.888 298.854 382.473 301.833 382.473H341.066ZM341.066 447.531C344.045 447.531 346.459 449.945 346.459 452.924V505.589C346.459 508.568 344.045 510.983 341.066 510.983H301.833C298.854 510.983 296.439 508.568 296.439 505.589V452.924C296.439 449.945 298.854 447.531 301.833 447.531H341.066ZM341.066 512.59C344.045 512.59 346.459 515.005 346.459 517.984V570.647C346.459 573.626 344.045 576.04 341.066 576.04H301.833C298.854 576.04 296.439 573.626 296.439 570.647V517.984C296.439 515.005 298.854 512.59 301.833 512.59H341.066ZM341.066 577.648C344.045 577.648 346.459 580.063 346.459 583.042V635.706C346.459 638.685 344.045 641.1 341.066 641.1H301.833C298.854 641.1 296.439 638.685 296.439 635.706V583.042C296.439 580.063 298.854 577.648 301.833 577.648H341.066ZM341.066 642.707C344.045 642.707 346.459 645.122 346.459 648.101V700.764C346.459 703.743 344.045 706.158 341.066 706.158H301.833C298.854 706.158 296.439 703.743 296.439 700.764V648.101C296.439 645.122 298.854 642.707 301.833 642.707H341.066ZM341.066 707.765C344.045 707.765 346.459 710.18 346.459 713.159V765.824C346.459 768.802 344.045 771.217 341.066 771.217H301.833C298.854 771.217 296.439 768.802 296.439 765.824V713.159C296.439 710.18 298.854 707.765 301.833 707.765H341.066ZM341.066 772.825C344.045 772.825 346.459 775.24 346.459 778.218V830.882C346.459 833.86 344.045 836.275 341.066 836.275H301.833C298.854 836.275 296.439 833.86 296.439 830.882V778.218C296.439 775.24 298.854 772.825 301.833 772.825H341.066ZM341.066 837.883C344.045 837.883 346.459 840.297 346.459 843.276V895.939C346.459 898.918 344.045 901.333 341.066 901.333H301.833C298.854 901.333 296.439 898.918 296.439 895.939V843.276C296.439 840.297 298.854 837.883 301.833 837.883H341.066ZM245.151 895.939C245.151 898.918 247.566 901.333 250.545 901.333H289.779C292.757 901.333 295.172 898.918 295.172 895.939V843.276C295.172 840.297 292.757 837.883 289.779 837.883H250.545C247.566 837.883 245.151 840.297 245.151 843.276V895.939ZM245.151 830.882C245.151 833.86 247.566 836.275 250.545 836.275H289.779C292.757 836.275 295.172 833.86 295.172 830.882V778.218C295.172 775.24 292.757 772.825 289.779 772.825H250.545C247.566 772.825 245.151 775.24 245.151 778.218V830.882ZM245.151 765.824C245.151 768.802 247.566 771.217 250.545 771.217H289.779C292.757 771.217 295.172 768.802 295.172 765.824V713.159C295.172 710.18 292.757 707.765 289.779 707.765H250.545C247.566 707.765 245.151 710.18 245.151 713.159V765.824ZM245.151 700.764C245.151 703.743 247.566 706.158 250.545 706.158H289.779C292.757 706.158 295.172 703.743 295.172 700.764V648.101C295.172 645.122 292.757 642.707 289.779 642.707H250.545C247.566 642.707 245.151 645.122 245.151 648.101V700.764ZM245.151 635.706C245.151 638.685 247.566 641.1 250.545 641.1H289.779C292.757 641.1 295.172 638.685 295.172 635.706V583.042C295.172 580.063 292.757 577.648 289.779 577.648H250.545C247.566 577.648 245.151 580.063 245.151 583.042V635.706ZM245.151 570.647C245.151 573.626 247.566 576.04 250.545 576.04H289.779C292.757 576.04 295.172 573.626 295.172 570.647V517.984C295.172 515.005 292.757 512.59 289.779 512.59H250.545C247.566 512.59 245.151 515.005 245.151 517.984V570.647ZM245.151 505.589C245.151 508.568 247.566 510.983 250.545 510.983H289.779C292.757 510.983 295.172 508.568 295.172 505.589V452.924C295.172 449.945 292.757 447.531 289.779 447.531H250.545C247.566 447.531 245.151 449.945 245.151 452.924V505.589ZM245.151 440.529C245.151 443.508 247.566 445.923 250.545 445.923H289.779C292.757 445.923 295.172 443.508 295.172 440.529V387.866C295.172 384.888 292.757 382.473 289.779 382.473H250.545C247.566 382.473 245.151 384.888 245.151 387.866V440.529ZM245.151 375.472C245.151 378.45 247.566 380.865 250.545 380.865H289.779C292.757 380.865 295.172 378.45 295.172 375.472V322.807C295.172 319.828 292.757 317.413 289.779 317.413H250.545C247.566 317.413 245.151 319.828 245.151 322.807V375.472ZM245.151 310.412C245.151 313.391 247.566 315.806 250.545 315.806H289.779C292.757 315.806 295.172 313.391 295.172 310.412V257.749C295.172 254.77 292.757 252.355 289.779 252.355H250.545C247.566 252.355 245.151 254.77 245.151 257.749V310.412ZM245.151 245.354C245.151 248.333 247.566 250.748 250.545 250.748H289.779C292.757 250.748 295.172 248.333 295.172 245.354V192.691C295.172 189.712 292.757 187.298 289.779 187.298H250.545C247.566 187.298 245.151 189.712 245.151 192.691V245.354ZM245.151 180.296C245.151 183.275 247.566 185.69 250.545 185.69H289.779C292.757 185.69 295.172 183.275 295.172 180.296V127.632C295.172 124.653 292.757 122.238 289.779 122.238H250.545C247.566 122.238 245.151 124.653 245.151 127.632V180.296ZM238.49 122.238C241.469 122.238 243.884 124.653 243.884 127.632V180.296C243.884 183.275 241.469 185.69 238.49 185.69H199.258C196.279 185.69 193.864 183.275 193.864 180.296V127.632C193.864 124.653 196.279 122.238 199.258 122.238H238.49ZM238.49 187.298C241.469 187.298 243.884 189.712 243.884 192.691V245.354C243.884 248.333 241.469 250.748 238.49 250.748H199.258C196.279 250.748 193.864 248.333 193.864 245.354V192.691C193.864 189.712 196.279 187.298 199.258 187.298H238.49ZM238.49 252.355C241.469 252.355 243.884 254.77 243.884 257.749V310.412C243.884 313.391 241.469 315.806 238.49 315.806H199.258C196.279 315.806 193.864 313.391 193.864 310.412V257.749C193.864 254.77 196.279 252.355 199.258 252.355H238.49ZM238.49 317.413C241.469 317.413 243.884 319.828 243.884 322.807V375.472C243.884 378.45 241.469 380.865 238.49 380.865H199.258C196.279 380.865 193.864 378.45 193.864 375.472V322.807C193.864 319.828 196.279 317.413 199.258 317.413H238.49ZM238.49 382.473C241.469 382.473 243.884 384.888 243.884 387.866V440.529C243.884 443.508 241.469 445.923 238.49 445.923H199.258C196.279 445.923 193.864 443.508 193.864 440.529V387.866C193.864 384.888 196.279 382.473 199.258 382.473H238.49ZM238.49 447.531C241.469 447.531 243.884 449.945 243.884 452.924V505.589C243.884 508.568 241.469 510.983 238.49 510.983H199.258C196.279 510.983 193.864 508.568 193.864 505.589V452.924C193.864 449.945 196.279 447.531 199.258 447.531H238.49ZM238.49 512.59C241.469 512.59 243.884 515.005 243.884 517.984V570.647C243.884 573.626 241.469 576.04 238.49 576.04H199.258C196.279 576.04 193.864 573.626 193.864 570.647V517.984C193.864 515.005 196.279 512.59 199.258 512.59H238.49ZM238.49 577.648C241.469 577.648 243.884 580.063 243.884 583.042V635.706C243.884 638.685 241.469 641.1 238.49 641.1H199.258C196.279 641.1 193.864 638.685 193.864 635.706V583.042C193.864 580.063 196.279 577.648 199.258 577.648H238.49ZM238.49 642.707C241.469 642.707 243.884 645.122 243.884 648.101V700.764C243.884 703.743 241.469 706.158 238.49 706.158H199.258C196.279 706.158 193.864 703.743 193.864 700.764V648.101C193.864 645.122 196.279 642.707 199.258 642.707H238.49ZM238.49 707.765C241.469 707.765 243.884 710.18 243.884 713.159V765.824C243.884 768.802 241.469 771.217 238.49 771.217H199.258C196.279 771.217 193.864 768.802 193.864 765.824V713.159C193.864 710.18 196.279 707.765 199.258 707.765H238.49ZM238.49 772.825C241.469 772.825 243.884 775.24 243.884 778.218V830.882C243.884 833.86 241.469 836.275 238.49 836.275H199.258C196.279 836.275 193.864 833.86 193.864 830.882V778.218C193.864 775.24 196.279 772.825 199.258 772.825H238.49ZM238.49 837.883C241.469 837.883 243.884 840.297 243.884 843.276V895.939C243.884 898.918 241.469 901.333 238.49 901.333H199.258C196.279 901.333 193.864 898.918 193.864 895.939V843.276C193.864 840.297 196.279 837.883 199.258 837.883H238.49ZM142.576 895.939C142.576 898.918 144.99 901.333 147.969 901.333H187.203C190.182 901.333 192.597 898.918 192.597 895.939V843.276C192.597 840.297 190.182 837.883 187.203 837.883H147.969C144.99 837.883 142.576 840.297 142.576 843.276V895.939ZM142.576 830.882C142.576 833.86 144.99 836.275 147.969 836.275H187.203C190.182 836.275 192.597 833.86 192.597 830.882V778.218C192.597 775.24 190.182 772.825 187.203 772.825H147.969C144.99 772.825 142.576 775.24 142.576 778.218V830.882ZM142.576 765.824C142.576 768.802 144.99 771.217 147.969 771.217H187.203C190.182 771.217 192.597 768.802 192.597 765.824V713.159C192.597 710.18 190.182 707.765 187.203 707.765H147.969C144.99 707.765 142.576 710.18 142.576 713.159V765.824ZM142.576 700.764C142.576 703.743 144.99 706.158 147.969 706.158H187.203C190.182 706.158 192.597 703.743 192.597 700.764V648.101C192.597 645.122 190.182 642.707 187.203 642.707H147.969C144.99 642.707 142.576 645.122 142.576 648.101V700.764ZM142.576 635.706C142.576 638.685 144.99 641.1 147.969 641.1H187.203C190.182 641.1 192.597 638.685 192.597 635.706V583.042C192.597 580.063 190.182 577.648 187.203 577.648H147.969C144.99 577.648 142.576 580.063 142.576 583.042V635.706ZM142.576 570.647C142.576 573.626 144.99 576.04 147.969 576.04H187.203C190.182 576.04 192.597 573.626 192.597 570.647V517.984C192.597 515.005 190.182 512.59 187.203 512.59H147.969C144.99 512.59 142.576 515.005 142.576 517.984V570.647ZM142.576 505.589C142.576 508.568 144.99 510.983 147.969 510.983H187.203C190.182 510.983 192.597 508.568 192.597 505.589V452.924C192.597 449.945 190.182 447.531 187.203 447.531H147.969C144.99 447.531 142.576 449.945 142.576 452.924V505.589ZM142.576 440.529C142.576 443.508 144.99 445.923 147.969 445.923H187.203C190.182 445.923 192.597 443.508 192.597 440.529V387.866C192.597 384.888 190.182 382.473 187.203 382.473H147.969C144.99 382.473 142.576 384.888 142.576 387.866V440.529ZM142.576 375.472C142.576 378.45 144.99 380.865 147.969 380.865H187.203C190.182 380.865 192.597 378.45 192.597 375.472V322.807C192.597 319.828 190.182 317.413 187.203 317.413H147.969C144.99 317.413 142.576 319.828 142.576 322.807V375.472ZM142.576 310.412C142.576 313.391 144.99 315.806 147.969 315.806H187.203C190.182 315.806 192.597 313.391 192.597 310.412V257.749C192.597 254.77 190.182 252.355 187.203 252.355H147.969C144.99 252.355 142.576 254.77 142.576 257.749V310.412ZM142.576 245.354C142.576 248.333 144.99 250.748 147.969 250.748H187.203C190.182 250.748 192.597 248.333 192.597 245.354V192.691C192.597 189.712 190.182 187.298 187.203 187.298H147.969C144.99 187.298 142.576 189.712 142.576 192.691V245.354ZM142.576 180.296C142.576 183.275 144.99 185.69 147.969 185.69H187.203C190.182 185.69 192.597 183.275 192.597 180.296V127.632C192.597 124.653 190.182 122.238 187.203 122.238H147.969C144.99 122.238 142.576 124.653 142.576 127.632V180.296ZM135.915 122.238C138.894 122.238 141.308 124.653 141.308 127.632V180.296C141.308 183.275 138.894 185.69 135.915 185.69H96.6782C93.6994 185.69 91.2845 183.275 91.2845 180.296V127.632C91.2845 124.653 93.6994 122.238 96.6782 122.238H135.915ZM135.915 187.298C138.894 187.298 141.308 189.712 141.308 192.691V245.354C141.308 248.333 138.894 250.748 135.915 250.748H96.6782C93.6994 250.748 91.2845 248.333 91.2845 245.354V192.691C91.2845 189.712 93.6994 187.298 96.6782 187.298H135.915ZM135.915 252.355C138.894 252.355 141.308 254.77 141.308 257.749V310.412C141.308 313.391 138.894 315.806 135.915 315.806H96.6782C93.6994 315.806 91.2845 313.391 91.2845 310.412V257.749C91.2845 254.77 93.6994 252.355 96.6782 252.355H135.915ZM135.915 317.413C138.894 317.413 141.308 319.828 141.308 322.807V375.472C141.308 378.45 138.894 380.865 135.915 380.865H96.6782C93.6994 380.865 91.2845 378.45 91.2845 375.472V322.807C91.2845 319.828 93.6994 317.413 96.6782 317.413H135.915ZM135.915 382.473C138.894 382.473 141.308 384.888 141.308 387.866V440.529C141.308 443.508 138.894 445.923 135.915 445.923H96.6782C93.6994 445.923 91.2845 443.508 91.2845 440.529V387.866C91.2845 384.888 93.6994 382.473 96.6782 382.473H135.915ZM135.915 447.531C138.894 447.531 141.308 449.945 141.308 452.924V505.589C141.308 508.568 138.894 510.983 135.915 510.983H96.6782C93.6994 510.983 91.2845 508.568 91.2845 505.589V452.924C91.2845 449.945 93.6994 447.531 96.6782 447.531H135.915ZM135.915 512.59C138.894 512.59 141.308 515.005 141.308 517.984V570.647C141.308 573.626 138.894 576.04 135.915 576.04H96.6782C93.6994 576.04 91.2845 573.626 91.2845 570.647V517.984C91.2845 515.005 93.6994 512.59 96.6782 512.59H135.915ZM135.915 577.648C138.894 577.648 141.308 580.063 141.308 583.042V635.706C141.308 638.685 138.894 641.1 135.915 641.1H96.6782C93.6994 641.1 91.2845 638.685 91.2845 635.706V583.042C91.2845 580.063 93.6994 577.648 96.6782 577.648H135.915ZM135.915 642.707C138.894 642.707 141.308 645.122 141.308 648.101V700.764C141.308 703.743 138.894 706.158 135.915 706.158H96.6782C93.6994 706.158 91.2845 703.743 91.2845 700.764V648.101C91.2845 645.122 93.6994 642.707 96.6782 642.707H135.915ZM135.915 707.765C138.894 707.765 141.308 710.18 141.308 713.159V765.824C141.308 768.802 138.894 771.217 135.915 771.217L96.6782 771.217C93.6994 771.217 91.2845 768.802 91.2845 765.824V713.159C91.2845 710.18 93.6994 707.765 96.6782 707.765H135.915ZM135.915 772.825C138.894 772.825 141.308 775.24 141.308 778.218V830.882C141.308 833.86 138.894 836.275 135.915 836.275L96.6782 836.275C93.6994 836.275 91.2845 833.86 91.2845 830.882V778.218C91.2845 775.24 93.6994 772.825 96.6782 772.825L135.915 772.825ZM135.915 837.883C138.894 837.883 141.308 840.297 141.308 843.276V895.939C141.308 898.918 138.894 901.333 135.915 901.333H96.6782C93.6994 901.333 91.2845 898.918 91.2845 895.939V843.276C91.2845 840.297 93.6994 837.883 96.6782 837.883L135.915 837.883Z" fill="url(#paint0_linear_29958_357)" fill-opacity="0.08"/>
<g filter="url(#filter0_f_29958_357)">
<rect width="347" height="1476" transform="translate(-146 -202)" fill="black"/>
</g>
<g filter="url(#filter1_f_29958_357)">
<rect width="356" height="1546" transform="translate(1187 -104)" fill="#350167"/>
</g>
</g>
<defs>
<filter id="filter0_f_29958_357" x="-546" y="-602" width="1147" height="2276" filterUnits="userSpaceOnUse" color-interpolation-filters="sRGB">
<feFlood flood-opacity="0" result="BackgroundImageFix"/>
<feBlend mode="normal" in="SourceGraphic" in2="BackgroundImageFix" result="shape"/>
<feGaussianBlur stdDeviation="200" result="effect1_foregroundBlur_29958_357"/>
</filter>
<filter id="filter1_f_29958_357" x="-213" y="-1504" width="3156" height="4346" filterUnits="userSpaceOnUse" color-interpolation-filters="sRGB">
<feFlood flood-opacity="0" result="BackgroundImageFix"/>
<feBlend mode="normal" in="SourceGraphic" in2="BackgroundImageFix" result="shape"/>
<feGaussianBlur stdDeviation="700" result="effect1_foregroundBlur_29958_357"/>
</filter>
<linearGradient id="paint0_linear_29958_357" x1="-749.015" y1="-521.745" x2="957.384" y2="795.626" gradientUnits="userSpaceOnUse">
<stop stop-color="white" stop-opacity="0.2"/>
<stop offset="1" stop-color="white" stop-opacity="0.1"/>
</linearGradient>
<clipPath id="clip0_29958_357">
<rect width="1440" height="1098" fill="white"/>
</clipPath>
</defs>
</svg>
