<svg width="48" height="48" viewBox="0 0 48 48" fill="none" xmlns="http://www.w3.org/2000/svg">
<path d="M24 30C26.4853 30 28.5 27.9853 28.5 25.5C28.5 23.0147 26.4853 21 24 21C21.5147 21 19.5 23.0147 19.5 25.5C19.5 27.9853 21.5147 30 24 30Z" fill="url(#paint0_linear_29869_647)"/>
<path d="M31.5 36C31.5 32.691 28.809 30 25.5 30H22.5C19.191 30 16.5 32.691 16.5 36C16.5 36.3978 16.658 36.7794 16.9393 37.0607C17.2206 37.342 17.6022 37.5 18 37.5H30C30.3978 37.5 30.7794 37.342 31.0607 37.0607C31.342 36.7794 31.5 36.3978 31.5 36Z" fill="url(#paint1_linear_29869_647)"/>
<path d="M10.5 36C12.9853 36 15 33.9853 15 31.5C15 29.0147 12.9853 27 10.5 27C8.01472 27 6 29.0147 6 31.5C6 33.9853 8.01472 36 10.5 36Z" fill="url(#paint2_linear_29869_647)"/>
<path d="M12 36H9C5.691 36 3 38.691 3 42V43.5C3 43.8978 3.15804 44.2794 3.43934 44.5607C3.72064 44.842 4.10218 45 4.5 45H16.5C16.8978 45 17.2794 44.842 17.5607 44.5607C17.842 44.2794 18 43.8978 18 43.5V42C18 38.691 15.309 36 12 36Z" fill="url(#paint3_linear_29869_647)"/>
<path d="M37.5 36C39.9853 36 42 33.9853 42 31.5C42 29.0147 39.9853 27 37.5 27C35.0147 27 33 29.0147 33 31.5C33 33.9853 35.0147 36 37.5 36Z" fill="url(#paint4_linear_29869_647)"/>
<path d="M39.0005 36H36.0005C32.6915 36 30.0005 38.691 30.0005 42V43.5C30.0005 43.8978 30.1585 44.2794 30.4398 44.5607C30.7211 44.842 31.1027 45 31.5005 45H43.5005C43.8983 45 44.2798 44.842 44.5611 44.5607C44.8425 44.2794 45.0005 43.8978 45.0005 43.5V42C45.0005 38.691 42.3095 36 39.0005 36ZM13.5215 3V11.979H22.5005C22.3186 9.65818 21.3142 7.47852 19.6681 5.83242C18.022 4.18632 15.8423 3.1819 13.5215 3Z" fill="url(#paint5_linear_29869_647)"/>
<path d="M12.7695 22.5C17.9025 22.5 22.1145 18.5175 22.5 13.482H12.7695C12.6709 13.4822 12.5732 13.4629 12.482 13.4253C12.3909 13.3877 12.308 13.3325 12.2382 13.2629C12.1684 13.1932 12.113 13.1105 12.0752 13.0194C12.0374 12.9283 12.018 12.8306 12.018 12.732V3C6.9825 3.3855 3 7.5975 3 12.7305C3.00278 15.3207 4.03296 17.804 5.86449 19.6355C7.69602 21.467 10.1793 22.4972 12.7695 22.5ZM43.5 7.5H40.5C40.1022 7.5 39.7206 7.65804 39.4393 7.93934C39.158 8.22064 39 8.60218 39 9V19.5H45V9C45 8.60218 44.842 8.22064 44.5607 7.93934C44.2794 7.65804 43.8978 7.5 43.5 7.5ZM37.5 4.5C37.5 4.10218 37.342 3.72064 37.0607 3.43934C36.7794 3.15804 36.3978 3 36 3H33C32.6022 3 32.2206 3.15804 31.9393 3.43934C31.658 3.72064 31.5 4.10218 31.5 4.5V19.5H37.5V4.5ZM30 12C30 11.6022 29.842 11.2206 29.5607 10.9393C29.2794 10.658 28.8978 10.5 28.5 10.5H25.5C25.1022 10.5 24.7206 10.658 24.4393 10.9393C24.158 11.2206 24 11.6022 24 12V19.5H30V12Z" fill="url(#paint6_linear_29869_647)"/>
<defs>
<linearGradient id="paint0_linear_29869_647" x1="23.5762" y1="24.06" x2="28.7581" y2="24.0557" gradientUnits="userSpaceOnUse">
<stop stop-color="#D60BDE"/>
<stop offset="1" stop-color="#324E8E"/>
</linearGradient>
<linearGradient id="paint1_linear_29869_647" x1="23.2937" y1="32.55" x2="31.9302" y2="32.5357" gradientUnits="userSpaceOnUse">
<stop stop-color="#D60BDE"/>
<stop offset="1" stop-color="#324E8E"/>
</linearGradient>
<linearGradient id="paint2_linear_29869_647" x1="10.0762" y1="30.06" x2="15.2581" y2="30.0557" gradientUnits="userSpaceOnUse">
<stop stop-color="#D60BDE"/>
<stop offset="1" stop-color="#324E8E"/>
</linearGradient>
<linearGradient id="paint3_linear_29869_647" x1="9.79366" y1="39.06" x2="18.4302" y2="39.048" gradientUnits="userSpaceOnUse">
<stop stop-color="#D60BDE"/>
<stop offset="1" stop-color="#324E8E"/>
</linearGradient>
<linearGradient id="paint4_linear_29869_647" x1="37.0762" y1="30.06" x2="42.2581" y2="30.0557" gradientUnits="userSpaceOnUse">
<stop stop-color="#D60BDE"/>
<stop offset="1" stop-color="#324E8E"/>
</linearGradient>
<linearGradient id="paint5_linear_29869_647" x1="27.7787" y1="17.28" x2="45.9033" y2="17.2687" gradientUnits="userSpaceOnUse">
<stop stop-color="#D60BDE"/>
<stop offset="1" stop-color="#324E8E"/>
</linearGradient>
<linearGradient id="paint6_linear_29869_647" x1="22.0222" y1="9.63" x2="46.2044" y2="9.58673" gradientUnits="userSpaceOnUse">
<stop stop-color="#D60BDE"/>
<stop offset="1" stop-color="#324E8E"/>
</linearGradient>
</defs>
</svg>
