<svg width="48" height="48" viewBox="0 0 48 48" fill="none" xmlns="http://www.w3.org/2000/svg">
<path d="M8 11.0006C8 13.3806 9.188 15.4846 11.004 16.7486C8.94026 17.5539 7.16763 18.9633 5.91797 20.7924C4.66832 22.6216 3.99985 24.7853 4 27.0006V30.9346C4 31.5226 4.478 32.0006 5.066 32.0006H9.032C10.7671 29.4082 13.1434 27.3089 15.93 25.9066C14.9425 24.5565 14.3093 22.9803 14.0883 21.3222C13.8673 19.6641 14.0656 17.9771 14.6651 16.4155C15.2645 14.8538 16.246 13.4674 17.5197 12.3831C18.7934 11.2988 20.3187 10.5512 21.956 10.2086C21.7557 8.43055 20.8821 6.79669 19.5147 5.64266C18.1473 4.48863 16.3898 3.90206 14.6034 4.00344C12.8169 4.10482 11.1372 4.88646 9.90907 6.18778C8.68098 7.4891 7.99785 9.21131 8 11.0006ZM26.044 10.2106C27.681 10.5533 29.2059 11.3009 30.4793 12.3851C31.7528 13.4693 32.7341 14.8555 33.3335 16.4168C33.9329 17.9781 34.1313 19.6648 33.9106 21.3227C33.6899 22.9805 33.0571 24.5565 32.07 25.9066C34.8572 27.3087 37.2342 29.4081 38.97 32.0006H42.934C43.2167 32.0006 43.4879 31.8883 43.6878 31.6884C43.8877 31.4885 44 31.2173 44 30.9346V27.0006C44.0002 24.7853 43.3317 22.6216 42.082 20.7924C40.8324 18.9633 39.0597 17.5539 36.996 16.7486C37.9566 16.0805 38.7344 15.1821 39.2582 14.1358C39.7821 13.0895 40.0353 11.9286 39.9947 10.7591C39.9541 9.5897 39.6209 8.44911 39.0258 7.44164C38.4306 6.43417 37.5924 5.59198 36.5878 4.99206C35.5831 4.39213 34.4441 4.05363 33.2749 4.00749C32.1057 3.96135 30.9435 4.20905 29.8948 4.72794C28.846 5.24684 27.944 6.02036 27.2713 6.9778C26.5986 7.93523 26.1766 9.04803 26.044 10.2106Z" fill="url(#paint0_linear_29833_160)"/>
<path d="M28.472 26.634C29.1105 26.2029 29.6837 25.6822 30.174 25.088C31.1371 23.9169 31.7477 22.4964 31.9349 20.9918C32.122 19.4872 31.8779 17.9604 31.231 16.5892C30.5842 15.2179 29.5611 14.0585 28.281 13.2461C27.0008 12.4336 25.5162 12.0015 24 12C22.7492 11.9997 21.5158 12.2927 20.3988 12.8554C19.2817 13.4182 18.3122 14.235 17.568 15.2403C16.8238 16.2457 16.3258 17.4115 16.1138 18.6442C15.9018 19.8769 15.9818 21.1421 16.3474 22.3383C16.713 23.5345 17.354 24.6282 18.2189 25.5318C19.0837 26.4354 20.1485 27.1236 21.3275 27.5411C22.5065 27.9586 23.7671 28.0939 25.0079 27.936C26.2486 27.7781 27.4351 27.3315 28.472 26.632V26.634Z" fill="url(#paint1_linear_29833_160)"/>
<path d="M17.332 27.4531C19.1 29.0371 21.438 30.0011 24 30.0011C26.562 30.0011 28.9 29.0371 30.668 27.4531C32.9358 28.496 34.9292 30.0532 36.49 32.0011C38.7669 34.8362 40.0055 38.3649 40 42.0011V42.8011C40 42.9587 39.969 43.1148 39.9087 43.2603C39.8484 43.4059 39.76 43.5382 39.6485 43.6497C39.5371 43.7611 39.4048 43.8495 39.2592 43.9098C39.1136 43.9701 38.9576 44.0011 38.8 44.0011H9.2C9.04241 44.0011 8.88637 43.9701 8.74078 43.9098C8.59519 43.8495 8.4629 43.7611 8.35147 43.6497C8.24004 43.5382 8.15165 43.4059 8.09134 43.2603C8.03104 43.1148 8 42.9587 8 42.8011V42.0011C8 38.2171 9.314 34.7411 11.51 32.0011C13.0702 30.0534 15.0629 28.4962 17.33 27.4531H17.332Z" fill="url(#paint2_linear_29833_160)"/>
<defs>
<linearGradient id="paint0_linear_29833_160" x1="22.1164" y1="13.5151" x2="45.1471" y2="13.4877" gradientUnits="userSpaceOnUse">
<stop stop-color="#D60BDE"/>
<stop offset="1" stop-color="#324E8E"/>
</linearGradient>
<linearGradient id="paint1_linear_29833_160" x1="23.2437" y1="17.44" x2="32.4549" y2="17.4324" gradientUnits="userSpaceOnUse">
<stop stop-color="#D60BDE"/>
<stop offset="1" stop-color="#324E8E"/>
</linearGradient>
<linearGradient id="paint2_linear_29833_160" x1="22.4931" y1="33.0794" x2="40.9177" y2="33.0498" gradientUnits="userSpaceOnUse">
<stop stop-color="#D60BDE"/>
<stop offset="1" stop-color="#324E8E"/>
</linearGradient>
</defs>
</svg>
