<svg width="48" height="48" viewBox="0 0 48 48" fill="none" xmlns="http://www.w3.org/2000/svg">
<path d="M43.4995 22.5H17.9995C17.6017 22.5 17.2202 22.658 16.9389 22.9393C16.6576 23.2206 16.4995 23.6022 16.4995 24V28.5C16.4995 28.8978 16.6576 29.2794 16.9389 29.5607C17.2202 29.842 17.6017 30 17.9995 30H20.9995V26.25C20.9995 26.0511 21.0785 25.8603 21.2192 25.7197C21.3599 25.579 21.5506 25.5 21.7495 25.5C21.9484 25.5 22.1392 25.579 22.2799 25.7197C22.4205 25.8603 22.4995 26.0511 22.4995 26.25V30H26.9995V26.25C26.9995 26.0511 27.0785 25.8603 27.2192 25.7197C27.3599 25.579 27.5506 25.5 27.7495 25.5C27.9484 25.5 28.1392 25.579 28.2799 25.7197C28.4205 25.8603 28.4995 26.0511 28.4995 26.25V30H32.9995V26.25C32.9995 26.0511 33.0785 25.8603 33.2192 25.7197C33.3599 25.579 33.5506 25.5 33.7495 25.5C33.9484 25.5 34.1392 25.579 34.2799 25.7197C34.4205 25.8603 34.4995 26.0511 34.4995 26.25V30H38.9995V26.25C38.9995 26.0511 39.0785 25.8603 39.2192 25.7197C39.3599 25.579 39.5506 25.5 39.7495 25.5C39.9484 25.5 40.1392 25.579 40.2799 25.7197C40.4205 25.8603 40.4995 26.0511 40.4995 26.25V30H43.4995C43.8974 30 44.2789 29.842 44.5602 29.5607C44.8415 29.2794 44.9995 28.8978 44.9995 28.5V24C44.9995 23.6022 44.8415 23.2206 44.5602 22.9393C44.2789 22.658 43.8974 22.5 43.4995 22.5ZM19.4995 43.5C19.4995 43.8978 19.6576 44.2794 19.9389 44.5607C20.2202 44.842 20.6017 45 20.9995 45H22.4995V36C22.4995 35.6022 22.6576 35.2206 22.9389 34.9393C23.2202 34.658 23.6017 34.5 23.9995 34.5H26.9995C27.3974 34.5 27.7789 34.658 28.0602 34.9393C28.3415 35.2206 28.4995 35.6022 28.4995 36V45H40.4995C40.8974 45 41.2789 44.842 41.5602 44.5607C41.8415 44.2794 41.9995 43.8978 41.9995 43.5V31.5H19.4995V43.5ZM29.9995 36C29.9995 35.6022 30.1576 35.2206 30.4389 34.9393C30.7202 34.658 31.1017 34.5 31.4995 34.5H37.4995C37.8974 34.5 38.2789 34.658 38.5602 34.9393C38.8415 35.2206 38.9995 35.6022 38.9995 36V40.5C38.9995 40.8978 38.8415 41.2794 38.5602 41.5607C38.2789 41.842 37.8974 42 37.4995 42H31.4995C31.1017 42 30.7202 41.842 30.4389 41.5607C30.1576 41.2794 29.9995 40.8978 29.9995 40.5V36ZM21.304 7.5L23.104 3H11.5195L13.3195 7.5H21.304Z" fill="url(#paint0_linear_29833_22)"/>
<path d="M18 31.5C16.3455 31.5 15 30.1545 15 28.5V24C15 22.3455 16.3455 21 18 21H31.5V4.5C31.5 4.10218 31.342 3.72064 31.0607 3.43934C30.7794 3.15804 30.3978 3 30 3H24.72L22.509 8.529C22.4536 8.66827 22.3576 8.78766 22.2335 8.87166C22.1094 8.95565 21.9629 9.00037 21.813 9H12.813C12.6631 9.00037 12.5166 8.95565 12.3925 8.87166C12.2684 8.78766 12.1724 8.66827 12.117 8.529L9.906 3H4.5C4.10218 3 3.72064 3.15804 3.43934 3.43934C3.15804 3.72064 3 4.10218 3 4.5V43.5C3 43.8978 3.15804 44.2794 3.43934 44.5607C3.72064 44.842 4.10218 45 4.5 45H18.417C18.1468 44.5461 18.0029 44.0282 18 43.5V31.5ZM8.25 39C7.65326 39 7.08097 38.7629 6.65901 38.341C6.23705 37.919 6 37.3467 6 36.75C6 36.1533 6.23705 35.581 6.65901 35.159C7.08097 34.7371 7.65326 34.5 8.25 34.5C8.84674 34.5 9.41903 34.7371 9.84099 35.159C10.2629 35.581 10.5 36.1533 10.5 36.75C10.5 37.3467 10.2629 37.919 9.84099 38.341C9.41903 38.7629 8.84674 39 8.25 39ZM8.25 33C7.65326 33 7.08097 32.7629 6.65901 32.341C6.23705 31.919 6 31.3467 6 30.75C6 30.1533 6.23705 29.581 6.65901 29.159C7.08097 28.7371 7.65326 28.5 8.25 28.5C8.84674 28.5 9.41903 28.7371 9.84099 29.159C10.2629 29.581 10.5 30.1533 10.5 30.75C10.5 31.3467 10.2629 31.919 9.84099 32.341C9.41903 32.7629 8.84674 33 8.25 33ZM8.25 27C7.65326 27 7.08097 26.7629 6.65901 26.341C6.23705 25.919 6 25.3467 6 24.75C6 24.1533 6.23705 23.581 6.65901 23.159C7.08097 22.7371 7.65326 22.5 8.25 22.5C8.84674 22.5 9.41903 22.7371 9.84099 23.159C10.2629 23.581 10.5 24.1533 10.5 24.75C10.5 25.3467 10.2629 25.919 9.84099 26.341C9.41903 26.7629 8.84674 27 8.25 27ZM8.25 21C7.95453 21 7.66194 20.9418 7.38896 20.8287C7.11598 20.7157 6.86794 20.5499 6.65901 20.341C6.45008 20.1321 6.28434 19.884 6.17127 19.611C6.0582 19.3381 6 19.0455 6 18.75C6 18.4545 6.0582 18.1619 6.17127 17.889C6.28434 17.616 6.45008 17.3679 6.65901 17.159C6.86794 16.9501 7.11598 16.7843 7.38896 16.6713C7.66194 16.5582 7.95453 16.5 8.25 16.5C8.84674 16.5 9.41903 16.7371 9.84099 17.159C10.2629 17.581 10.5 18.1533 10.5 18.75C10.5 19.3467 10.2629 19.919 9.84099 20.341C9.41903 20.7629 8.84674 21 8.25 21ZM8.25 15C7.65326 15 7.08097 14.7629 6.65901 14.341C6.23705 13.919 6 13.3467 6 12.75C6 12.1533 6.23705 11.581 6.65901 11.159C7.08097 10.7371 7.65326 10.5 8.25 10.5C8.84674 10.5 9.41903 10.7371 9.84099 11.159C10.2629 11.581 10.5 12.1533 10.5 12.75C10.5 13.3467 10.2629 13.919 9.84099 14.341C9.41903 14.7629 8.84674 15 8.25 15ZM14.25 12H27.75C27.9489 12 28.1397 12.079 28.2803 12.2197C28.421 12.3603 28.5 12.5511 28.5 12.75C28.5 12.9489 28.421 13.1397 28.2803 13.2803C28.1397 13.421 27.9489 13.5 27.75 13.5H14.25C14.0511 13.5 13.8603 13.421 13.7197 13.2803C13.579 13.1397 13.5 12.9489 13.5 12.75C13.5 12.5511 13.579 12.3603 13.7197 12.2197C13.8603 12.079 14.0511 12 14.25 12ZM13.5 18.75C13.5 18.5511 13.579 18.3603 13.7197 18.2197C13.8603 18.079 14.0511 18 14.25 18H27.75C27.9489 18 28.1397 18.079 28.2803 18.2197C28.421 18.3603 28.5 18.5511 28.5 18.75C28.5 18.9489 28.421 19.1397 28.2803 19.2803C28.1397 19.421 27.9489 19.5 27.75 19.5H14.25C14.0511 19.5 13.8603 19.421 13.7197 19.2803C13.579 19.1397 13.5 18.9489 13.5 18.75Z" fill="url(#paint1_linear_29833_22)"/>
<defs>
<linearGradient id="paint0_linear_29833_22" x1="26.683" y1="17.28" x2="45.9597" y2="17.2672" gradientUnits="userSpaceOnUse">
<stop stop-color="#D60BDE"/>
<stop offset="1" stop-color="#324E8E"/>
</linearGradient>
<linearGradient id="paint1_linear_29833_22" x1="15.9079" y1="17.28" x2="32.3173" y2="17.2708" gradientUnits="userSpaceOnUse">
<stop stop-color="#D60BDE"/>
<stop offset="1" stop-color="#324E8E"/>
</linearGradient>
</defs>
</svg>
