<svg width="48" height="48" viewBox="0 0 48 48" fill="none" xmlns="http://www.w3.org/2000/svg">
<path fill-rule="evenodd" clip-rule="evenodd" d="M43.6097 16.5V40.5C43.6097 41.6935 43.1356 42.8381 42.2916 43.682C41.4477 44.5259 40.3031 45 39.1097 45H15.1007C14.5096 45.0002 13.9243 44.8839 13.3781 44.6579C12.832 44.4318 12.3357 44.1004 11.9177 43.6825C11.4997 43.2646 11.1681 42.7685 10.9418 42.2224C10.7156 41.6764 10.5992 41.0911 10.5992 40.5V29.802C11.3297 29.9325 12.0827 30 12.8492 30C19.8887 30 25.6037 24.2865 25.6037 17.25C25.6037 10.2135 19.8887 4.5 12.8507 4.5C12.4637 4.5 12.0797 4.518 11.7017 4.551C12.1242 4.06343 12.6467 3.67255 13.2337 3.40491C13.8207 3.13728 14.4585 2.99918 15.1037 3H30.1082V12C30.1082 13.1935 30.5823 14.3381 31.4262 15.182C32.2701 16.0259 33.4147 16.5 34.6082 16.5H43.6097ZM19.6037 37.5V36C19.6037 35.6022 19.4456 35.2206 19.1643 34.9393C18.883 34.658 18.5015 34.5 18.1037 34.5C17.7058 34.5 17.3243 34.658 17.043 34.9393C16.7617 35.2206 16.6037 35.6022 16.6037 36V37.5C16.6037 37.8978 16.7617 38.2794 17.043 38.5607C17.3243 38.842 17.7058 39 18.1037 39C18.5015 39 18.883 38.842 19.1643 38.5607C19.4456 38.2794 19.6037 37.8978 19.6037 37.5ZM25.6067 37.5V31.5C25.6067 31.1022 25.4486 30.7206 25.1673 30.4393C24.886 30.158 24.5045 30 24.1067 30C23.7088 30 23.3273 30.158 23.046 30.4393C22.7647 30.7206 22.6067 31.1022 22.6067 31.5V37.5C22.6067 37.8978 22.7647 38.2794 23.046 38.5607C23.3273 38.842 23.7088 39 24.1067 39C24.5045 39 24.886 38.842 25.1673 38.5607C25.4486 38.2794 25.6067 37.8978 25.6067 37.5ZM31.6067 37.5V33C31.6067 32.6022 31.4486 32.2206 31.1673 31.9393C30.886 31.658 30.5045 31.5 30.1067 31.5C29.7088 31.5 29.3273 31.658 29.046 31.9393C28.7647 32.2206 28.6067 32.6022 28.6067 33V37.5C28.6067 37.8978 28.7647 38.2794 29.046 38.5607C29.3273 38.842 29.7088 39 30.1067 39C30.5045 39 30.886 38.842 31.1673 38.5607C31.4486 38.2794 31.6067 37.8978 31.6067 37.5ZM37.6097 37.5V27C37.6097 26.6022 37.4516 26.2206 37.1703 25.9393C36.889 25.658 36.5075 25.5 36.1097 25.5C35.7118 25.5 35.3303 25.658 35.049 25.9393C34.7677 26.2206 34.6097 26.6022 34.6097 27V37.5C34.6097 37.8978 34.7677 38.2794 35.049 38.5607C35.3303 38.842 35.7118 39 36.1097 39C36.5075 39 36.889 38.842 37.1703 38.5607C37.4516 38.2794 37.6097 37.8978 37.6097 37.5ZM33.1097 3.0285C34.1936 3.15248 35.1957 3.66578 35.9297 4.473L42.4412 11.6325C42.9272 12.1695 43.2752 12.81 43.4597 13.5H34.6097C34.4125 13.5006 34.2172 13.4622 34.0349 13.387C33.8527 13.3119 33.6871 13.2014 33.5477 13.062C33.4083 12.9226 33.2978 12.757 33.2226 12.5747C33.1475 12.3925 33.1091 12.1972 33.1097 12V3.0285ZM22.4867 18.75C22.127 21.0478 20.9586 23.1416 19.1919 24.6542C17.4252 26.1668 15.1764 26.9987 12.8507 27C10.2649 26.9988 7.78532 25.9713 5.95662 24.1432C4.12792 22.315 3.09964 19.8358 3.09766 17.25C3.09947 14.9241 3.93196 12.6753 5.44511 10.9088C6.95827 9.14236 9.05258 7.97444 11.3507 7.6155V15.75C11.3507 16.5457 11.6667 17.3087 12.2293 17.8713C12.7919 18.4339 13.555 18.75 14.3507 18.75H22.4867ZM14.3507 7.6155C16.3937 7.93494 18.2825 8.89478 19.745 10.3567C21.2074 11.8186 22.168 13.7071 22.4882 15.75H14.3507V7.6155Z" fill="url(#paint0_linear_29833_90)"/>
<defs>
<linearGradient id="paint0_linear_29833_90" x1="21.446" y1="17.28" x2="44.7715" y2="17.2613" gradientUnits="userSpaceOnUse">
<stop stop-color="#D60BDE"/>
<stop offset="1" stop-color="#324E8E"/>
</linearGradient>
</defs>
</svg>
