<svg width="42" height="42" viewBox="0 0 42 42" fill="none" xmlns="http://www.w3.org/2000/svg">
<path d="M36.9315 14.34L32.7705 13.3005C32.4987 12.3012 32.0999 11.3409 31.584 10.443L33.792 6.7605C33.8778 6.61723 33.9133 6.44942 33.8929 6.28367C33.8726 6.11793 33.7974 5.96372 33.6795 5.8455L31.6545 3.8205C31.5363 3.70256 31.3821 3.62745 31.2163 3.60707C31.0506 3.58669 30.8828 3.62221 30.7395 3.708L27.057 5.916C26.159 5.4006 25.1987 5.00235 24.1995 4.731L23.1585 0.5685C23.118 0.406176 23.0244 0.262048 22.8926 0.159037C22.7608 0.056026 22.5983 4.62172e-05 22.431 0H19.569C19.4017 4.62172e-05 19.2392 0.056026 19.1074 0.159037C18.9756 0.262048 18.882 0.406176 18.8415 0.5685L17.8005 4.7295C16.8012 5.00133 15.8409 5.40008 14.943 5.916L11.2605 3.708C11.1172 3.62221 10.9494 3.58669 10.7837 3.60707C10.6179 3.62745 10.4637 3.70256 10.3455 3.8205L8.3205 5.8455C8.20256 5.96372 8.12745 6.11793 8.10707 6.28367C8.08669 6.44942 8.12221 6.61723 8.208 6.7605L10.416 10.443C9.9006 11.341 9.50235 12.3013 9.231 13.3005L5.0685 14.3415C4.90618 14.382 4.76205 14.4756 4.65904 14.6074C4.55603 14.7392 4.50005 14.9017 4.5 15.069V17.931C4.50005 18.0983 4.55603 18.2608 4.65904 18.3926C4.76205 18.5244 4.90618 18.618 5.0685 18.6585L9.2295 19.6995C9.495 20.6775 9.8865 21.6135 10.389 22.5H16.5405C14.706 21.1335 13.5 18.9645 13.5 16.5C13.5 14.5109 14.2902 12.6032 15.6967 11.1967C17.1032 9.79018 19.0109 9 21 9C22.9891 9 24.8968 9.79018 26.3033 11.1967C27.7098 12.6032 28.5 14.5109 28.5 16.5C28.5 18.9645 27.294 21.1335 25.4595 22.5H31.611C32.1135 21.615 32.505 20.6775 32.7705 19.6995L36.9315 18.6585C37.0938 18.618 37.2379 18.5244 37.341 18.3926C37.444 18.2608 37.5 18.0983 37.5 17.931V15.069C37.5 14.9017 37.444 14.7392 37.341 14.6074C37.2379 14.4756 37.0938 14.3805 36.9315 14.34Z" fill="url(#paint0_linear_29833_312)"/>
<path d="M21 22.5C24.3137 22.5 27 19.8137 27 16.5C27 13.1863 24.3137 10.5 21 10.5C17.6863 10.5 15 13.1863 15 16.5C15 19.8137 17.6863 22.5 21 22.5Z" fill="url(#paint1_linear_29833_312)"/>
<path d="M32.781 28.719L34.5 30.4395V24H30V30.4395L31.719 28.719C31.7887 28.6492 31.8714 28.5937 31.9626 28.5559C32.0537 28.5181 32.1513 28.4987 32.25 28.4987C32.3487 28.4987 32.4463 28.5181 32.5374 28.5559C32.6286 28.5937 32.7113 28.6492 32.781 28.719Z" fill="url(#paint2_linear_29833_312)"/>
<path d="M40.5 24H36V32.25C36.0003 32.3985 35.9564 32.5438 35.874 32.6674C35.7916 32.791 35.6744 32.8873 35.5372 32.9442C35.4 33.0011 35.249 33.0159 35.1033 32.9869C34.9576 32.9578 34.8239 32.8862 34.719 32.781L32.25 30.3105L29.781 32.781C29.6761 32.8862 29.5424 32.9578 29.3967 32.9869C29.251 33.0159 29.1 33.0011 28.9628 32.9442C28.8256 32.8873 28.7084 32.791 28.626 32.6674C28.5436 32.5438 28.4997 32.3985 28.5 32.25V24H24C23.6022 24 23.2206 24.158 22.9393 24.4393C22.658 24.7206 22.5 25.1022 22.5 25.5V40.5C22.5 40.8978 22.658 41.2794 22.9393 41.5607C23.2206 41.842 23.6022 42 24 42H40.5C40.8978 42 41.2794 41.842 41.5607 41.5607C41.842 41.2794 42 40.8978 42 40.5V25.5C42 25.1022 41.842 24.7206 41.5607 24.4393C41.2794 24.158 40.8978 24 40.5 24ZM10.281 28.719L12 30.4395V24H7.5V30.4395L9.219 28.719C9.28867 28.6492 9.37143 28.5937 9.46255 28.5559C9.55367 28.5181 9.65135 28.4987 9.75 28.4987C9.84865 28.4987 9.94633 28.5181 10.0374 28.5559C10.1286 28.5937 10.2113 28.6492 10.281 28.719Z" fill="url(#paint3_linear_29833_312)"/>
<path d="M18 24H13.5V32.25C13.5003 32.3985 13.4564 32.5438 13.374 32.6674C13.2916 32.791 13.1744 32.8873 13.0372 32.9442C12.9 33.0011 12.749 33.0159 12.6033 32.9869C12.4577 32.9578 12.3239 32.8862 12.219 32.781L9.75 30.3105L7.281 32.781C7.17611 32.8862 7.04235 32.9578 6.89669 32.9869C6.75102 33.0159 6.60001 33.0011 6.4628 32.9442C6.32559 32.8873 6.20836 32.791 6.12597 32.6674C6.04358 32.5438 5.99973 32.3985 6 32.25V24H1.5C1.10218 24 0.720644 24.158 0.43934 24.4393C0.158035 24.7206 0 25.1022 0 25.5V40.5C0 40.8978 0.158035 41.2794 0.43934 41.5607C0.720644 41.842 1.10218 42 1.5 42H18C18.3978 42 18.7794 41.842 19.0607 41.5607C19.342 41.2794 19.5 40.8978 19.5 40.5V25.5C19.5 25.1022 19.342 24.7206 19.0607 24.4393C18.7794 24.158 18.3978 24 18 24Z" fill="url(#paint4_linear_29833_312)"/>
<defs>
<linearGradient id="paint0_linear_29833_312" x1="19.446" y1="7.65" x2="38.4464" y2="7.62685" gradientUnits="userSpaceOnUse">
<stop stop-color="#D60BDE"/>
<stop offset="1" stop-color="#324E8E"/>
</linearGradient>
<linearGradient id="paint1_linear_29833_312" x1="20.4349" y1="14.58" x2="27.3441" y2="14.5743" gradientUnits="userSpaceOnUse">
<stop stop-color="#D60BDE"/>
<stop offset="1" stop-color="#324E8E"/>
</linearGradient>
<linearGradient id="paint2_linear_29833_312" x1="32.0381" y1="26.1894" x2="34.6291" y2="26.1879" gradientUnits="userSpaceOnUse">
<stop stop-color="#D60BDE"/>
<stop offset="1" stop-color="#324E8E"/>
</linearGradient>
<linearGradient id="paint3_linear_29833_312" x1="23.1254" y1="30.12" x2="42.9894" y2="30.0884" gradientUnits="userSpaceOnUse">
<stop stop-color="#D60BDE"/>
<stop offset="1" stop-color="#324E8E"/>
</linearGradient>
<linearGradient id="paint4_linear_29833_312" x1="8.83175" y1="30.12" x2="20.0592" y2="30.1099" gradientUnits="userSpaceOnUse">
<stop stop-color="#D60BDE"/>
<stop offset="1" stop-color="#324E8E"/>
</linearGradient>
</defs>
</svg>
