<svg width="48" height="48" viewBox="0 0 48 48" fill="none" xmlns="http://www.w3.org/2000/svg">
<g clip-path="url(#clip0_29833_82)">
<path d="M37.0213 11.8234C37.5705 12.3725 38.4609 12.3725 39.01 11.8234L42.3246 8.50882C42.8738 7.95963 42.8738 7.06929 42.3246 6.5201C41.7754 5.97092 40.885 5.97092 40.3359 6.5201L37.0213 9.83463C36.4721 10.3838 36.4721 11.2742 37.0213 11.8234ZM38.6461 15.8333C38.8471 16.5835 39.6182 17.0287 40.3684 16.8277L44.8961 15.6145C45.6463 15.4135 46.0915 14.6424 45.8905 13.8922C45.6895 13.142 44.9185 12.6968 44.1683 12.8979L39.6405 14.1111C38.8902 14.312 38.4451 15.0831 38.6461 15.8333ZM33.0114 10.1989C33.7615 10.3999 34.5326 9.95473 34.7336 9.20454L35.9469 4.67679C36.1479 3.9266 35.7026 3.15551 34.9525 2.95451C34.2024 2.75351 33.4313 3.19873 33.2303 3.94892L32.017 8.47667C31.816 9.22685 32.2612 9.99795 33.0114 10.1989Z" fill="url(#paint0_linear_29833_82)"/>
<path d="M44.8379 19.7803H28.6292C27.7045 19.7803 27.0315 18.9033 27.2708 18.0101L28.9034 11.9173C29.3556 10.2295 28.3539 8.49443 26.666 8.04218C24.9782 7.58993 23.2432 8.59165 22.7909 10.2795L22.0139 13.1792C20.9707 17.0728 17.4423 19.7803 13.4112 19.7803H9.37695V41.3428H11.9551L12.6582 42.2803C13.3131 43.1536 14.1624 43.8624 15.1387 44.3505C16.1151 44.8387 17.1916 45.0928 18.2832 45.0928H30.5879C32.3354 45.0928 33.752 43.6763 33.752 41.9288C33.752 40.1813 32.3354 38.7647 30.5879 38.7647H32.4629C34.2104 38.7647 35.627 37.3481 35.627 35.6006C35.627 33.8531 34.2104 32.4366 32.4629 32.4366H34.3379C36.0854 32.4366 37.502 31.02 37.502 29.2725C37.502 27.525 36.0854 26.1085 34.3379 26.1085H44.8379C46.5854 26.1085 48.002 24.6919 48.002 22.9444C48.002 21.1969 46.5854 19.7803 44.8379 19.7803ZM5.1582 16.9678H1.4082C0.631578 16.9678 0.00195312 17.5975 0.00195312 18.3741V42.7491C0.00195312 43.5257 0.631578 44.1553 1.4082 44.1553H5.1582C5.93483 44.1553 6.56445 43.5257 6.56445 42.7491V18.3741C6.56445 17.5975 5.93483 16.9678 5.1582 16.9678Z" fill="url(#paint1_linear_29833_82)"/>
</g>
<defs>
<linearGradient id="paint0_linear_29833_82" x1="27.5112" y1="0.536386" x2="46.8219" y2="2.97622" gradientUnits="userSpaceOnUse">
<stop stop-color="#330166"/>
<stop offset="1" stop-color="#D60BDE"/>
</linearGradient>
<linearGradient id="paint1_linear_29833_82" x1="-15.3138" y1="1.6298" x2="50.3464" y2="12.3457" gradientUnits="userSpaceOnUse">
<stop stop-color="#330166"/>
<stop offset="1" stop-color="#D60BDE"/>
</linearGradient>
<clipPath id="clip0_29833_82">
<rect width="48" height="48" fill="white"/>
</clipPath>
</defs>
</svg>
