<svg width="821" height="225" viewBox="0 0 821 225" fill="none" xmlns="http://www.w3.org/2000/svg">
<path fill-rule="evenodd" clip-rule="evenodd" d="M162.976 152.71C163.241 153.176 163.311 153.722 163.168 154.239C163.026 154.756 162.686 155.19 162.221 155.455L124.688 176.79C124.222 177.055 123.676 177.125 123.159 176.983C122.642 176.841 122.208 176.501 121.943 176.035L95.4916 129.503C95.4916 129.503 93.5029 126.348 94.1761 124.703C94.8494 123.057 99.5311 119.629 99.5311 119.629L91.8096 123.026L59.7059 66.5509C58.9759 65.2669 58.7491 63.757 59.0701 62.3115L65.6145 32.8812C65.7652 32.1941 66.2026 31.6147 66.8049 31.2723C67.4071 30.93 68.1352 30.8619 68.7962 31.0725L97.4322 40.5042C98.8384 40.9678 100.02 41.9351 100.75 43.2191L162.987 152.703L162.976 152.71ZM74.8784 40.0792C74.1485 38.7951 72.5088 38.344 71.2248 39.0739C69.9407 39.8038 69.4896 41.4435 70.2195 42.7276C70.9494 44.0116 72.5891 44.4628 73.8732 43.7328C75.1572 43.0029 75.6083 41.3632 74.8784 40.0792Z" fill="url(#paint0_linear_103_369)"/>
<path fill-rule="evenodd" clip-rule="evenodd" d="M62.5062 63.0926C62.452 63.394 62.1581 63.5911 61.868 63.5305C61.5666 63.4763 61.3695 63.1824 61.4301 62.8924C61.4301 62.8924 63.8073 50.3849 64.5624 46.9788C64.6344 46.6822 64.9169 46.4916 65.2134 46.5636C65.5099 46.6356 65.7006 46.9181 65.6286 47.2146C64.8736 50.6208 62.5062 63.0926 62.5062 63.0926Z" fill="#353057"/>
<path fill-rule="evenodd" clip-rule="evenodd" d="M130.373 95.3606L162.981 152.722C163.246 153.188 163.316 153.734 163.174 154.251C163.032 154.768 162.692 155.202 162.226 155.467L124.693 176.802C124.227 177.067 123.681 177.137 123.164 176.995C122.647 176.853 122.213 176.513 121.949 176.047L95.555 129.617C94.824 128.093 94.1324 126.321 94.1412 126.046C94.1753 125.26 95.2066 123.741 96.7965 121.83C96.9703 121.686 97.1376 121.531 97.3001 121.393C98.4712 120.412 99.5251 119.647 99.5251 119.647L91.8036 123.044L59.6998 66.5694C58.9699 65.2854 58.743 63.7755 59.064 62.3301L59.4129 60.7485C59.4129 60.7485 60.1751 64.2845 61.0342 65.7958C66.2406 74.9546 90.6511 115.701 90.6511 115.701C90.6511 115.701 103.173 108.026 105.801 106.593C108.429 105.159 113.934 102.465 113.934 102.465L110.411 107.851C113.502 104.906 115.791 102.823 115.791 102.823C116.872 103.321 117.993 103.39 116.883 104.743C112.806 109.737 101.604 119.999 101.554 120.915C101.434 123.058 104.441 128.295 104.441 128.295C102.762 128.542 100.522 128.357 99.5417 128.855L120.839 166.319C121.607 167.671 122.871 168.652 124.369 169.063C125.866 169.475 127.465 169.273 128.805 168.511L153.554 154.442C155.929 153.092 156.849 150.134 155.664 147.68L130.378 95.3428L130.373 95.3606Z" fill="url(#paint1_linear_103_369)"/>
<path fill-rule="evenodd" clip-rule="evenodd" d="M95.4683 129.517C95.4683 129.517 97.6261 126.621 101.525 126.074C101.525 126.074 99.2821 121.996 99.5078 119.643C99.5078 119.643 94.2601 122.445 94.1126 126.048C94.0938 126.464 94.5565 128.336 95.4683 129.517Z" fill="#D0D4E5"/>
<path fill-rule="evenodd" clip-rule="evenodd" d="M95.0174 129.834C94.4759 129.119 94.0808 128.186 93.8459 127.402C93.8265 127.368 93.8136 127.346 93.8056 127.305C93.4722 126.322 93.335 125.287 93.6513 124.521C93.8175 124.126 94.1883 123.614 94.6808 123.079C94.9589 122.695 95.2612 122.328 95.5765 121.983L92.0128 123.543C91.7612 123.656 91.4518 123.561 91.3097 123.311L59.2059 66.8362C58.4114 65.4385 58.1654 63.7891 58.5143 62.2076L65.0588 32.7772C65.2487 31.9475 65.7723 31.2289 66.5109 30.809C67.2495 30.3892 68.1463 30.3004 68.945 30.568L97.5809 39.9998C99.1119 40.4977 100.403 41.5528 101.204 42.9618L163.442 152.446C163.778 153.037 163.862 153.741 163.68 154.4C163.499 155.06 163.067 155.621 162.476 155.957L124.943 177.293C124.352 177.629 123.648 177.713 122.989 177.532C122.329 177.35 121.768 176.918 121.432 176.327L94.9996 129.829L95.0174 129.834ZM96.1399 129.586L122.404 175.789C122.598 176.13 122.922 176.382 123.296 176.485C123.67 176.588 124.077 176.537 124.418 176.343L161.951 155.008C162.292 154.814 162.544 154.49 162.647 154.116C162.75 153.742 162.699 153.334 162.505 152.994L100.261 43.4979C99.6022 42.3389 98.5309 41.4594 97.256 41.0415L68.62 31.6098C68.1016 31.4384 67.5372 31.5036 67.0713 31.7684C66.6055 32.0333 66.2672 32.4962 66.1428 33.018L59.5984 62.4483C59.3052 63.7576 59.5129 65.128 60.1718 66.2871L92.0301 122.33L99.294 119.133C99.4595 119.054 99.6654 119.073 99.8175 119.181C99.8904 119.23 99.9405 119.292 99.9857 119.372C100.044 119.474 100.061 119.584 100.05 119.696C99.9619 120.573 100.274 121.704 100.64 122.744C101.224 124.381 102.009 125.814 102.009 125.814C102.1 125.973 102.104 126.166 102.013 126.323C101.94 126.485 101.776 126.593 101.596 126.62C98.644 127.035 96.7462 128.881 96.1334 129.575L96.1399 129.586ZM95.5715 128.587C96.3986 127.74 98.1512 126.248 100.696 125.673C100.401 125.074 99.9702 124.131 99.5996 123.109C99.3176 122.322 99.086 121.492 98.9921 120.718C98.1882 121.341 96.9587 122.325 95.9854 123.284C95.8246 123.451 95.6572 123.606 95.5191 123.76C95.0295 124.459 94.6905 125.238 94.653 126.072C94.6463 126.166 94.6799 126.357 94.7345 126.612C94.7634 126.715 94.7988 126.831 94.8391 126.928C95.042 127.549 95.3374 128.148 95.5586 128.564L95.5715 128.587ZM75.3557 39.8089C76.2407 41.3657 75.6899 43.3326 74.1445 44.2111C72.5991 45.0896 70.6208 44.5453 69.7423 42.9999C68.8638 41.4545 69.4081 39.4762 70.9535 38.5977C72.4989 37.7192 74.4772 38.2635 75.3557 39.8089ZM74.4012 40.3515C73.8199 39.3288 72.5188 38.9708 71.4961 39.5522C70.4734 40.1336 70.1155 41.4346 70.6968 42.4573C71.2782 43.48 72.5792 43.838 73.6019 43.2566C74.6246 42.6752 74.9826 41.3742 74.4012 40.3515Z" fill="#353057"/>
<path fill-rule="evenodd" clip-rule="evenodd" d="M61.6477 42.6685C59.0097 42.0482 53.3386 41.3026 46.7599 44.0651C44.1375 45.1649 41.8866 46.8654 39.2468 48.5164C35.162 51.064 30.1534 53.5203 21.5264 53.6582C13.1751 53.8048 9.52719 45.8801 11.9628 39.8497C13.5654 35.8715 17.8267 32.6824 25.1826 33.2971C28.6044 33.5771 30.9449 34.547 33.2663 35.3774C36.6196 36.5684 39.9607 37.4206 46.8105 35.2408C55.3005 32.5345 60.5318 36.3415 62.8691 38.7868C63.0005 38.7271 63.132 38.6674 63.2812 38.6126C64.7626 38.0712 66.2928 38.2237 67.5905 38.6287C69.3645 39.1839 70.7047 40.1662 70.8633 40.2865C71.7811 40.9225 71.9847 42.656 70.509 42.8635C70.3987 42.8811 70.1877 42.986 69.902 43.1183C69.0273 43.5103 67.6283 44.1702 66.214 44.4329C64.7186 44.7117 63.2241 44.5689 62.2264 43.4221C62.0016 43.1589 61.8011 42.9121 61.6412 42.6572L61.6477 42.6685ZM61.9047 39.365C59.6838 37.1243 54.8599 33.8224 47.1405 36.271C39.9452 38.557 36.4308 37.638 32.8992 36.398C30.6442 35.605 28.3928 34.6596 25.0877 34.3734C18.3787 33.812 14.4425 36.6209 12.985 40.246C10.8183 45.6123 14.0628 52.6687 21.5078 52.5411C29.8592 52.3945 34.7088 50.0286 38.6572 47.5585C41.3652 45.8688 43.6615 44.1425 46.3358 43.0282C52.6111 40.3931 58.0948 40.8091 61.1301 41.4141C61.082 41.1708 61.0809 40.9309 61.1154 40.7008C61.1895 40.2227 61.4337 39.753 61.9047 39.365ZM63.5872 43.1446C64.2754 43.5353 65.1411 43.5243 66.0105 43.3608C67.3259 43.1093 68.6389 42.4832 69.4568 42.1235C69.8853 41.925 70.2065 41.8025 70.3638 41.7883C70.4222 41.7851 70.4628 41.7771 70.4904 41.7464C70.5392 41.6735 70.5038 41.5584 70.4456 41.4561C70.394 41.3652 70.3358 41.2629 70.2387 41.1979C70.2387 41.1979 70.2258 41.1751 70.208 41.1702C70.208 41.1702 68.9618 40.1947 67.272 39.6818C66.1832 39.3535 64.9044 39.1934 63.6583 39.6462C63.6583 39.6462 63.6356 39.6591 63.6242 39.6655C64.0753 40.221 64.2998 40.5895 64.2998 40.5895C64.4484 40.8509 64.3666 41.1831 64.1117 41.343C63.8503 41.4916 63.5182 41.4098 63.3582 41.1549C63.3582 41.1549 63.1208 40.7636 62.639 40.1805C62.3921 40.381 62.2408 40.6174 62.1964 40.8831C62.152 41.1489 62.2195 41.4263 62.3518 41.7119C63.183 41.9311 63.6317 42.112 63.6317 42.112C63.9184 42.2197 64.0587 42.5459 63.9446 42.8212C63.8778 42.9945 63.743 43.1012 63.5872 43.1446Z" fill="#353057"/>
<path fill-rule="evenodd" clip-rule="evenodd" d="M74.0148 62.0696C74.0643 61.6806 74.214 61.415 74.464 61.2729C74.714 61.1308 74.9994 61.1039 75.2797 61.2002C77.7904 59.3219 80.7956 57.388 84.3068 55.392C87.8181 53.396 87.4576 53.6611 90.5773 52.0079C90.913 51.9374 91.2664 51.9771 91.626 52.1335C91.992 52.3013 92.2493 52.5159 92.3914 52.7659C92.5335 53.0159 92.6239 53.175 92.627 53.2333C93.332 56.2456 93.1387 59.3174 92.0535 62.4602C90.9797 65.5965 88.9573 68.0692 85.975 69.8848C82.6456 71.7775 79.8055 71.6479 77.4611 69.5075C76.7783 68.8882 76.2125 68.1574 75.7281 67.3052C75.2436 66.4529 74.9113 65.7097 74.6745 65.0023C74.5656 65.1544 74.3869 65.3161 74.1483 65.4518C73.9096 65.5874 73.5529 65.5947 73.1513 65.4171C72.7398 65.2752 72.4259 64.9875 72.1869 64.567C71.9479 64.1466 72.0687 63.7772 72.5155 63.3729L74.0197 62.0517L74.0148 62.0696ZM85.8131 57.5127C82.495 59.3989 79.4621 61.3636 76.6917 63.4196C76.8008 63.9289 77.1574 64.6884 77.7452 65.7225C78.333 66.7565 79.0704 67.6304 79.9523 68.362C80.8585 69.1098 81.6654 69.3126 82.4023 68.9689C82.9686 68.7221 83.3792 68.5188 83.6633 68.3573C86.1291 66.9556 87.9442 65.0968 89.1249 62.7568C90.3184 60.4395 90.7554 57.8756 90.4651 55.0637C88.1748 56.2454 86.6263 57.0655 85.8195 57.5241L85.8131 57.5127ZM99.0747 66.2421C99.4294 66.4163 99.7076 66.6942 99.9143 67.0578C100.121 67.4214 100.034 67.7714 99.6478 68.0964C97.4676 69.3658 94.203 71.2667 89.8605 73.8105C87.1901 75.3285 84.8901 76.5457 82.9539 77.4509C82.6504 77.5783 82.3036 77.55 81.9019 77.3723C81.5359 77.2045 81.2592 76.9559 81.0913 76.6604C80.807 76.1604 80.9312 75.7441 81.4766 75.434C83.4776 74.5371 85.8701 73.2973 88.6768 71.7018L98.1315 66.1167C98.4316 66.0364 98.7557 66.0776 99.1039 66.2405L99.0747 66.2421ZM105.982 76.674C106.648 77.8444 107.005 78.9493 107.05 80.0065C107.101 81.075 106.811 81.7812 106.163 82.1494C105.515 82.5176 105.59 82.3848 105.302 82.3534C105.026 82.3446 104.807 82.1982 104.659 81.9369C104.51 81.6755 104.405 81.0138 104.334 79.9112C104.275 78.8021 104.039 77.884 103.632 77.1681C103.225 76.4522 102.579 75.872 101.681 75.3755C100.782 74.879 99.9893 74.8335 99.3075 75.221C98.6257 75.6086 97.9523 76.5928 98.0438 77.7587C98.1132 78.6214 98.3797 79.7779 98.8418 81.1992C99.3217 82.6253 99.3982 83.95 99.0679 85.2203C98.7538 86.4664 97.8046 87.5472 96.2137 88.4516C93.7934 89.8274 91.604 90.1549 89.6682 89.421C88.5813 89.0165 87.6365 88.0951 86.8291 86.6747C86.0217 85.2543 85.6427 83.6355 85.6485 81.7678C85.6366 80.5567 85.8896 79.8115 86.4009 79.5208C86.9123 79.2302 86.8374 79.3629 87.1486 79.3815C87.4663 79.4114 87.7822 79.5174 88.085 79.7062C88.3877 79.8949 88.5461 80.1206 88.5552 80.4011C88.5999 80.6914 88.6248 81.1584 88.6477 81.807C88.6706 82.4555 88.7019 82.9339 88.7402 83.2128C88.8662 84.1485 89.1189 84.937 89.5 85.6075C89.8812 86.2779 90.5838 86.7204 91.6144 86.9465C92.6742 87.171 93.7073 87.0047 94.7072 86.4362C95.7072 85.8678 96.6019 84.5323 96.4189 82.9674C96.3315 82.2052 96.142 81.3957 95.8278 80.552C95.2238 78.7754 95.039 77.2867 95.2671 76.0745C95.5244 74.8607 96.3713 73.838 97.8145 73.0177C99.2576 72.1973 100.718 72.1487 102.191 72.8605C103.685 73.5594 104.958 74.8203 106.005 76.6611L105.982 76.674ZM113.881 91.0981C114.566 92.3026 115.071 93.7742 115.416 95.5178C115.342 95.9959 115.137 96.323 114.819 96.5038C114.501 96.6847 114.155 96.6856 113.742 96.5144C113.354 96.3595 113.046 96.0832 112.833 95.7082C112.539 94.5824 112.158 93.5958 111.68 92.755C110.576 90.8119 109.134 89.677 107.343 89.3568C105.552 89.0367 103.473 89.5573 101.087 90.9138C98.7003 92.2703 97.1726 93.9206 96.51 95.8759C96.1543 96.89 96.2268 97.811 96.7113 98.6633C97.1957 99.5155 98.4352 100.585 100.438 101.912C101.124 102.379 101.529 102.721 101.651 102.937C101.916 103.402 101.802 103.783 101.291 104.074C100.779 104.365 100.23 104.376 99.6367 104.127C97.906 103.066 96.6418 102.191 95.8489 101.484C95.0739 100.782 94.5112 100.109 94.156 99.4844C93.4196 98.189 93.2865 96.7912 93.7697 95.3137C94.6918 92.6245 96.7607 90.3659 99.9537 88.5507C103.147 86.7356 105.984 86.1454 108.396 86.8187C110.844 87.5019 112.683 88.9376 113.917 91.1079L113.881 91.0981ZM122.151 104.905C122.868 106.167 123.055 107.474 122.706 108.845C122.063 111.496 119.975 113.825 116.452 115.828C112.929 117.83 109.648 118.433 106.563 117.66C105.001 117.24 103.792 116.409 102.965 115.165C101.989 113.45 101.847 111.771 102.532 110.119C103.216 108.467 104.204 107.004 105.476 105.724C106.784 104.454 108.151 103.421 109.572 102.614C111.992 101.238 114.302 100.647 116.497 100.857C118.831 101.049 120.712 102.401 122.139 104.912L122.151 104.905ZM119.695 106.061C118.326 103.652 116.262 102.825 113.529 103.597C112.778 103.784 111.908 104.158 110.908 104.726C109.908 105.295 108.841 106.142 107.729 107.255C106.223 108.757 105.38 110.184 105.207 111.545C105.069 112.36 105.229 113.171 105.675 113.955C106.121 114.74 106.891 115.249 107.992 115.465C109.108 115.657 110.308 115.547 111.591 115.133C112.886 114.713 114.11 114.167 115.28 113.502C117.36 112.32 118.812 111.119 119.619 109.893C120.438 108.69 120.464 107.413 119.695 106.061ZM132.209 123.605C132.658 123.68 132.967 123.88 133.142 124.187C133.316 124.494 133.306 124.846 133.11 125.242C131.637 126.486 129.88 127.68 127.835 128.843L125.676 130.07C124.051 130.994 123.072 131.52 122.733 131.638C122.417 131.742 122.066 131.866 121.677 132.028C121.281 132.178 120.976 132.276 120.768 132.334C120.555 132.409 120.267 132.483 119.897 132.573C119.083 132.781 118.296 132.852 117.544 132.798C116.177 132.854 114.936 132.627 113.83 132.083C112.724 131.539 111.906 130.816 111.383 129.895C110.86 128.975 110.757 127.816 111.038 126.378C111.325 124.952 111.924 123.574 112.825 122.25C114.228 120.22 116.183 118.476 118.695 117.049C121.206 115.621 121.766 115.469 125.237 113.826C125.615 113.776 125.986 113.821 126.356 113.942C126.761 114.072 127.029 114.281 127.178 114.542C127.404 114.94 127.255 115.34 126.739 115.754C123.324 117.364 121.174 118.421 120.31 118.912C118.231 120.094 116.598 121.533 115.435 123.217C114.656 124.306 114.094 125.407 113.779 126.519C113.481 127.635 113.541 128.534 113.929 129.215C114.574 130.352 116.055 130.788 118.373 130.553C119.214 130.526 120.347 130.138 121.786 129.364C122.161 129.151 122.447 129.019 122.614 128.969L126.396 126.894C128.135 125.906 129.655 124.876 130.956 123.806C131.353 123.58 131.777 123.505 132.214 123.587L132.209 123.605ZM140.674 138.098C140.891 138.215 141.077 138.41 141.245 138.706C141.413 139.001 141.418 139.329 141.293 139.716C141.178 140.097 140.959 140.372 140.618 140.565C133.221 144.771 128.756 147.338 127.232 148.28C125.737 149.22 124.978 149.712 124.944 149.731C124.524 149.97 124.062 150.082 123.564 150.08C123.077 150.07 122.771 149.929 122.616 149.656C122.461 149.383 122.358 149.201 122.303 149.052C122.266 148.908 122.247 148.768 122.217 148.635C122.186 148.502 122.207 148.355 122.256 148.177L122.386 147.742C122.426 147.629 122.505 147.449 122.638 147.208C122.801 146.965 122.937 146.782 123.017 146.632C123.115 146.486 123.271 146.232 123.499 145.892C123.756 145.55 124.25 144.833 124.976 143.729C125.714 142.648 126.37 141.659 126.944 140.791C128.886 137.807 130.29 135.251 131.189 133.13C125.042 136.625 120.679 138.895 118.105 139.922C117.618 140.123 117.204 139.923 116.855 139.309C116.506 138.696 116.631 138.73 116.669 138.453C116.713 138.187 116.911 137.954 117.252 137.76C117.593 137.566 119.507 136.569 122.987 134.756C126.48 132.966 128.632 131.833 129.473 131.355L131.087 130.437C132.45 129.662 133.27 129.332 133.55 129.428C133.83 129.524 134.032 129.695 134.155 129.911C134.717 130.899 133.872 133.38 131.619 137.351C131.186 138.124 130.215 139.668 128.741 141.995C127.272 144.303 126.357 145.71 125.991 146.204L137.588 139.176C139.213 138.252 140.241 137.893 140.662 138.105L140.674 138.098ZM142.825 142.333L149.216 153.179C149.343 153.798 149.219 154.215 148.844 154.428C147.901 154.964 147.217 154.872 146.797 154.133C146.028 152.781 145.18 151.368 144.242 149.902C142.565 150.735 141.301 151.394 140.471 151.865L138.914 152.75L129.013 158.529C128.422 158.865 127.998 158.911 127.745 158.678C127.543 158.508 127.354 158.254 127.173 157.936C126.876 157.413 127.021 156.955 127.614 156.543C129.004 155.602 131.694 154.013 135.671 151.752C139.648 149.491 142.101 148.172 142.977 147.81C142.741 147.448 142.424 146.891 142.005 146.152C141.585 145.414 141.061 144.493 140.464 143.389C140.303 143.105 140.264 142.826 140.367 142.557C140.47 142.289 140.652 142.08 140.913 141.931C141.175 141.783 141.528 141.717 141.919 141.796C142.316 141.886 142.63 142.068 142.851 142.378L142.825 142.333Z" fill="white"/>
<path fill-rule="evenodd" clip-rule="evenodd" d="M158.647 151.545C158.796 151.807 158.702 152.145 158.441 152.294C158.18 152.443 157.841 152.349 157.693 152.088L142.248 124.919C142.099 124.657 142.192 124.319 142.454 124.17C142.715 124.022 143.054 124.115 143.202 124.376L158.647 151.545Z" fill="#353057"/>
<path fill-rule="evenodd" clip-rule="evenodd" d="M94.3904 127.269C92.8573 124.096 98.3516 120.537 98.3516 120.537L79.9564 120.048L79.55 124.174C79.55 124.174 84.9513 124.471 89.0533 127.958C90.2794 127.787 92.1459 127.553 94.3968 127.281L94.3904 127.269Z" fill="#D0D4E5"/>
<path fill-rule="evenodd" clip-rule="evenodd" d="M80.3277 119.325C80.3277 119.325 77.2312 118.559 74.9597 116.468C73.1687 114.825 72.7655 112.423 70.5476 110.24C66.4517 106.209 59.1216 104.978 55.2997 107.406C53.4651 108.569 52.0627 110.043 50.9989 111.61C49.4081 113.943 49.1938 116.951 50.4527 119.483C51.7116 122.015 54.2403 123.66 57.0512 123.791L79.576 124.879L80.3164 119.331L80.3277 119.325ZM71.7259 119.824L57.2708 119.126C56.1442 119.075 55.1194 118.409 54.6143 117.388C54.1091 116.367 54.1912 115.163 54.8321 114.227C55.5592 113.152 56.518 112.141 57.786 111.33C58.5783 110.82 59.6809 110.749 60.827 110.835C63.1061 110.982 65.5845 111.904 67.2588 113.553C68.2408 114.514 68.6778 115.573 69.201 116.494C69.9051 117.732 70.6727 118.844 71.7145 119.831L71.7259 119.824Z" fill="#FA575E"/>
<path fill-rule="evenodd" clip-rule="evenodd" d="M116.483 103.24L84.4105 132.117L81.4128 129.251C81.4128 129.251 85.5994 126.089 86.193 120.204C90.8105 117.218 106.204 106.979 112.05 103.085C113.412 102.175 115.195 102.244 116.483 103.24Z" fill="#D0D4E5"/>
<path fill-rule="evenodd" clip-rule="evenodd" d="M90.8831 122.635C91.1973 123.478 90.7558 124.421 89.9121 124.735C89.0683 125.05 88.1257 124.608 87.8115 123.764C87.4972 122.921 87.9387 121.978 88.7825 121.664C89.6262 121.349 90.5688 121.791 90.8831 122.635Z" fill="#353057"/>
<path fill-rule="evenodd" clip-rule="evenodd" d="M85.1514 132.414C85.1514 132.414 83.299 135.001 82.9306 138.082C82.6382 140.503 83.8851 142.591 83.6285 145.684C83.1261 151.412 78.3663 157.11 73.8692 157.742C71.7138 158.05 69.7007 157.841 67.8714 157.347C65.151 156.608 63.0401 154.456 62.3556 151.717C61.6711 148.979 62.5239 146.089 64.5807 144.153L81.0142 128.707L85.1822 132.442L85.1514 132.414ZM78.2932 137.621L67.7637 147.53C66.9384 148.3 66.597 149.472 66.8782 150.575C67.1595 151.678 67.9957 152.541 69.0942 152.833C70.3597 153.181 71.7374 153.33 73.2245 153.117C74.1538 152.979 75.0324 152.329 75.8561 151.53C77.4923 149.939 78.7799 147.628 78.9829 145.287C79.0978 143.929 78.7468 142.836 78.5563 141.786C78.2886 140.39 78.1409 139.045 78.3046 137.614L78.2932 137.621Z" fill="#FA575E"/>
<path fill-rule="evenodd" clip-rule="evenodd" d="M85.4364 131.938L85.5222 132.01C85.7309 132.192 85.7594 132.506 85.6017 132.731C85.6017 132.731 83.837 135.208 83.4722 138.137C83.3286 139.286 83.5613 140.356 83.7986 141.515C84.0471 142.772 84.3002 144.116 84.1637 145.727C83.8622 149.297 81.9558 152.846 79.4682 155.268C77.7817 156.903 75.8272 158.014 73.9217 158.285C71.6902 158.592 69.6008 158.381 67.7003 157.868C64.7838 157.075 62.5241 154.766 61.7946 151.843C61.0587 148.908 61.9767 145.815 64.1668 143.744L80.6003 128.298C80.8067 128.105 81.1342 128.099 81.3429 128.281L81.5209 128.436C82.0456 127.957 82.9492 127.007 83.7839 125.646C82.2336 125.114 80.8982 124.881 80.1494 124.78L80.1231 124.945C80.0852 125.222 79.8447 125.434 79.5513 125.421L57.0266 124.333C54.0098 124.183 51.3111 122.425 49.9553 119.722C48.6109 117.013 48.8256 113.794 50.5368 111.303C51.6445 109.681 53.0973 108.163 54.9936 106.95C56.6188 105.921 58.8262 105.493 61.1637 105.638C64.6116 105.858 68.3664 107.332 70.9239 109.847C72.079 110.98 72.7507 112.162 73.3724 113.282C73.9538 114.304 74.4623 115.278 75.3117 116.058C77.4845 118.056 80.4449 118.793 80.4449 118.793C80.7236 118.861 80.89 119.127 80.8521 119.404L80.8405 119.516L86.0168 119.655C90.7983 116.561 105.944 106.493 111.721 102.638C113.27 101.607 115.304 101.669 116.793 102.807L116.736 103.711L116.838 103.653L98.6114 120.044C98.7263 120.114 98.8201 120.226 98.8571 120.37C98.9279 120.6 98.8301 120.851 98.632 120.979C98.632 120.979 96.7421 122.204 95.5533 123.842C94.8443 124.816 94.3538 125.937 94.8799 127.021C94.9703 127.18 94.9569 127.368 94.8658 127.525C94.786 127.676 94.622 127.784 94.4533 127.805C92.3078 128.077 90.511 128.302 89.2785 128.461L85.43 131.927L85.4364 131.938ZM80.9219 129.498L64.9287 144.528C63.0164 146.322 62.229 149.01 62.8685 151.563C63.5016 154.105 65.4588 156.12 67.9945 156.798C69.7525 157.272 71.6894 157.479 73.7637 157.187C75.46 156.945 77.1857 155.934 78.6886 154.478C80.9925 152.236 82.7606 148.946 83.0468 145.641C83.1782 144.153 82.9362 142.907 82.6989 141.749C82.4439 140.48 82.205 139.293 82.3602 138.032C82.6459 135.705 83.7303 133.645 84.3112 132.683C84.1994 132.672 84.0909 132.613 83.9987 132.53L81.001 129.664C80.9573 129.613 80.9136 129.563 80.8878 129.517L80.9219 129.498ZM85.0485 125.649C84.1092 127.355 83.0073 128.538 82.3445 129.17L84.6129 131.204L115.568 103.323C114.553 102.833 113.316 102.904 112.343 103.547C106.594 107.372 91.5731 117.369 86.7071 120.526C86.4692 122.541 85.8331 124.225 85.0924 125.594C85.081 125.6 85.0712 125.636 85.0663 125.654L85.0485 125.649ZM80.2848 123.696C81.1276 123.803 82.6169 124.069 84.3178 124.681C84.8683 123.586 85.3365 122.267 85.5539 120.746C84.317 120.712 81.5562 120.643 80.6888 120.624L80.2734 123.702L80.2848 123.696ZM79.5431 119.667C78.482 119.308 76.3001 118.458 74.5819 116.864C73.6403 116.001 73.0574 114.949 72.4293 113.818C71.8415 112.784 71.2149 111.681 70.1634 110.625C67.7968 108.287 64.3125 106.945 61.111 106.735C59.0199 106.601 57.0428 106.958 55.593 107.872C53.8266 108.997 52.4794 110.409 51.453 111.91C49.9761 114.072 49.7801 116.875 50.947 119.219C52.1139 121.562 54.4613 123.1 57.0907 123.229C57.0907 123.229 77.4027 124.206 79.0108 124.285C78.9898 124.221 78.9867 124.163 78.995 124.098L79.4014 119.973C79.4066 119.85 79.4652 119.741 79.5481 119.649L79.5431 119.667ZM94.0886 124.148L90.7145 127.179C91.5692 127.069 92.5519 126.946 93.6449 126.806C93.4508 125.909 93.6539 124.997 94.0886 124.148ZM116.149 103.684C116.149 103.684 116.162 103.707 116.222 103.733C116.198 103.717 116.174 103.7 116.149 103.684ZM69.3431 153.325L68.936 153.376C67.6528 153.023 66.6564 152.011 66.3237 150.712C65.9975 149.424 66.4042 148.05 67.3742 147.138L77.9036 137.228C78.071 137.073 78.3207 137.036 78.5248 137.13C78.7353 137.236 78.8467 137.458 78.8349 137.676C78.6794 139.042 78.8305 140.339 79.0772 141.673C79.2871 142.756 79.6348 143.897 79.5116 145.32C79.2985 147.801 77.9361 150.245 76.2106 151.917C75.3039 152.809 74.3053 153.512 73.2771 153.66C71.7137 153.872 70.2598 153.721 68.9295 153.365C69.1612 153.429 69.3139 153.327 69.3366 153.314L69.3431 153.325ZM69.3431 153.325L68.936 153.376C69.0786 153.416 69.2181 153.396 69.3431 153.325ZM69.2189 152.313C70.413 152.642 71.7259 152.783 73.132 152.585C73.9574 152.476 74.7321 151.856 75.4552 151.144C76.9971 149.651 78.2325 147.46 78.419 145.249C78.5306 143.938 78.1827 142.903 77.9888 141.9C77.8013 140.909 77.6738 139.944 77.6566 138.962L68.1133 147.935C67.4277 148.581 67.145 149.538 67.3748 150.445C67.6047 151.352 68.2985 152.07 69.201 152.309L69.2189 152.313ZM54.3878 113.925L55.1027 114.706C55.0575 114.627 54.4854 113.779 54.3878 113.925C55.1588 112.795 56.1729 111.722 57.4977 110.879C58.3696 110.323 59.5987 110.211 60.8615 110.29C63.2638 110.443 65.8799 111.421 67.6529 113.165C68.6721 114.164 69.1462 115.263 69.6888 116.218C70.3606 117.399 71.0975 118.484 72.0957 119.42C72.2623 119.581 72.3218 119.818 72.2224 120.04C72.1344 120.255 71.9249 120.389 71.6899 120.372L57.2348 119.674C55.9023 119.604 54.7076 118.825 54.1233 117.638C53.5327 116.441 53.6266 115.019 54.3814 113.913L54.3878 113.925ZM55.2992 114.549C54.7722 115.315 54.697 116.32 55.1166 117.164C55.5362 118.008 56.3732 118.555 57.3118 118.592L70.4052 119.223C69.7795 118.466 69.2446 117.658 68.7473 116.783C68.2434 115.896 67.8323 114.882 66.8989 113.954C65.3168 112.388 62.9647 111.53 60.8088 111.387C59.7924 111.319 58.805 111.354 58.0971 111.801C56.9022 112.556 55.9938 113.523 55.3106 114.543L55.2992 114.549ZM55.1205 114.711C55.1318 114.705 55.2114 114.659 55.2992 114.549C55.2504 114.622 55.1887 114.672 55.1205 114.711Z" fill="black"/>
<path fill-rule="evenodd" clip-rule="evenodd" d="M94.6154 120.84C94.3863 121.045 94.0394 121.017 93.8454 120.782C93.6514 120.546 93.6684 120.206 93.9039 120.012L106.3 109.312C106.529 109.106 106.876 109.135 107.07 109.37C107.264 109.606 107.247 109.946 107.011 110.14L94.6154 120.84Z" fill="#353057"/>
<path d="M197.241 104V96.32L210.041 83.136C212.558 80.5333 214.457 78.4853 215.737 76.992C217.059 75.456 217.955 74.176 218.425 73.152C218.937 72.128 219.193 71.1253 219.193 70.144C219.193 68.3947 218.617 67.0293 217.465 66.048C216.355 65.024 214.947 64.512 213.241 64.512C211.491 64.512 209.934 65.024 208.569 66.048C207.203 67.0293 206.201 68.544 205.561 70.592L196.921 67.776C197.433 65.3013 198.499 63.1467 200.121 61.312C201.742 59.4773 203.705 58.0693 206.009 57.088C208.313 56.064 210.723 55.552 213.241 55.552C216.398 55.552 219.171 56.1067 221.561 57.216C223.95 58.3253 225.806 59.8827 227.129 61.888C228.451 63.8933 229.113 66.24 229.113 68.928C229.113 70.6347 228.814 72.32 228.217 73.984C227.619 75.6053 226.702 77.2693 225.465 78.976C224.27 80.64 222.713 82.4533 220.793 84.416L209.849 95.68H229.561V104H197.241ZM255.078 104.768C251.28 104.768 247.931 103.744 245.03 101.696C242.171 99.648 239.931 96.768 238.31 93.056C236.688 89.344 235.878 85.0347 235.878 80.128C235.878 75.1787 236.667 70.8693 238.246 67.2C239.867 63.5307 242.107 60.672 244.966 58.624C247.867 56.576 251.216 55.552 255.014 55.552C258.896 55.552 262.267 56.576 265.126 58.624C268.027 60.672 270.267 63.552 271.846 67.264C273.467 70.9333 274.278 75.2213 274.278 80.128C274.278 85.0347 273.467 89.344 271.846 93.056C270.267 96.7253 268.027 99.6053 265.126 101.696C262.267 103.744 258.918 104.768 255.078 104.768ZM255.142 95.808C257.104 95.808 258.768 95.1893 260.134 93.952C261.499 92.7147 262.544 90.9227 263.27 88.576C263.995 86.2293 264.358 83.4133 264.358 80.128C264.358 76.8427 263.995 74.048 263.27 71.744C262.544 69.3973 261.478 67.6053 260.07 66.368C258.704 65.1307 257.019 64.512 255.014 64.512C253.051 64.512 251.387 65.1307 250.022 66.368C248.656 67.6053 247.611 69.3973 246.886 71.744C246.16 74.048 245.798 76.8427 245.798 80.128C245.798 83.3707 246.16 86.1653 246.886 88.512C247.611 90.8587 248.656 92.672 250.022 93.952C251.43 95.1893 253.136 95.808 255.142 95.808ZM280.178 104V96.32L292.978 83.136C295.496 80.5333 297.394 78.4853 298.674 76.992C299.997 75.456 300.893 74.176 301.362 73.152C301.874 72.128 302.13 71.1253 302.13 70.144C302.13 68.3947 301.554 67.0293 300.402 66.048C299.293 65.024 297.885 64.512 296.178 64.512C294.429 64.512 292.872 65.024 291.506 66.048C290.141 67.0293 289.138 68.544 288.498 70.592L279.858 67.776C280.37 65.3013 281.437 63.1467 283.058 61.312C284.68 59.4773 286.642 58.0693 288.946 57.088C291.25 56.064 293.661 55.552 296.178 55.552C299.336 55.552 302.109 56.1067 304.498 57.216C306.888 58.3253 308.744 59.8827 310.066 61.888C311.389 63.8933 312.05 66.24 312.05 68.928C312.05 70.6347 311.752 72.32 311.154 73.984C310.557 75.6053 309.64 77.2693 308.402 78.976C307.208 80.64 305.65 82.4533 303.73 84.416L292.786 95.68H312.498V104H280.178ZM338.158 104V93.76H317.038V85.44L337.518 56.32H348.078V85.44H355.438V93.76H348.078V104H338.158ZM324.27 89.024L322.414 85.44H338.158V64L340.654 64.768L324.27 89.024ZM385.441 104V83.2L369.569 56.32H380.897L392.417 76.544H388.385L399.841 56.32H411.169L395.361 83.136V104H385.441ZM416.089 104V56.32H448.153V64.96H426.009V75.776H446.873V84.416H426.009V95.36H448.153V104H416.089ZM450.257 104L466.385 56.32H479.569L495.697 104H484.881L481.681 94.272H464.209L461.009 104H450.257ZM466.961 85.632H478.929L471.633 63.104H474.321L466.961 85.632ZM500.652 104V56.32H518.892C522.177 56.32 525.078 56.896 527.596 58.048C530.156 59.2 532.161 60.9067 533.612 63.168C535.062 65.4293 535.788 68.224 535.788 71.552C535.788 74.7947 535.041 77.568 533.548 79.872C532.054 82.1333 530.049 83.84 527.532 84.992L538.412 104H527.276L515.5 82.944L521.9 86.72H510.572V104H500.652ZM510.572 78.08H518.956C520.364 78.08 521.58 77.8027 522.604 77.248C523.628 76.6933 524.417 75.9253 524.972 74.944C525.569 73.9627 525.868 72.832 525.868 71.552C525.868 70.2293 525.569 69.0773 524.972 68.096C524.417 67.1147 523.628 66.3467 522.604 65.792C521.58 65.2373 520.364 64.96 518.956 64.96H510.572V78.08ZM545.003 90.688V82.368H573.803V90.688H545.003ZM583.902 104V56.32H615.966V64.96H593.822V75.776H614.686V84.416H593.822V95.36H615.966V104H583.902ZM621.589 104V56.32H629.205L654.805 90.048L650.709 91.008V56.32H660.629V104H652.949L627.797 70.016L631.509 69.056V104H621.589ZM669.089 104V56.32H684.641C689.804 56.32 694.284 57.344 698.081 59.392C701.879 61.44 704.823 64.256 706.913 67.84C709.004 71.424 710.049 75.52 710.049 80.128C710.049 84.736 709.004 88.8533 706.913 92.48C704.823 96.064 701.879 98.88 698.081 100.928C694.284 102.976 689.804 104 684.641 104H669.089ZM679.009 95.36H684.897C688.012 95.36 690.7 94.7413 692.961 93.504C695.223 92.224 696.972 90.4533 698.209 88.192C699.489 85.888 700.129 83.2 700.129 80.128C700.129 77.0133 699.489 74.3253 698.209 72.064C696.972 69.8027 695.223 68.0533 692.961 66.816C690.7 65.5787 688.012 64.96 684.897 64.96H679.009V95.36Z" fill="white"/>
<path d="M252.37 178V130.32H270.674C273.96 130.32 276.861 130.896 279.378 132.048C281.938 133.2 283.944 134.907 285.394 137.168C286.845 139.429 287.57 142.224 287.57 145.552C287.57 148.795 286.824 151.547 285.33 153.808C283.88 156.069 281.874 157.797 279.314 158.992C276.797 160.144 273.917 160.72 270.674 160.72H262.29V178H252.37ZM262.29 152.08H270.738C272.146 152.08 273.362 151.803 274.386 151.248C275.41 150.693 276.2 149.925 276.754 148.944C277.352 147.963 277.65 146.832 277.65 145.552C277.65 144.229 277.352 143.077 276.754 142.096C276.2 141.115 275.41 140.347 274.386 139.792C273.362 139.237 272.146 138.96 270.738 138.96H262.29V152.08ZM293.933 178V130.32H312.173C315.458 130.32 318.36 130.896 320.877 132.048C323.437 133.2 325.442 134.907 326.893 137.168C328.344 139.429 329.069 142.224 329.069 145.552C329.069 148.795 328.322 151.568 326.829 153.872C325.336 156.133 323.33 157.84 320.813 158.992L331.693 178H320.557L308.781 156.944L315.181 160.72H303.853V178H293.933ZM303.853 152.08H312.237C313.645 152.08 314.861 151.803 315.885 151.248C316.909 150.693 317.698 149.925 318.253 148.944C318.85 147.963 319.149 146.832 319.149 145.552C319.149 144.229 318.85 143.077 318.253 142.096C317.698 141.115 316.909 140.347 315.885 139.792C314.861 139.237 313.645 138.96 312.237 138.96H303.853V152.08ZM360.492 178.768C356.908 178.768 353.58 178.149 350.508 176.912C347.436 175.675 344.748 173.947 342.444 171.728C340.183 169.467 338.412 166.843 337.132 163.856C335.852 160.869 335.212 157.627 335.212 154.128C335.212 150.629 335.831 147.387 337.068 144.4C338.348 141.413 340.119 138.811 342.38 136.592C344.684 134.373 347.372 132.645 350.444 131.408C353.516 130.171 356.866 129.552 360.492 129.552C364.119 129.552 367.468 130.171 370.54 131.408C373.612 132.645 376.279 134.373 378.54 136.592C380.844 138.811 382.615 141.413 383.852 144.4C385.132 147.387 385.772 150.629 385.772 154.128C385.772 157.627 385.132 160.869 383.852 163.856C382.572 166.843 380.78 169.467 378.476 171.728C376.215 173.947 373.548 175.675 370.476 176.912C367.404 178.149 364.076 178.768 360.492 178.768ZM360.492 169.808C362.668 169.808 364.674 169.424 366.508 168.656C368.386 167.888 370.028 166.821 371.436 165.456C372.844 164.048 373.932 162.384 374.7 160.464C375.468 158.544 375.852 156.432 375.852 154.128C375.852 151.824 375.468 149.733 374.7 147.856C373.932 145.936 372.844 144.272 371.436 142.864C370.028 141.456 368.386 140.389 366.508 139.664C364.674 138.896 362.668 138.512 360.492 138.512C358.316 138.512 356.29 138.896 354.412 139.664C352.578 140.389 350.956 141.456 349.548 142.864C348.14 144.272 347.052 145.936 346.284 147.856C345.516 149.733 345.132 151.824 345.132 154.128C345.132 156.432 345.516 158.544 346.284 160.464C347.052 162.384 348.14 164.048 349.548 165.456C350.956 166.821 352.578 167.888 354.412 168.656C356.29 169.424 358.316 169.808 360.492 169.808ZM392.808 178V130.32H402.408L420.264 154H415.784L433.128 130.32H442.728V178H432.808V141.264L436.776 142.16L418.408 165.84H417.128L399.4 142.16L402.728 141.264V178H392.808ZM475.055 178.768C471.471 178.768 468.143 178.149 465.071 176.912C461.999 175.675 459.311 173.947 457.007 171.728C454.746 169.467 452.975 166.843 451.695 163.856C450.415 160.869 449.775 157.627 449.775 154.128C449.775 150.629 450.394 147.387 451.631 144.4C452.911 141.413 454.682 138.811 456.943 136.592C459.247 134.373 461.935 132.645 465.007 131.408C468.079 130.171 471.428 129.552 475.055 129.552C478.682 129.552 482.031 130.171 485.103 131.408C488.175 132.645 490.842 134.373 493.103 136.592C495.407 138.811 497.178 141.413 498.415 144.4C499.695 147.387 500.335 150.629 500.335 154.128C500.335 157.627 499.695 160.869 498.415 163.856C497.135 166.843 495.343 169.467 493.039 171.728C490.778 173.947 488.111 175.675 485.039 176.912C481.967 178.149 478.639 178.768 475.055 178.768ZM475.055 169.808C477.231 169.808 479.236 169.424 481.071 168.656C482.948 167.888 484.591 166.821 485.999 165.456C487.407 164.048 488.495 162.384 489.263 160.464C490.031 158.544 490.415 156.432 490.415 154.128C490.415 151.824 490.031 149.733 489.263 147.856C488.495 145.936 487.407 144.272 485.999 142.864C484.591 141.456 482.948 140.389 481.071 139.664C479.236 138.896 477.231 138.512 475.055 138.512C472.879 138.512 470.852 138.896 468.975 139.664C467.14 140.389 465.519 141.456 464.111 142.864C462.703 144.272 461.615 145.936 460.847 147.856C460.079 149.733 459.695 151.824 459.695 154.128C459.695 156.432 460.079 158.544 460.847 160.464C461.615 162.384 462.703 164.048 464.111 165.456C465.519 166.821 467.14 167.888 468.975 168.656C470.852 169.424 472.879 169.808 475.055 169.808ZM514.009 178V138.96H501.913V130.32H535.833V138.96H523.929V178H514.009ZM540.745 178V130.32H550.665V178H540.745ZM582.992 178.768C579.408 178.768 576.08 178.149 573.008 176.912C569.936 175.675 567.248 173.947 564.944 171.728C562.683 169.467 560.912 166.843 559.632 163.856C558.352 160.869 557.712 157.627 557.712 154.128C557.712 150.629 558.331 147.387 559.568 144.4C560.848 141.413 562.619 138.811 564.88 136.592C567.184 134.373 569.872 132.645 572.944 131.408C576.016 130.171 579.366 129.552 582.992 129.552C586.619 129.552 589.968 130.171 593.04 131.408C596.112 132.645 598.779 134.373 601.04 136.592C603.344 138.811 605.115 141.413 606.352 144.4C607.632 147.387 608.272 150.629 608.272 154.128C608.272 157.627 607.632 160.869 606.352 163.856C605.072 166.843 603.28 169.467 600.976 171.728C598.715 173.947 596.048 175.675 592.976 176.912C589.904 178.149 586.576 178.768 582.992 178.768ZM582.992 169.808C585.168 169.808 587.174 169.424 589.008 168.656C590.886 167.888 592.528 166.821 593.936 165.456C595.344 164.048 596.432 162.384 597.2 160.464C597.968 158.544 598.352 156.432 598.352 154.128C598.352 151.824 597.968 149.733 597.2 147.856C596.432 145.936 595.344 144.272 593.936 142.864C592.528 141.456 590.886 140.389 589.008 139.664C587.174 138.896 585.168 138.512 582.992 138.512C580.816 138.512 578.79 138.896 576.912 139.664C575.078 140.389 573.456 141.456 572.048 142.864C570.64 144.272 569.552 145.936 568.784 147.856C568.016 149.733 567.632 151.824 567.632 154.128C567.632 156.432 568.016 158.544 568.784 160.464C569.552 162.384 570.64 164.048 572.048 165.456C573.456 166.821 575.078 167.888 576.912 168.656C578.79 169.424 580.816 169.808 582.992 169.808ZM615.308 178V130.32H622.924L648.524 164.048L644.428 165.008V130.32H654.348V178H646.668L621.516 144.016L625.228 143.056V178H615.308Z" fill="url(#paint2_linear_103_369)"/>
<path fill-rule="evenodd" clip-rule="evenodd" d="M712.348 161.147C712.348 161.147 754.445 189.747 775.675 135.035C775.675 135.035 809.189 152.485 820.103 160.517C820.103 160.517 784.872 265.579 689.102 206.221C681.511 201.528 674.676 171.935 676.204 165.809C682.614 162.187 703.513 161.305 712.332 161.147H712.348ZM685.763 172.345C688.142 170.14 685.937 166.344 682.047 168.754C680.897 169.463 680.724 170.943 681.779 172.392C682.645 173.589 684.96 173.101 685.779 172.345H685.763Z" fill="#FCB233"/>
<path fill-rule="evenodd" clip-rule="evenodd" d="M800.826 147.867C803.047 149.269 818.607 159.411 820.118 160.514C820.118 160.514 784.888 265.576 689.118 206.218C681.527 201.524 674.692 171.932 676.219 165.805C678.235 164.656 681.7 163.79 685.763 163.128C685.763 163.128 683.338 164.435 682.314 168.577C682.22 168.625 682.125 168.688 682.031 168.751C680.881 169.459 680.708 170.94 681.763 172.389C681.795 172.436 681.842 172.499 681.889 172.53C681.889 173.286 681.936 174.105 682.031 174.971C683.07 184.248 685.527 196.485 691.543 202.123C697.575 207.745 731.514 222.423 751.279 219.242C771.044 216.061 781.959 196.8 788.211 185.366C797.897 167.632 800.794 147.852 800.794 147.852L800.826 147.867Z" fill="#D5710D"/>
<path fill-rule="evenodd" clip-rule="evenodd" d="M712.696 160.624C712.696 160.624 727.626 170.766 744.084 167.239C755.077 164.876 766.715 156.403 775.094 134.796C775.157 134.622 775.298 134.496 775.456 134.433C775.629 134.37 775.802 134.386 775.976 134.465C775.976 134.465 809.553 151.962 820.483 159.994C820.703 160.152 820.798 160.435 820.703 160.703C820.703 160.703 803.3 212.517 759.786 223.116C741.139 227.652 717.704 224.66 688.773 206.737C687.498 205.95 686.222 204.485 685.025 202.564C683.293 199.792 681.655 196.012 680.253 191.917C677.812 184.783 676.048 176.657 675.528 171.16C675.292 168.719 675.308 166.782 675.607 165.648C675.654 165.475 675.764 165.333 675.906 165.254C677.875 164.136 681.166 163.27 685.072 162.608C694.002 161.097 706.129 160.624 712.318 160.514C712.444 160.514 712.57 160.545 712.68 160.624H712.696ZM712.161 161.79C705.955 161.915 694.065 162.388 685.293 163.868C681.718 164.467 678.678 165.239 676.772 166.231C676.568 167.317 676.599 168.987 676.788 171.066C677.308 176.483 679.04 184.5 681.45 191.539C682.82 195.54 684.395 199.225 686.096 201.934C687.183 203.666 688.301 204.989 689.45 205.698C717.988 223.384 741.107 226.408 759.502 221.919C800.087 212.029 817.6 165.743 819.38 160.766C809.033 153.301 780.59 138.323 776.023 135.93C767.44 157.616 755.533 166.089 744.352 168.483C728.429 171.9 713.893 162.908 712.176 161.79H712.161ZM686.206 172.814C685.623 173.349 684.411 173.806 683.293 173.743C682.474 173.712 681.718 173.397 681.261 172.767C679.954 170.955 680.269 169.113 681.718 168.215C683.56 167.081 685.088 167.191 686.064 167.806C687.623 168.782 687.986 171.144 686.206 172.798V172.814ZM685.34 171.885C686.411 170.892 686.332 169.459 685.387 168.877C684.71 168.451 683.655 168.499 682.379 169.286C681.513 169.822 681.497 170.94 682.285 172.026C682.521 172.357 682.93 172.467 683.356 172.483C684.111 172.515 684.946 172.247 685.34 171.885Z" fill="#363156"/>
<path fill-rule="evenodd" clip-rule="evenodd" d="M691.592 202.235C690.867 201.779 705.939 166.013 711.073 165.887C715.436 168.454 729.72 175.777 745.201 172.47C756.572 170.029 768.872 162.012 778.038 141.602C786.511 146.09 804.796 155.933 814.434 162.312C809.977 173.43 793.063 209.559 758.525 217.969C740.933 222.252 718.885 219.15 691.592 202.235Z" fill="#FEE1B0"/>
<path fill-rule="evenodd" clip-rule="evenodd" d="M691.828 202.374C691.75 202.326 691.671 202.279 691.592 202.232C691.576 202.232 691.561 202.185 691.561 202.137C691.639 202.216 691.734 202.295 691.828 202.374ZM744.036 219.698C732.477 219.729 719.358 216.721 704.522 209.429C715.609 214.327 731.327 219.383 744.036 219.698ZM799.757 153.457C805.253 156.575 810.545 159.725 814.435 162.292C809.978 173.411 793.063 209.539 758.526 217.949C756.195 218.516 753.785 218.957 751.297 219.257C771.046 216.075 781.976 196.814 788.228 185.38C794.748 173.458 798.197 160.607 799.757 153.457Z" fill="#F0C687"/>
<path fill-rule="evenodd" clip-rule="evenodd" d="M691.26 202.772L691.071 202.598L690.961 202.378L690.93 202.157C690.93 202.094 690.93 202.016 690.945 201.921C691.024 201.401 691.497 200.016 692.253 198.063C694.82 191.464 700.741 178.203 705.482 170.817C706.726 168.864 707.907 167.321 708.915 166.391C709.718 165.651 710.459 165.273 711.057 165.257C711.167 165.257 711.293 165.289 711.388 165.336C715.703 167.872 729.798 175.116 745.059 171.84C756.288 169.431 768.399 161.493 777.455 141.319C777.534 141.161 777.66 141.035 777.833 140.988C777.99 140.925 778.179 140.941 778.337 141.02C786.826 145.524 805.126 155.383 814.78 161.761C815.032 161.919 815.127 162.249 815.016 162.517C810.528 173.715 793.456 210.079 758.682 218.552C740.964 222.867 718.743 219.781 691.26 202.74V202.772ZM692.253 201.905C719.199 218.521 740.996 221.607 758.383 217.355C792.18 209.118 808.953 174.108 813.662 162.549C804.15 156.328 786.904 147.004 778.337 142.469C769.092 162.69 756.729 170.644 745.327 173.085C729.861 176.408 715.561 169.226 710.931 166.533C710.585 166.612 710.207 166.895 709.766 167.305C708.821 168.187 707.718 169.651 706.537 171.494C701.844 178.833 695.969 191.968 693.418 198.519C692.851 199.968 692.457 201.102 692.268 201.748C692.268 201.795 692.237 201.842 692.237 201.89L692.253 201.905Z" fill="#363156"/>
<path fill-rule="evenodd" clip-rule="evenodd" d="M682.408 169.523C681.589 169.082 680.156 167.633 679.416 166.026C678.88 164.861 678.723 163.617 679.242 162.577C679.904 161.302 680.849 160.845 681.778 160.877C683.101 160.924 684.44 162.058 684.896 163.57C685.369 165.129 685.967 167.129 685.148 168.767C684.991 169.066 684.644 169.365 684.203 169.538C683.605 169.775 682.865 169.775 682.424 169.538L682.408 169.523ZM683.007 168.42C683.148 168.499 683.369 168.452 683.589 168.405C683.715 168.373 683.825 168.326 683.936 168.263C683.967 168.247 684.014 168.231 684.03 168.2C684.345 167.57 684.361 166.861 684.266 166.168C684.156 165.381 683.904 164.609 683.699 163.916C683.495 163.223 683.007 162.625 682.44 162.325C682.109 162.152 681.747 162.073 681.416 162.168C681.022 162.278 680.676 162.593 680.392 163.144C680.03 163.853 680.219 164.704 680.581 165.491C681.195 166.83 682.361 168.042 683.038 168.405L683.007 168.42Z" fill="#363156"/>
<path fill-rule="evenodd" clip-rule="evenodd" d="M681.639 176.894C681.592 176.547 681.828 176.232 682.174 176.185C682.521 176.138 682.836 176.374 682.883 176.721C682.883 176.721 684.883 190.17 687.749 195.588C687.907 195.903 687.797 196.281 687.482 196.438C687.167 196.596 686.789 196.486 686.631 196.171C683.702 190.643 681.639 176.91 681.639 176.91V176.894ZM708.538 163.113C708.885 163.113 709.168 163.381 709.184 163.728C709.184 164.074 708.916 164.358 708.57 164.373C708.57 164.373 694.207 164.767 689.482 165.681C689.135 165.744 688.805 165.523 688.742 165.177C688.679 164.83 688.899 164.499 689.246 164.436C694.018 163.507 708.538 163.098 708.538 163.098V163.113Z" fill="#363156"/>
<path fill-rule="evenodd" clip-rule="evenodd" d="M770.288 182.926C767.847 179.115 765.61 175.445 764.271 172.847C763.453 171.272 762.964 170.044 762.838 169.335C762.775 168.973 762.791 168.658 762.838 168.437C762.838 168.421 762.838 168.406 762.854 168.374L762.964 168.106C762.98 168.059 763.012 168.028 763.027 167.98L763.232 167.713C763.248 167.697 763.264 167.665 763.279 167.65C764.082 166.894 765.264 166.689 766.744 167.224C769.028 168.028 772.382 170.784 775.847 174.233C782.273 180.627 789.234 189.336 790.494 191.1C790.793 191.525 790.887 191.824 790.903 191.903C790.903 191.935 790.903 191.966 790.903 192.013V192.344C790.903 192.407 790.887 192.47 790.856 192.533L790.73 192.801C790.73 192.832 790.698 192.848 790.683 192.88C790.289 193.462 789.486 193.604 788.903 193.195C788.714 193.069 788.572 192.88 788.478 192.691C788.446 192.659 788.431 192.612 788.399 192.565C787.344 191.084 782.21 184.627 776.792 178.863C775.28 180.658 774.745 180.69 772.981 182.454C777.942 190.155 783.501 198.203 784.037 199.038C784.415 199.636 784.226 200.423 783.627 200.801C783.029 201.179 782.241 200.99 781.863 200.392C781.328 199.526 775.406 190.974 770.319 183.037C770.288 183.005 770.272 182.958 770.24 182.926H770.288ZM765.594 169.508C765.799 170.075 766.13 170.894 766.524 171.666C767.705 173.934 769.547 177.005 771.611 180.265C773.044 178.926 773.579 178.816 775.044 177.005C774.713 176.674 774.398 176.343 774.067 176.028C771.343 173.319 768.728 171.036 766.728 169.981C766.303 169.76 765.925 169.587 765.579 169.508H765.594ZM720.426 208.676C720.788 208.739 721.214 208.833 721.749 208.944C722.442 209.101 722.867 209.794 722.694 210.471C722.536 211.164 721.844 211.59 721.166 211.416C718.442 210.771 718.41 211.133 715.717 210.456C715.04 210.282 714.615 209.589 714.804 208.912C714.977 208.235 715.67 207.81 716.347 207.999C716.977 208.156 717.465 208.266 717.859 208.329C719.56 202.817 724.222 191.966 724.631 190.391C725.56 186.816 726.19 186.864 728.096 179.036C727.387 178.91 726.663 178.8 726.08 178.769C725.371 178.721 724.852 178.107 724.915 177.398C724.962 176.69 725.576 176.17 726.285 176.233C728.238 176.39 730.868 176.894 731.891 177.209C732.301 177.335 732.553 177.477 732.663 177.572C732.679 177.572 732.695 177.603 732.71 177.619L732.868 177.776C732.899 177.808 732.931 177.855 732.962 177.887L733.088 178.123C733.088 178.154 733.12 178.17 733.12 178.202C733.34 178.863 732.978 179.587 732.317 179.824C731.954 179.95 731.561 179.887 731.246 179.713C731.12 179.682 730.899 179.635 730.6 179.572C728.663 187.525 728.033 187.462 727.088 191.069C726.678 192.612 722.206 203.069 720.41 208.707L720.426 208.676ZM787.927 165.429C792.147 168.437 796.242 171.555 798.699 173.382C799.124 173.697 799.534 173.997 799.864 174.233C801.36 171.587 804.605 164.988 804.605 164.988C804.92 164.358 805.676 164.09 806.306 164.405C806.936 164.72 807.203 165.476 806.888 166.106C806.888 166.106 802.636 174.705 801.534 176.39C801.297 176.737 801.093 176.942 800.983 177.005C800.967 177.005 800.935 177.036 800.92 177.036L800.683 177.146C800.636 177.178 800.573 177.194 800.526 177.194L800.211 177.225C800.164 177.225 800.101 177.225 800.053 177.225L799.817 177.178C799.801 177.178 799.77 177.178 799.754 177.162C799.675 177.131 799.565 177.083 799.423 177.005C799.077 176.8 798.289 176.233 797.171 175.414C791.974 171.555 779.359 161.744 774.036 159.885C773.705 159.775 773.437 159.523 773.296 159.208C773.154 158.893 773.138 158.531 773.28 158.2C774.304 155.665 775.123 154.625 775.847 153.759C776.461 153.05 777.028 152.499 777.674 151.003C777.957 150.357 778.713 150.058 779.359 150.341C780.005 150.625 780.304 151.381 780.021 152.027C779.375 153.523 778.792 154.263 778.194 154.956C777.579 155.665 776.949 156.31 776.146 157.996C778.682 159.161 782.225 161.429 785.848 163.949C787.234 161.98 789.123 158.043 789.123 158.043C789.423 157.413 790.194 157.145 790.824 157.444C791.454 157.744 791.722 158.515 791.423 159.145C791.423 159.145 789.438 163.224 787.942 165.413L787.927 165.429ZM695.59 200.14C696.267 196.722 701.197 187.431 705.37 180.28C708.189 175.445 710.677 171.571 711.26 171.036C711.355 170.941 711.465 170.863 711.591 170.815C712.646 170.327 714.41 170.5 716.127 171.335C718.505 172.516 720.694 174.863 720.694 177.257C720.694 180.532 718.82 182.328 716.489 183.32C716.19 183.446 715.89 183.556 715.591 183.651C717.198 184.769 718.52 186.391 719.135 188.407C719.906 191.021 719.513 194.376 716.646 198.171C715.402 199.825 706.63 206.77 696.299 201.51C695.795 201.258 695.511 200.691 695.621 200.124L695.59 200.14ZM698.346 199.699C706.63 203.29 713.56 197.998 714.567 196.659C716.788 193.714 717.261 191.179 716.662 189.147C715.796 186.234 712.804 184.501 710.425 184.47C709.732 184.47 709.181 183.918 709.166 183.226C709.15 182.533 709.685 181.966 710.362 181.918C711.67 181.84 713.733 181.714 715.481 180.989C716.93 180.375 718.127 179.304 718.127 177.272C718.127 176.737 717.891 176.233 717.56 175.76C716.946 174.879 715.969 174.138 714.977 173.65C714.363 173.351 713.733 173.13 713.197 173.099C713.071 173.099 712.945 173.099 712.835 173.099C712.079 174.06 709.969 177.461 707.559 181.588C703.89 187.887 699.559 195.856 698.33 199.715L698.346 199.699ZM750.239 185.43C750.208 186.139 749.609 186.675 748.916 186.643C748.207 186.612 747.672 186.013 747.703 185.32C747.814 182.58 747.231 180.847 746.144 179.855C745.184 178.989 743.876 178.737 742.569 178.8C740.38 178.895 738.128 179.855 736.978 180.784C736.333 181.304 735.624 182.375 734.868 183.745C732.915 187.305 730.899 192.943 730.017 198.156C729.529 201.053 729.387 203.81 729.844 205.999C730.112 207.259 730.569 208.314 731.324 209.022C734.506 211.952 739.167 212.582 742.884 212.062C745.215 211.731 747.184 210.991 748.081 209.967C751.278 206.266 750.664 201.825 748.381 199.778C747.577 199.053 745.892 197.226 743.215 197.888C742.538 198.061 741.845 197.636 741.672 196.959C741.498 196.281 741.924 195.589 742.601 195.415C746.444 194.47 748.932 196.864 750.082 197.888C753.168 200.66 754.318 206.66 750.019 211.653C748.853 213.007 746.318 214.172 743.246 214.598C738.852 215.212 733.372 214.361 729.608 210.912C728.49 209.889 727.734 208.377 727.356 206.534C726.836 204.077 726.962 200.975 727.497 197.746C728.427 192.234 730.568 186.297 732.616 182.533C733.577 180.769 734.553 179.477 735.372 178.8C736.821 177.619 739.671 176.375 742.459 176.249C744.459 176.154 746.412 176.627 747.877 177.965C749.389 179.336 750.428 181.651 750.271 185.43H750.239ZM762.917 173.241C763.579 173.493 763.909 174.217 763.657 174.879C763.405 175.54 762.681 175.871 762.019 175.619C757.594 173.965 753.672 177.965 754.145 181.477C754.46 183.918 756.964 185.824 762.476 185.84C768.13 185.871 772.256 189.73 774.083 193.793C775.375 196.675 775.453 199.636 774.351 201.526C772.099 205.369 769.642 207.164 767.421 207.841C765.027 208.581 762.854 208.046 761.311 207.133C759.799 206.235 758.933 204.943 758.807 204.046C758.696 203.353 759.185 202.691 759.877 202.597C760.57 202.487 761.232 202.975 761.326 203.668C761.342 203.794 761.437 203.936 761.547 204.077C761.783 204.376 762.161 204.676 762.618 204.943C764.807 206.251 768.681 206.172 772.146 200.25C772.918 198.927 772.65 196.864 771.752 194.848C770.288 191.588 767.012 188.423 762.46 188.407C755.027 188.375 752.05 185.115 751.609 181.824C750.932 176.737 756.507 170.847 762.917 173.241ZM768.035 165.319C767.563 164.799 767.595 163.996 768.114 163.523C768.634 163.051 769.437 163.082 769.91 163.602C778.351 172.768 788.053 182.344 791.691 185.903C793.785 182.013 795.014 179.887 795.785 178.469C796.116 177.855 796.904 177.619 797.518 177.965C798.132 178.296 798.368 179.084 798.022 179.698C797.156 181.288 795.722 183.761 793.124 188.612C792.935 188.958 792.588 189.21 792.195 189.273C791.801 189.336 791.391 189.21 791.108 188.927C789.218 187.084 777.768 175.949 768.004 165.35L768.035 165.319Z" fill="#363156"/>
<path fill-rule="evenodd" clip-rule="evenodd" d="M686.402 166.712C686.622 166.979 686.591 167.373 686.323 167.594C686.055 167.814 685.661 167.783 685.441 167.515C685.441 167.515 678.401 159.152 669.408 155.136C665.865 153.545 661.55 153.971 657.329 154.522C652.903 155.105 648.557 155.845 645.202 154.916C642.761 154.238 640.493 152.207 639.186 149.655C637.879 147.088 637.517 144.017 638.792 141.277C639.879 138.946 642.162 136.836 646.115 135.513C660.195 130.788 670.936 138.033 677.22 144.836C686.134 154.522 688.732 166.491 688.732 166.491C688.811 166.838 688.591 167.168 688.244 167.247C687.898 167.326 687.567 167.105 687.488 166.759C687.488 166.759 684.968 155.105 676.275 145.687C670.259 139.167 659.99 132.174 646.509 136.71C642.966 137.891 640.903 139.734 639.926 141.812C638.808 144.191 639.154 146.868 640.288 149.088C641.438 151.325 643.375 153.104 645.517 153.703C648.73 154.601 652.888 153.845 657.14 153.278C661.597 152.695 666.148 152.317 669.897 153.986C679.141 158.128 686.386 166.712 686.386 166.712H686.402Z" fill="white"/>
<path d="M644.434 134H654.348V136.059L644.434 138.047V136.027V134Z" fill="#7732B0"/>
<defs>
<linearGradient id="paint0_linear_103_369" x1="20.1754" y1="27.5113" x2="78.9968" y2="-2.99696" gradientUnits="userSpaceOnUse">
<stop stop-color="#330166"/>
<stop offset="1" stop-color="#D60BDE"/>
</linearGradient>
<linearGradient id="paint1_linear_103_369" x1="32.866" y1="49.8563" x2="91.8723" y2="19.7252" gradientUnits="userSpaceOnUse">
<stop stop-color="#330166"/>
<stop offset="1" stop-color="#D60BDE"/>
</linearGradient>
<linearGradient id="paint2_linear_103_369" x1="420.638" y1="94.5" x2="820.789" y2="92.6519" gradientUnits="userSpaceOnUse">
<stop stop-color="#D60BDE"/>
<stop offset="1" stop-color="#324E8E"/>
</linearGradient>
</defs>
</svg>
