<svg width="48" height="48" viewBox="0 0 48 48" fill="none" xmlns="http://www.w3.org/2000/svg">
<path d="M28.8146 6.8025C29.1859 5.8995 30.0386 3.88725 30.3971 3H17.6021C17.9621 3.8925 18.8171 5.8935 19.1846 6.8025H28.8146ZM36.7496 18.045C36.5543 17.9903 36.3524 17.9626 36.1496 17.9625H11.8496C11.2532 17.9637 10.6816 18.2011 10.2599 18.6228C9.83823 19.0445 9.6008 19.6161 9.59961 20.2125V27.7875C9.601 28.3838 9.83849 28.9553 10.2602 29.377C10.6818 29.7986 11.2533 30.0361 11.8496 30.0375H36.1496C36.7459 30.0361 37.3174 29.7986 37.7391 29.377C38.1607 28.9553 38.3982 28.3838 38.3996 27.7875V20.2125C38.3998 19.7204 38.2384 19.2419 37.9404 18.8503C37.6423 18.4588 37.224 18.1759 36.7496 18.045ZM18.4496 25.2225C18.5728 25.319 18.6631 25.4512 18.7083 25.6011C18.7535 25.7509 18.7514 25.911 18.7021 26.0595C18.6529 26.2081 18.559 26.3378 18.4332 26.4309C18.3075 26.5241 18.156 26.5762 17.9996 26.58C17.6366 26.634 16.7869 25.8135 16.4996 25.6425V26.385C16.4996 26.5839 16.4206 26.7747 16.2799 26.9153C16.1393 27.056 15.9485 27.135 15.7496 27.135C15.5507 27.135 15.3599 27.056 15.2193 26.9153C15.0786 26.7747 14.9996 26.5839 14.9996 26.385V25.6425L13.9496 26.43C13.7905 26.5493 13.5905 26.6006 13.3935 26.5725C13.1966 26.5443 13.019 26.4391 12.8996 26.28C12.7803 26.1209 12.729 25.9208 12.7571 25.7239C12.7853 25.527 12.8905 25.3493 13.0496 25.23L14.4971 24.1425L13.0496 23.055C12.8905 22.9357 12.7853 22.758 12.7571 22.5611C12.729 22.3642 12.7803 22.1641 12.8996 22.005C13.019 21.8459 13.1966 21.7407 13.3935 21.7125C13.5905 21.6844 13.7905 21.7357 13.9496 21.855L14.9996 22.6425V21.885C14.9996 21.6861 15.0786 21.4953 15.2193 21.3547C15.3599 21.214 15.5507 21.135 15.7496 21.135C15.9485 21.135 16.1393 21.214 16.2799 21.3547C16.4206 21.4953 16.4996 21.6861 16.4996 21.885V22.6425L17.5496 21.855C17.7087 21.7357 17.9088 21.6844 18.1057 21.7125C18.3026 21.7407 18.4803 21.8459 18.5996 22.005C18.719 22.1641 18.7702 22.3642 18.7421 22.5611C18.7139 22.758 18.6087 22.9357 18.4496 23.055L17.0021 24.1425L18.4496 25.2225ZM26.6996 25.2225C26.8228 25.319 26.9131 25.4512 26.9583 25.6011C27.0035 25.7509 27.0014 25.911 26.9521 26.0595C26.9029 26.2081 26.809 26.3378 26.6832 26.4309C26.5575 26.5241 26.406 26.5762 26.2496 26.58C25.8866 26.634 25.0369 25.8135 24.7496 25.6425V26.385C24.7496 26.5839 24.6706 26.7747 24.5299 26.9153C24.3893 27.056 24.1985 27.135 23.9996 27.135C23.8007 27.135 23.6099 27.056 23.4693 26.9153C23.3286 26.7747 23.2496 26.5839 23.2496 26.385V25.6425L22.1996 26.43C22.0405 26.5493 21.8405 26.6006 21.6435 26.5725C21.4466 26.5443 21.269 26.4391 21.1496 26.28C21.0303 26.1209 20.979 25.9208 21.0071 25.7239C21.0353 25.527 21.1405 25.3493 21.2996 25.23L22.7471 24.1425L21.2996 23.055C21.2208 22.9959 21.1544 22.9219 21.1043 22.8371C21.0541 22.7524 21.0211 22.6586 21.0071 22.5611C20.9932 22.4636 20.9986 22.3643 21.0231 22.2689C21.0475 22.1735 21.0905 22.0838 21.1496 22.005C21.2087 21.9262 21.2827 21.8598 21.3675 21.8096C21.4522 21.7595 21.546 21.7265 21.6435 21.7125C21.741 21.6986 21.8403 21.704 21.9357 21.7285C22.0312 21.7529 22.1208 21.7959 22.1996 21.855L23.2496 22.6425V21.885C23.2496 21.6861 23.3286 21.4953 23.4693 21.3547C23.6099 21.214 23.8007 21.135 23.9996 21.135C24.1985 21.135 24.3893 21.214 24.5299 21.3547C24.6706 21.4953 24.7496 21.6861 24.7496 21.885V22.6425L25.7996 21.855C25.9587 21.7357 26.1588 21.6844 26.3557 21.7125C26.5526 21.7407 26.7303 21.8459 26.8496 22.005C26.969 22.1641 27.0202 22.3642 26.9921 22.5611C26.9639 22.758 26.8587 22.9357 26.6996 23.055L25.2521 24.1425L26.6996 25.2225ZM34.9496 25.2225C35.0728 25.319 35.1631 25.4512 35.2083 25.6011C35.2535 25.7509 35.2514 25.911 35.2021 26.0595C35.1529 26.2081 35.059 26.3378 34.9332 26.4309C34.8075 26.5241 34.656 26.5762 34.4996 26.58C34.1366 26.634 33.2869 25.8135 32.9996 25.6425V26.385C32.9996 26.5839 32.9206 26.7747 32.7799 26.9153C32.6393 27.056 32.4485 27.135 32.2496 27.135C32.0507 27.135 31.8599 27.056 31.7193 26.9153C31.5786 26.7747 31.4996 26.5839 31.4996 26.385V25.6425L30.4496 26.43C30.2905 26.5493 30.0905 26.6006 29.8935 26.5725C29.6966 26.5443 29.519 26.4391 29.3996 26.28C29.2803 26.1209 29.229 25.9208 29.2571 25.7239C29.2853 25.527 29.3905 25.3493 29.5496 25.23L30.9971 24.1425L29.5496 23.055C29.3905 22.9357 29.2853 22.758 29.2571 22.5611C29.229 22.3642 29.2803 22.1641 29.3996 22.005C29.519 21.8459 29.6966 21.7407 29.8935 21.7125C30.0905 21.6844 30.2905 21.7357 30.4496 21.855L31.4996 22.6425V21.885C31.4996 21.6861 31.5786 21.4953 31.7193 21.3547C31.8599 21.214 32.0507 21.135 32.2496 21.135C32.4485 21.135 32.6393 21.214 32.7799 21.3547C32.9206 21.4953 32.9996 21.6861 32.9996 21.885V22.6425L34.0496 21.855C34.1284 21.7959 34.2181 21.7529 34.3135 21.7285C34.4089 21.704 34.5082 21.6986 34.6057 21.7125C34.7032 21.7265 34.797 21.7595 34.8817 21.8096C34.9665 21.8598 35.0405 21.9262 35.0996 22.005C35.1587 22.0838 35.2017 22.1735 35.2261 22.2689C35.2506 22.3643 35.256 22.4636 35.2421 22.5611C35.2281 22.6586 35.1951 22.7524 35.145 22.8371C35.0948 22.9219 35.0284 22.9959 34.9496 23.055L33.5021 24.1425L34.9496 25.2225ZM11.8496 31.5375C11.6484 31.539 11.4475 31.5214 11.2496 31.485V42C11.2495 42.394 11.327 42.7841 11.4778 43.1482C11.6285 43.5122 11.8495 43.8429 12.1281 44.1215C12.4067 44.4001 12.7374 44.6211 13.1014 44.7718C13.4655 44.9226 13.8556 45.0001 14.2496 45H33.7496C34.1436 45.0001 34.5338 44.9226 34.8978 44.7718C35.2618 44.6211 35.5926 44.4001 35.8712 44.1215C36.1497 43.8429 36.3707 43.5122 36.5215 43.1482C36.6722 42.7841 36.7497 42.394 36.7496 42V31.485C36.5517 31.5214 36.3508 31.539 36.1496 31.5375H11.8496Z" fill="url(#paint0_linear_29869_662)"/>
<path d="M36.15 16.4625C36.3512 16.461 36.5521 16.4786 36.75 16.515V6C36.7501 5.60601 36.6726 5.21585 36.5218 4.85183C36.3711 4.48781 36.1501 4.15706 35.8715 3.87846C35.5929 3.59986 35.2622 3.37889 34.8982 3.22816C34.5341 3.07743 34.144 2.9999 33.75 3H31.9725L31.3275 4.5L29.835 7.9725C29.7651 8.07319 29.6721 8.15569 29.5638 8.2131C29.4555 8.27051 29.3351 8.30116 29.2125 8.3025H18.7875C18.6649 8.30116 18.5445 8.27051 18.4362 8.2131C18.3279 8.15569 18.2349 8.07319 18.165 7.9725L16.6725 4.5L16.0275 3H14.25C13.856 2.9999 13.4659 3.07743 13.1018 3.22816C12.7378 3.37889 12.4071 3.59986 12.1285 3.87846C11.8499 4.15706 11.6289 4.48781 11.4782 4.85183C11.3274 5.21585 11.2499 5.60601 11.25 6V16.515C11.4479 16.4786 11.6488 16.461 11.85 16.4625H36.15Z" fill="url(#paint1_linear_29869_662)"/>
<defs>
<linearGradient id="paint0_linear_29869_662" x1="22.6434" y1="17.28" x2="39.2256" y2="17.2706" gradientUnits="userSpaceOnUse">
<stop stop-color="#D60BDE"/>
<stop offset="1" stop-color="#324E8E"/>
</linearGradient>
<linearGradient id="paint1_linear_29869_662" x1="22.7992" y1="7.5951" x2="37.4813" y2="7.57209" gradientUnits="userSpaceOnUse">
<stop stop-color="#D60BDE"/>
<stop offset="1" stop-color="#324E8E"/>
</linearGradient>
</defs>
</svg>
