<svg width="48" height="48" viewBox="0 0 48 48" fill="none" xmlns="http://www.w3.org/2000/svg">
<path d="M48 15.2812V12.75C48 9.8505 45.6495 7.5 42.75 7.5H5.25C2.3505 7.5 0 9.8505 0 12.75V15.2812C0 15.4056 0.049386 15.5248 0.137294 15.6127C0.225201 15.7006 0.34443 15.75 0.46875 15.75H47.5312C47.6556 15.75 47.7748 15.7006 47.8627 15.6127C47.9506 15.5248 48 15.4056 48 15.2812ZM0 19.2188V35.25C0 38.1495 2.3505 40.5 5.25 40.5H42.75C45.6495 40.5 48 38.1495 48 35.25V19.2188C48 19.0944 47.9506 18.9752 47.8627 18.8873C47.7748 18.7994 47.6556 18.75 47.5312 18.75H0.46875C0.34443 18.75 0.225201 18.7994 0.137294 18.8873C0.049386 18.9752 0 19.0944 0 19.2188ZM12 31.5C12 32.3284 11.3284 33 10.5 33H9C8.17162 33 7.5 32.3284 7.5 31.5V30C7.5 29.1716 8.17162 28.5 9 28.5H10.5C11.3284 28.5 12 29.1716 12 30V31.5Z" fill="url(#paint0_linear_29956_357)"/>
<defs>
<linearGradient id="paint0_linear_29956_357" x1="-15.3158" y1="1.90179" x2="49.8911" y2="13.885" gradientUnits="userSpaceOnUse">
<stop stop-color="#330166"/>
<stop offset="1" stop-color="#D60BDE"/>
</linearGradient>
</defs>
</svg>
