<svg width="48" height="48" viewBox="0 0 48 48" fill="none" xmlns="http://www.w3.org/2000/svg">
<path d="M12.8569 8.5731H39.4283V7.71596C39.4283 6.29589 38.2769 5.14453 36.8569 5.14453H7.71401C6.29394 5.14453 5.14258 6.29589 5.14258 7.71596V40.2874C5.14258 41.7075 6.29394 42.8588 7.71401 42.8588H8.57115V12.8588C8.57404 10.4929 10.4909 8.576 12.8569 8.5731Z" fill="url(#paint0_linear_29833_12)"/>
<path d="M44.5709 17.1445H10.2852V45.4302C10.2852 46.8503 11.4365 48.0017 12.8566 48.0017H41.9994C43.4195 48.0017 44.5709 46.8503 44.5709 45.4302V17.1445Z" fill="url(#paint1_linear_29833_12)"/>
<path d="M7.71429 3.42857H34.2857V2.57143C34.2857 1.15136 33.1344 0 31.7143 0H2.57143C1.15136 0 0 1.15136 0 2.57143V35.1429C0 36.5629 1.15136 37.7143 2.57143 37.7143H3.42857V7.71429C3.43146 5.34836 5.34836 3.43146 7.71429 3.42857Z" fill="url(#paint2_linear_29833_12)"/>
<path d="M44.5709 12.8566C44.5709 11.4365 43.4195 10.2852 41.9994 10.2852H12.8566C11.4365 10.2852 10.2852 11.4365 10.2852 12.8566V15.428H44.5709V12.8566ZM13.6452 13.1823C13.6015 13.2861 13.5407 13.3817 13.4652 13.4652C13.3453 13.5851 13.1922 13.6664 13.0256 13.6985C12.8591 13.7306 12.6867 13.712 12.5309 13.6452C12.426 13.6037 12.33 13.5426 12.248 13.4652C12.1725 13.3817 12.1116 13.2861 12.068 13.1823C12.0229 13.0796 11.9995 12.9687 11.9995 12.8566C11.9995 12.7444 12.0229 12.6335 12.068 12.5309C12.1094 12.426 12.1705 12.33 12.248 12.248C12.4137 12.095 12.631 12.0101 12.8566 12.0101C13.0821 12.0101 13.2994 12.095 13.4652 12.248C13.5426 12.33 13.6037 12.426 13.6452 12.5309C13.6905 12.6335 13.7139 12.7444 13.7139 12.8566C13.7139 12.9688 13.6905 13.0797 13.6452 13.1823ZM16.2166 13.1823C16.173 13.2861 16.1121 13.3817 16.0366 13.4652C15.9167 13.5851 15.7636 13.6664 15.5971 13.6985C15.4305 13.7306 15.2582 13.712 15.1023 13.6452C14.9985 13.6017 14.9028 13.5408 14.8194 13.4652C14.7439 13.3817 14.6831 13.2861 14.6394 13.1823C14.5913 13.0806 14.5679 12.969 14.5709 12.8566C14.5721 12.7446 14.5954 12.6339 14.6394 12.5309C14.6809 12.426 14.742 12.33 14.8194 12.248C14.9852 12.095 15.2025 12.0101 15.428 12.0101C15.6536 12.0101 15.8708 12.095 16.0366 12.248C16.1141 12.33 16.1752 12.426 16.2166 12.5309C16.2619 12.6335 16.2854 12.7444 16.2854 12.8566C16.2854 12.9688 16.2619 13.0797 16.2166 13.1823ZM18.608 13.4652C18.4882 13.586 18.335 13.6685 18.1681 13.7019C18.0012 13.7354 17.8281 13.7184 17.6709 13.6531C17.5136 13.5879 17.3793 13.4773 17.2852 13.3354C17.191 13.1936 17.1413 13.0269 17.1423 12.8566C17.1393 12.7441 17.1628 12.6326 17.2109 12.5309C17.2523 12.426 17.3134 12.33 17.3909 12.248C17.5566 12.095 17.7739 12.0101 17.9994 12.0101C18.225 12.0101 18.4423 12.095 18.608 12.248C18.6855 12.33 18.7466 12.426 18.788 12.5309C18.8549 12.6867 18.8735 12.8591 18.8414 13.0256C18.8093 13.1922 18.728 13.3453 18.608 13.4652Z" fill="url(#paint3_linear_29833_12)"/>
<defs>
<linearGradient id="paint0_linear_29833_12" x1="20.6709" y1="17.9674" x2="40.4116" y2="17.9525" gradientUnits="userSpaceOnUse">
<stop stop-color="#D60BDE"/>
<stop offset="1" stop-color="#324E8E"/>
</linearGradient>
<linearGradient id="paint1_linear_29833_12" x1="25.8135" y1="27.636" x2="45.5541" y2="27.6177" gradientUnits="userSpaceOnUse">
<stop stop-color="#D60BDE"/>
<stop offset="1" stop-color="#324E8E"/>
</linearGradient>
<linearGradient id="paint2_linear_29833_12" x1="15.5284" y1="12.8229" x2="35.269" y2="12.8079" gradientUnits="userSpaceOnUse">
<stop stop-color="#D60BDE"/>
<stop offset="1" stop-color="#324E8E"/>
</linearGradient>
<linearGradient id="paint3_linear_29833_12" x1="25.8135" y1="12.0337" x2="45.5535" y2="11.9244" gradientUnits="userSpaceOnUse">
<stop stop-color="#D60BDE"/>
<stop offset="1" stop-color="#324E8E"/>
</linearGradient>
</defs>
</svg>
