<svg width="48" height="48" viewBox="0 0 48 48" fill="none" xmlns="http://www.w3.org/2000/svg">
<g clip-path="url(#clip0_29869_676)">
<mask id="mask0_29869_676" style="mask-type:luminance" maskUnits="userSpaceOnUse" x="0" y="0" width="48" height="48">
<path d="M0 0H48V48H0V0Z" fill="white"/>
</mask>
<g mask="url(#mask0_29869_676)">
<path fill-rule="evenodd" clip-rule="evenodd" d="M33.3672 19.2C33.5112 20.7096 33.6 22.3008 33.6 24C33.6 24.6365 33.3471 25.247 32.8971 25.6971C32.447 26.1471 31.8365 26.4 31.2 26.4C30.5635 26.4 29.953 26.1471 29.5029 25.6971C29.0529 25.247 28.8 24.6365 28.8 24C28.8 22.2888 28.7064 20.6928 28.548 19.2H19.4208C19.0872 22.392 19.0848 25.608 19.4112 28.8H24C24.6365 28.8 25.247 29.0529 25.6971 29.5029C26.1471 29.953 26.4 30.5635 26.4 31.2C26.4 31.8365 26.1471 32.447 25.6971 32.8971C25.247 33.3471 24.6365 33.6 24 33.6H20.1984C21.324 38.592 23.0832 41.784 24.0024 43.2C24.0024 43.2 25.896 43.2312 26.2248 43.2048C26.8586 43.1637 27.4831 43.3734 27.9635 43.7888C28.444 44.2041 28.7418 44.7918 28.7928 45.4248C28.8391 46.0594 28.6314 46.6863 28.2156 47.1679C27.7998 47.6494 27.2097 47.9461 26.5752 47.9928C26.3496 48.0096 24 48 24 48C10.7664 48 0 37.2336 0 24C0 10.764 10.7664 0 24 0C37.2336 0 48 10.764 48 24C48 24.9096 47.9136 25.7976 47.8104 26.6784C47.7151 27.2927 47.3853 27.8462 46.8904 28.2225C46.3955 28.5987 45.7741 28.7685 45.1566 28.6961C44.5392 28.6237 43.9738 28.3148 43.5794 27.8342C43.185 27.3537 42.9922 26.7389 43.0416 26.1192C43.1256 25.4208 43.2 24.72 43.2 24C43.2 22.3392 42.9648 20.736 42.5688 19.2H33.3672ZM23.9712 4.8864C23.0448 6.3408 21.3312 9.5208 20.2176 14.4H27.7464C26.628 9.5208 24.9024 6.3408 23.9712 4.8864ZM5.4312 28.8H14.5968C14.447 27.2076 14.3709 25.6091 14.3688 24.0096C14.3688 22.4016 14.448 20.7984 14.5992 19.2H5.4312C5.01774 20.7667 4.80563 22.3797 4.8 24C4.80599 25.6203 5.0181 27.2332 5.4312 28.8ZM7.3968 33.6C9.76679 37.6889 13.5565 40.7646 18.0456 42.2424C16.795 39.4782 15.8704 36.5779 15.2904 33.6H7.3968ZM15.2952 14.4C15.8752 11.4199 16.8015 8.51783 18.0552 5.7528C13.5616 7.22956 9.76806 10.3073 7.3968 14.4H15.2952ZM32.6688 14.4H40.6008C38.2198 10.288 34.4034 7.20077 29.8848 5.7312C31.1506 8.50121 32.0851 11.4109 32.6688 14.4Z" fill="url(#paint0_linear_29869_676)"/>
<path d="M36.536 45.4688L30.416 32.0048C30.315 31.7824 30.2843 31.5346 30.3279 31.2943C30.3715 31.054 30.4874 30.8327 30.6601 30.6601C30.8327 30.4874 31.054 30.3715 31.2943 30.3279C31.5346 30.2843 31.7824 30.315 32.0048 30.416L45.4688 36.536C45.6755 36.6295 45.8515 36.7798 45.9763 36.9693C46.1011 37.1588 46.1696 37.3798 46.1739 37.6067C46.1782 37.8336 46.118 38.057 46.0004 38.2511C45.8829 38.4452 45.7127 38.6019 45.5096 38.7032L41.3288 40.7912C41.0969 40.9078 40.9092 41.0964 40.7936 41.3288L38.7032 45.5096C38.6019 45.7127 38.4452 45.8829 38.2511 46.0004C38.057 46.118 37.8336 46.1782 37.6067 46.1739C37.3798 46.1696 37.1588 46.1011 36.9693 45.9763C36.7798 45.8515 36.6295 45.6755 36.536 45.4688Z" fill="url(#paint1_linear_29869_676)"/>
</g>
</g>
<defs>
<linearGradient id="paint0_linear_29869_676" x1="21.7397" y1="16.3209" x2="49.3766" y2="16.298" gradientUnits="userSpaceOnUse">
<stop stop-color="#D60BDE"/>
<stop offset="1" stop-color="#324E8E"/>
</linearGradient>
<linearGradient id="paint1_linear_29869_676" x1="37.4943" y1="35.7029" x2="46.6291" y2="35.6953" gradientUnits="userSpaceOnUse">
<stop stop-color="#D60BDE"/>
<stop offset="1" stop-color="#324E8E"/>
</linearGradient>
<clipPath id="clip0_29869_676">
<rect width="48" height="48" fill="white"/>
</clipPath>
</defs>
</svg>
